<?xml version="1.0"?>
<svg version="1.1" xmlns="http://www.w3.org/2000/svg" xmlns:xlink="http://www.w3.org/1999/xlink" width="170" height="170">
    <desc iVinci="yes" version="4.6" gridStep="20" showGrid="no" snapToGrid="no" codePlatform="0"/>
    <g id="Layer1" name="Layer 1" opacity="1">
        <g id="Shape1">
            <desc shapeID="1" type="0" basicInfo-basicType="0" basicInfo-roundedRectRadius="12" basicInfo-polygonSides="6" basicInfo-starPoints="5" bounding="rect(-82.9,-82.9033,165.8,165.805)" text="" font-familyName="" font-pixelSize="20" font-bold="0" font-underline="0" font-alignment="1" strokeStyle="0" markerStart="0" markerEnd="0" shadowEnabled="0" shadowOffsetX="0" shadowOffsetY="2" shadowBlur="4" shadowOpacity="160" blurEnabled="0" blurRadius="4" transform="matrix(1,0,0,1,85,85.0008)" pers-center="0,0" pers-size="0,0" pers-start="0,0" pers-end="0,0" locked="0" mesh="" flag=""/>
            <path id="shapePath1" d="M122.487,167.903 L47.514,167.903 C22.432,167.903 2.10001,147.571 2.10001,122.49 L2.10001,47.5105 C2.10001,22.4305 22.432,2.0975 47.514,2.0975 L122.487,2.0975 C147.568,2.0975 167.9,22.4305 167.9,47.5105 L167.9,122.49 C167.9,147.571 147.568,167.903 122.487,167.903 Z" style="stroke:none;fill-rule:evenodd;fill:#ffffff;fill-opacity:1;"/>
        </g>
        <g id="Shape2">
            <desc shapeID="2" type="0" basicInfo-basicType="0" basicInfo-roundedRectRadius="12" basicInfo-polygonSides="6" basicInfo-starPoints="5" bounding="rect(-48.7199,-58.6601,97.4397,117.32)" text="B" font-familyName="Hiragino Kaku Gothic StdN" font-pixelSize="140" font-bold="1" font-underline="0" font-alignment="1" strokeStyle="0" markerStart="0" markerEnd="0" shadowEnabled="0" shadowOffsetX="0" shadowOffsetY="2" shadowBlur="4" shadowOpacity="160" blurEnabled="0" blurRadius="4" transform="matrix(1,0,0,0.823311,87.9741,84.7405)" pers-center="0,0" pers-size="0,0" pers-start="0,0" pers-end="0,0" locked="0" mesh="" flag=""/>
            <path id="shapePath2" d="M98.0543,132.69 C122.414,132.69 136.694,122.893 136.694,106.295 C136.694,98.6873 133.614,92.4631 127.594,88.0831 C123.534,85.2015 119.894,83.8184 113.034,82.5504 C118.774,80.8215 121.294,79.6689 124.374,77.4789 C129.694,73.5599 132.494,68.0272 132.494,60.9962 C132.494,45.7814 119.194,36.7908 96.5143,36.7908 L59.8343,36.7908 L39.2543,36.445 L39.2543,133.036 L59.9743,132.69 L98.0543,132.69 M67.8143,73.7904 L67.8143,55.694 L92.1743,55.694 C100.154,55.694 104.494,58.9214 104.494,64.5693 C104.494,70.2172 99.8743,73.7904 92.4543,73.7904 L67.8143,73.7904 M67.8143,92.2326 L93.4343,92.2326 C102.394,92.2326 107.714,96.1516 107.714,102.837 C107.714,109.637 102.394,113.672 93.5743,113.672 L67.8143,113.672 L67.8143,92.2326 Z" style="stroke:none;fill-rule:evenodd;fill:#555555;fill-opacity:1;"/>
        </g>
        <g id="Shape3">
            <desc shapeID="3" type="0" basicInfo-basicType="1" basicInfo-roundedRectRadius="12" basicInfo-polygonSides="6" basicInfo-starPoints="5" bounding="rect(-10.8003,-11.035,21.6005,22.0701)" text="" font-familyName="Hiragino Kaku Gothic StdN" font-pixelSize="140" font-bold="1" font-underline="0" font-alignment="1" strokeStyle="0" markerStart="0" markerEnd="0" shadowEnabled="0" shadowOffsetX="0" shadowOffsetY="2" shadowBlur="4" shadowOpacity="160" blurEnabled="0" blurRadius="4" transform="matrix(0.462952,0,0,0.685543,61.75,29.76)" pers-center="0,0" pers-size="0,0" pers-start="0,0" pers-end="0,0" locked="0" mesh="" flag=""/>
            <path id="shapePath3" d="M56.75,22.195 L66.75,22.195 L66.75,37.325 L56.75,37.325 L56.75,22.195 Z" style="stroke:none;fill-rule:evenodd;fill:#555555;fill-opacity:1;"/>
        </g>
        <g id="Shape4">
            <desc shapeID="4" type="0" basicInfo-basicType="1" basicInfo-roundedRectRadius="12" basicInfo-polygonSides="6" basicInfo-starPoints="5" bounding="rect(-10.8003,-11.035,21.6005,22.0701)" text="" font-familyName="Hiragino Kaku Gothic StdN" font-pixelSize="140" font-bold="1" font-underline="0" font-alignment="1" strokeStyle="0" markerStart="0" markerEnd="0" shadowEnabled="0" shadowOffsetX="0" shadowOffsetY="2" shadowBlur="4" shadowOpacity="160" blurEnabled="0" blurRadius="4" transform="matrix(0.462952,0,0,0.685543,95.84,29.76)" pers-center="0,0" pers-size="0,0" pers-start="0,0" pers-end="0,0" locked="0" mesh="" flag=""/>
            <path id="shapePath4" d="M90.84,22.195 L100.84,22.195 L100.84,37.325 L90.84,37.325 L90.84,22.195 Z" style="stroke:none;fill-rule:evenodd;fill:#555555;fill-opacity:1;"/>
        </g>
        <g id="Shape5">
            <desc shapeID="5" type="0" basicInfo-basicType="1" basicInfo-roundedRectRadius="12" basicInfo-polygonSides="6" basicInfo-starPoints="5" bounding="rect(-10.8003,-11.035,21.6005,22.0701)" text="" font-familyName="Hiragino Kaku Gothic StdN" font-pixelSize="140" font-bold="1" font-underline="0" font-alignment="1" strokeStyle="0" markerStart="0" markerEnd="0" shadowEnabled="0" shadowOffsetX="0" shadowOffsetY="2" shadowBlur="4" shadowOpacity="160" blurEnabled="0" blurRadius="4" transform="matrix(0.462952,0,0,0.685543,61.75,139.95)" pers-center="0,0" pers-size="0,0" pers-start="0,0" pers-end="0,0" locked="0" mesh="" flag=""/>
            <path id="shapePath5" d="M56.75,132.385 L66.75,132.385 L66.75,147.515 L56.75,147.515 L56.75,132.385 Z" style="stroke:none;fill-rule:evenodd;fill:#555555;fill-opacity:1;"/>
        </g>
        <g id="Shape6">
            <desc shapeID="6" type="0" basicInfo-basicType="1" basicInfo-roundedRectRadius="12" basicInfo-polygonSides="6" basicInfo-starPoints="5" bounding="rect(-10.8003,-11.035,21.6005,22.0701)" text="" font-familyName="Hiragino Kaku Gothic StdN" font-pixelSize="140" font-bold="1" font-underline="0" font-alignment="1" strokeStyle="0" markerStart="0" markerEnd="0" shadowEnabled="0" shadowOffsetX="0" shadowOffsetY="2" shadowBlur="4" shadowOpacity="160" blurEnabled="0" blurRadius="4" transform="matrix(0.462952,0,0,0.685543,95.84,139.95)" pers-center="0,0" pers-size="0,0" pers-start="0,0" pers-end="0,0" locked="0" mesh="" flag=""/>
            <path id="shapePath6" d="M90.84,132.385 L100.84,132.385 L100.84,147.515 L90.84,147.515 L90.84,132.385 Z" style="stroke:none;fill-rule:evenodd;fill:#555555;fill-opacity:1;"/>
        </g>
    </g>
</svg>
