<?xml version="1.0"?>
<svg version="1.1" xmlns="http://www.w3.org/2000/svg" xmlns:xlink="http://www.w3.org/1999/xlink" width="640" height="480">
    <desc iVinci="yes" version="4.6" gridStep="20" showGrid="no" snapToGrid="no" codePlatform="0"/>
    <g id="Layer1" name="Layer 1" opacity="1">
        <g id="Shape1">
            <desc shapeID="1" type="0" basicInfo-basicType="1" basicInfo-roundedRectRadius="12" basicInfo-polygonSides="6" basicInfo-starPoints="5" bounding="rect(-76.3772,-61.7383,152.754,123.477)" text="" font-familyName="Helvetica" font-pixelSize="20" font-bold="0" font-underline="0" font-alignment="1" strokeStyle="0" markerStart="0" markerEnd="0" shadowEnabled="0" shadowOffsetX="0" shadowOffsetY="2" shadowBlur="4" shadowOpacity="160" blurEnabled="0" blurRadius="4" transform="matrix(1,0,0,1,89.8181,240)" pers-center="0,0" pers-size="0,0" pers-start="0,0" pers-end="0,0" locked="0" mesh="" flag=""/>
            <path id="shapePath1" d="M13.4408,178.262 L166.195,178.262 L166.195,301.738 L13.4408,301.738 L13.4408,178.262 Z" style="stroke:none;fill-rule:evenodd;fill:#555555;fill-opacity:1;"/>
        </g>
        <g id="Shape2">
            <desc shapeID="2" type="0" basicInfo-basicType="0" basicInfo-roundedRectRadius="12" basicInfo-polygonSides="6" basicInfo-starPoints="5" bounding="rect(-36.0854,-13.6284,72.1709,27.2568)" text="RPT" font-familyName="Helvetica" font-pixelSize="38" font-bold="0" font-underline="0" font-alignment="1" strokeStyle="0" markerStart="0" markerEnd="0" shadowEnabled="0" shadowOffsetX="0" shadowOffsetY="2" shadowBlur="4" shadowOpacity="160" blurEnabled="0" blurRadius="4" transform="matrix(1,0,0,1,89.8181,240)" pers-center="0,0" pers-size="0,0" pers-start="0,0" pers-end="0,0" locked="0" mesh="" flag=""/>
            <path id="shapePath2" d="M65.9601,238.859 C67.6919,238.859 69.0619,238.513 70.07,237.82 C71.0781,237.127 71.5822,235.878 71.5822,234.072 C71.5822,232.13 70.8771,230.806 69.467,230.101 C68.7124,229.73 67.7043,229.544 66.4426,229.544 L57.425,229.544 L57.425,238.859 L65.9601,238.859 M53.7326,226.372 L66.3498,226.372 C68.4279,226.372 70.1411,226.675 71.4894,227.281 C74.05,228.444 75.3303,230.59 75.3303,233.719 C75.3303,235.352 74.9932,236.688 74.319,237.727 C73.6449,238.766 72.7017,239.601 71.4894,240.232 C72.5532,240.665 73.3542,241.234 73.8923,241.939 C74.4304,242.644 74.7303,243.788 74.7922,245.372 L74.9221,249.027 C74.9592,250.066 75.0458,250.839 75.1818,251.346 C75.4045,252.212 75.8003,252.769 76.3693,253.016 L76.3693,253.628 L71.842,253.628 C71.7183,253.393 71.6193,253.09 71.5451,252.719 C71.4709,252.348 71.409,251.631 71.3596,250.567 L71.1369,246.021 C71.0503,244.24 70.3885,243.046 69.1516,242.44 C68.4465,242.106 67.3394,241.939 65.8303,241.939 L57.425,241.939 L57.425,253.628 L53.7326,253.628 L53.7326,226.372 M81.0773,226.372 L93.342,226.372 C95.7665,226.372 97.7209,227.055 99.2053,228.422 C100.69,229.789 101.432,231.709 101.432,234.183 C101.432,236.311 100.77,238.163 99.4465,239.74 C98.1229,241.317 96.0881,242.106 93.342,242.106 L84.7697,242.106 L84.7697,253.628 L81.0773,253.628 L81.0773,226.372 M95.4758,230.12 C94.6594,229.736 93.5399,229.544 92.1174,229.544 L84.7697,229.544 L84.7697,238.989 L92.1174,238.989 C93.7749,238.989 95.1201,238.636 96.153,237.931 C97.1859,237.226 97.7023,235.983 97.7023,234.202 C97.7023,232.198 96.9601,230.837 95.4758,230.12 M125.904,226.372 L125.904,229.619 L116.719,229.619 L116.719,253.628 L112.971,253.628 L112.971,229.619 L103.786,229.619 L103.786,226.372 L125.904,226.372 Z" style="stroke:none;fill-rule:nonzero;fill:#ffffff;fill-opacity:1;"/>
        </g>
        <g id="Shape3">
            <desc shapeID="3" type="0" basicInfo-basicType="1" basicInfo-roundedRectRadius="12" basicInfo-polygonSides="6" basicInfo-starPoints="5" bounding="rect(-76.3772,-61.7383,152.754,123.477)" text="" font-familyName="Helvetica" font-pixelSize="20" font-bold="0" font-underline="0" font-alignment="1" strokeStyle="0" markerStart="0" markerEnd="0" shadowEnabled="0" shadowOffsetX="0" shadowOffsetY="2" shadowBlur="4" shadowOpacity="160" blurEnabled="0" blurRadius="4" transform="matrix(1,0,0,1,320,240)" pers-center="0,0" pers-size="0,0" pers-start="0,0" pers-end="0,0" locked="0" mesh="" flag=""/>
            <path id="shapePath3" d="M243.623,178.262 L396.377,178.262 L396.377,301.738 L243.623,301.738 L243.623,178.262 Z" style="stroke:none;fill-rule:evenodd;fill:#555555;fill-opacity:1;"/>
        </g>
        <g id="Shape4">
            <desc shapeID="4" type="0" basicInfo-basicType="0" basicInfo-roundedRectRadius="12" basicInfo-polygonSides="6" basicInfo-starPoints="5" bounding="rect(-38.748,-14.3984,77.4961,28.7969)" text="RPO" font-familyName="Helvetica" font-pixelSize="38" font-bold="0" font-underline="0" font-alignment="1" strokeStyle="0" markerStart="0" markerEnd="0" shadowEnabled="0" shadowOffsetX="0" shadowOffsetY="2" shadowBlur="4" shadowOpacity="160" blurEnabled="0" blurRadius="4" transform="matrix(1,0,0,1,319.491,240.028)" pers-center="0,0" pers-size="0,0" pers-start="0,0" pers-end="0,0" locked="0" mesh="" flag=""/>
            <path id="shapePath4" d="M292.97,238.859 C294.702,238.859 296.072,238.513 297.08,237.82 C298.088,237.127 298.592,235.878 298.592,234.072 C298.592,232.13 297.887,230.806 296.477,230.101 C295.723,229.73 294.714,229.544 293.453,229.544 L284.435,229.544 L284.435,238.859 L292.97,238.859 M280.743,226.372 L293.36,226.372 C295.438,226.372 297.151,226.675 298.5,227.281 C301.06,228.444 302.34,230.59 302.34,233.719 C302.34,235.352 302.003,236.688 301.329,237.727 C300.655,238.766 299.712,239.601 298.5,240.232 C299.563,240.665 300.364,241.234 300.902,241.939 C301.44,242.644 301.74,243.788 301.802,245.372 L301.932,249.027 C301.969,250.066 302.056,250.839 302.192,251.346 C302.415,252.212 302.81,252.769 303.379,253.016 L303.379,253.628 L298.852,253.628 C298.728,253.393 298.629,253.09 298.555,252.719 C298.481,252.348 298.419,251.631 298.37,250.567 L298.147,246.021 C298.06,244.24 297.399,243.046 296.162,242.44 C295.457,242.106 294.349,241.939 292.84,241.939 L284.435,241.939 L284.435,253.628 L280.743,253.628 L280.743,226.372 M308.087,226.372 L320.352,226.372 C322.777,226.372 324.731,227.055 326.215,228.422 C327.7,229.789 328.442,231.709 328.442,234.183 C328.442,236.311 327.78,238.163 326.457,239.74 C325.133,241.317 323.098,242.106 320.352,242.106 L311.78,242.106 L311.78,253.628 L308.087,253.628 L308.087,226.372 M322.486,230.12 C321.669,229.736 320.55,229.544 319.127,229.544 L311.78,229.544 L311.78,238.989 L319.127,238.989 C320.785,238.989 322.13,238.636 323.163,237.931 C324.196,237.226 324.712,235.983 324.712,234.202 C324.712,232.198 323.97,230.837 322.486,230.12 M355.53,230.268 C357.336,232.68 358.239,235.766 358.239,239.527 C358.239,243.597 357.206,246.98 355.14,249.676 C352.716,252.843 349.258,254.426 344.768,254.426 C340.575,254.426 337.278,253.041 334.878,250.27 C332.738,247.598 331.668,244.221 331.668,240.139 C331.668,236.453 332.584,233.299 334.415,230.676 C336.765,227.312 340.241,225.629 344.842,225.629 C349.654,225.629 353.217,227.176 355.53,230.268 M352.273,247.626 C353.727,245.294 354.454,242.613 354.454,239.583 C354.454,236.379 353.616,233.8 351.939,231.845 C350.263,229.891 347.972,228.914 345.065,228.914 C342.245,228.914 339.944,229.882 338.163,231.817 C336.381,233.753 335.491,236.608 335.491,240.38 C335.491,243.399 336.255,245.944 337.782,248.016 C339.31,250.088 341.787,251.124 345.213,251.124 C348.467,251.124 350.82,249.958 352.273,247.626 Z" style="stroke:none;fill-rule:nonzero;fill:#ffffff;fill-opacity:1;"/>
        </g>
        <g id="Shape5">
            <desc shapeID="5" type="0" basicInfo-basicType="1" basicInfo-roundedRectRadius="12" basicInfo-polygonSides="6" basicInfo-starPoints="5" bounding="rect(-76.3772,-61.7383,152.754,123.477)" text="" font-familyName="Helvetica" font-pixelSize="20" font-bold="0" font-underline="0" font-alignment="1" strokeStyle="0" markerStart="0" markerEnd="0" shadowEnabled="0" shadowOffsetX="0" shadowOffsetY="2" shadowBlur="4" shadowOpacity="160" blurEnabled="0" blurRadius="4" transform="matrix(4.01639,0,0,0.600947,320.201,61.8954)" pers-center="0,0" pers-size="0,0" pers-start="0,0" pers-end="0,0" locked="0" mesh="" flag=""/>
            <path id="shapePath5" d="M13.4408,24.794 L626.962,24.794 L626.962,98.9968 L13.4408,98.9968 L13.4408,24.794 Z" style="stroke:none;fill-rule:evenodd;fill:#555555;fill-opacity:1;"/>
        </g>
        <g id="Shape6">
            <desc shapeID="6" type="0" basicInfo-basicType="0" basicInfo-roundedRectRadius="12" basicInfo-polygonSides="6" basicInfo-starPoints="5" bounding="rect(-104.021,-14.3613,208.041,28.7227)" text="EXCHANGE" font-familyName="Helvetica" font-pixelSize="38" font-bold="0" font-underline="0" font-alignment="1" strokeStyle="0" markerStart="0" markerEnd="0" shadowEnabled="0" shadowOffsetX="0" shadowOffsetY="2" shadowBlur="4" shadowOpacity="160" blurEnabled="0" blurRadius="4" transform="matrix(1,0,0,1,319.491,61.8954)" pers-center="0,0" pers-size="0,0" pers-start="0,0" pers-end="0,0" locked="0" mesh="" flag=""/>
            <path id="shapePath6" d="M215.47,48.2762 L235.342,48.2762 L235.342,51.6161 L219.07,51.6161 L219.07,59.8915 L234.118,59.8915 L234.118,63.0458 L219.07,63.0458 L219.07,72.286 L235.621,72.286 L235.621,75.5331 L215.47,75.5331 L215.47,48.2762 M242.799,75.5331 L238.346,75.5331 L248.106,61.5614 L238.958,48.2762 L243.579,48.2762 L250.537,58.704 L257.439,48.2762 L261.836,48.2762 L252.689,61.5614 L262.282,75.5331 L257.699,75.5331 L250.351,64.326 L242.799,75.5331 M285.325,50.2616 C287.23,52.0799 288.287,54.1457 288.498,56.4588 L284.898,56.4588 C284.49,54.7023 283.676,53.3107 282.458,52.284 C281.24,51.2573 279.529,50.744 277.328,50.744 C274.643,50.744 272.476,51.6872 270.824,53.5736 C269.173,55.46 268.347,58.3514 268.347,62.2479 C268.347,65.4393 269.092,68.0277 270.583,70.013 C272.074,71.9984 274.297,72.9911 277.253,72.9911 C279.975,72.9911 282.047,71.9458 283.469,69.8553 C284.224,68.7544 284.787,67.3071 285.158,65.5135 L288.757,65.5135 C288.436,68.3833 287.372,70.7892 285.566,72.7313 C283.401,75.0692 280.482,76.2381 276.808,76.2381 C273.641,76.2381 270.982,75.2795 268.83,73.3622 C265.997,70.8264 264.581,66.9113 264.581,61.617 C264.581,57.5969 265.644,54.3003 267.772,51.7274 C270.073,48.9318 273.246,47.534 277.291,47.534 C280.742,47.534 283.42,48.4432 285.325,50.2616 M293.335,48.2762 L297.065,48.2762 L297.065,59.5389 L311.241,59.5389 L311.241,48.2762 L314.97,48.2762 L314.97,75.5331 L311.241,75.5331 L311.241,62.786 L297.065,62.786 L297.065,75.5331 L293.335,75.5331 L293.335,48.2762 M334.67,64.3631 L330.533,52.3211 L326.135,64.3631 L334.67,64.3631 M328.603,48.2762 L332.778,48.2762 L342.667,75.5331 L338.623,75.5331 L335.858,67.369 L325.078,67.369 L322.127,75.5331 L318.342,75.5331 L328.603,48.2762 M346.024,48.2762 L350.384,48.2762 L364.152,70.3563 L364.152,48.2762 L367.659,48.2762 L367.659,75.5331 L363.521,75.5331 L349.549,53.4715 L349.549,75.5331 L346.024,75.5331 L346.024,48.2762 M391.886,49.0555 C394.595,50.478 396.253,52.9706 396.859,56.5331 L393.204,56.5331 C392.758,54.5415 391.837,53.0912 390.439,52.182 C389.041,51.2728 387.278,50.8182 385.151,50.8182 C382.627,50.8182 380.503,51.7645 378.777,53.6571 C377.052,55.5497 376.189,58.37 376.189,62.118 C376.189,65.3589 376.9,67.9968 378.323,70.0316 C379.745,72.0664 382.065,73.0838 385.281,73.0838 C387.742,73.0838 389.78,72.3695 391.395,70.9408 C393.009,69.5121 393.834,67.202 393.872,64.0106 L385.336,64.0106 L385.336,60.9491 L397.304,60.9491 L397.304,75.5331 L394.929,75.5331 L394.039,72.0262 C392.789,73.3993 391.682,74.3517 390.717,74.8836 C389.097,75.799 387.037,76.2567 384.539,76.2567 C381.31,76.2567 378.533,75.2114 376.208,73.1209 C373.672,70.4986 372.404,66.8989 372.404,62.3221 C372.404,57.7577 373.641,54.1271 376.115,51.4305 C378.465,48.8576 381.508,47.5711 385.244,47.5711 C387.804,47.5711 390.018,48.0659 391.886,49.0555 M403.361,48.2762 L423.233,48.2762 L423.233,51.6161 L406.96,51.6161 L406.96,59.8915 L422.008,59.8915 L422.008,63.0458 L406.96,63.0458 L406.96,72.286 L423.511,72.286 L423.511,75.5331 L403.361,75.5331 L403.361,48.2762 Z" style="stroke:none;fill-rule:nonzero;fill:#ffffff;fill-opacity:1;"/>
        </g>
        <g id="Shape7">
            <desc shapeID="7" type="0" basicInfo-basicType="1" basicInfo-roundedRectRadius="12" basicInfo-polygonSides="6" basicInfo-starPoints="5" bounding="rect(-76.3772,-61.7383,152.754,123.477)" text="" font-familyName="Helvetica" font-pixelSize="20" font-bold="0" font-underline="0" font-alignment="1" strokeStyle="0" markerStart="0" markerEnd="0" shadowEnabled="0" shadowOffsetX="0" shadowOffsetY="2" shadowBlur="4" shadowOpacity="160" blurEnabled="0" blurRadius="4" transform="matrix(1,0,0,1,550.585,240)" pers-center="0,0" pers-size="0,0" pers-start="0,0" pers-end="0,0" locked="0" mesh="" flag=""/>
            <path id="shapePath7" d="M474.207,178.262 L626.962,178.262 L626.962,301.738 L474.207,301.738 L474.207,178.262 Z" style="stroke:none;fill-rule:evenodd;fill:#555555;fill-opacity:1;"/>
        </g>
        <g id="Shape8">
            <desc shapeID="8" type="0" basicInfo-basicType="0" basicInfo-roundedRectRadius="12" basicInfo-polygonSides="6" basicInfo-starPoints="5" bounding="rect(-37.709,-13.6284,75.418,27.2568)" text="RPR" font-familyName="Helvetica" font-pixelSize="38" font-bold="0" font-underline="0" font-alignment="1" strokeStyle="0" markerStart="0" markerEnd="0" shadowEnabled="0" shadowOffsetX="0" shadowOffsetY="2" shadowBlur="4" shadowOpacity="160" blurEnabled="0" blurRadius="4" transform="matrix(1,0,0,1,550.083,240)" pers-center="0,0" pers-size="0,0" pers-start="0,0" pers-end="0,0" locked="0" mesh="" flag=""/>
            <path id="shapePath8" d="M524.602,238.859 C526.333,238.859 527.703,238.513 528.711,237.82 C529.72,237.127 530.224,235.878 530.224,234.072 C530.224,232.13 529.519,230.806 528.108,230.101 C527.354,229.73 526.346,229.544 525.084,229.544 L516.066,229.544 L516.066,238.859 L524.602,238.859 M512.374,226.372 L524.991,226.372 C527.069,226.372 528.783,226.675 530.131,227.281 C532.691,228.444 533.972,230.59 533.972,233.719 C533.972,235.352 533.635,236.688 532.961,237.727 C532.286,238.766 531.343,239.601 530.131,240.232 C531.195,240.665 531.996,241.234 532.534,241.939 C533.072,242.644 533.372,243.788 533.434,245.372 L533.564,249.027 C533.601,250.066 533.687,250.839 533.823,251.346 C534.046,252.212 534.442,252.769 535.011,253.016 L535.011,253.628 L530.483,253.628 C530.36,253.393 530.261,253.09 530.187,252.719 C530.112,252.348 530.051,251.631 530.001,250.567 L529.778,246.021 C529.692,244.24 529.03,243.046 527.793,242.44 C527.088,242.106 525.981,241.939 524.472,241.939 L516.066,241.939 L516.066,253.628 L512.374,253.628 L512.374,226.372 M539.719,226.372 L551.983,226.372 C554.408,226.372 556.362,227.055 557.847,228.422 C559.331,229.789 560.073,231.709 560.073,234.183 C560.073,236.311 559.411,238.163 558.088,239.74 C556.764,241.317 554.73,242.106 551.983,242.106 L543.411,242.106 L543.411,253.628 L539.719,253.628 L539.719,226.372 M554.117,230.12 C553.301,229.736 552.181,229.544 550.759,229.544 L543.411,229.544 L543.411,238.989 L550.759,238.989 C552.416,238.989 553.762,238.636 554.794,237.931 C555.827,237.226 556.344,235.983 556.344,234.202 C556.344,232.198 555.602,230.837 554.117,230.12 M577.383,238.859 C579.115,238.859 580.485,238.513 581.493,237.82 C582.501,237.127 583.005,235.878 583.005,234.072 C583.005,232.13 582.3,230.806 580.89,230.101 C580.135,229.73 579.127,229.544 577.865,229.544 L568.848,229.544 L568.848,238.859 L577.383,238.859 M565.155,226.372 L577.773,226.372 C579.851,226.372 581.564,226.675 582.912,227.281 C585.473,228.444 586.753,230.59 586.753,233.719 C586.753,235.352 586.416,236.688 585.742,237.727 C585.068,238.766 584.124,239.601 582.912,240.232 C583.976,240.665 584.777,241.234 585.315,241.939 C585.853,242.644 586.153,243.788 586.215,245.372 L586.345,249.027 C586.382,250.066 586.469,250.839 586.605,251.346 C586.827,252.212 587.223,252.769 587.792,253.016 L587.792,253.628 L583.265,253.628 C583.141,253.393 583.042,253.09 582.968,252.719 C582.894,252.348 582.832,251.631 582.782,250.567 L582.56,246.021 C582.473,244.24 581.811,243.046 580.574,242.44 C579.869,242.106 578.762,241.939 577.253,241.939 L568.848,241.939 L568.848,253.628 L565.155,253.628 L565.155,226.372 Z" style="stroke:none;fill-rule:nonzero;fill:#ffffff;fill-opacity:1;"/>
        </g>
        <g id="Shape9">
            <desc shapeID="9" type="0" basicInfo-basicType="1" basicInfo-roundedRectRadius="12" basicInfo-polygonSides="6" basicInfo-starPoints="5" bounding="rect(-51.8729,-21.9585,103.746,43.9169)" text="" font-familyName="Helvetica" font-pixelSize="38" font-bold="0" font-underline="0" font-alignment="1" strokeStyle="0" markerStart="0" markerEnd="0" shadowEnabled="0" shadowOffsetX="0" shadowOffsetY="2" shadowBlur="4" shadowOpacity="160" blurEnabled="0" blurRadius="4" transform="matrix(-0.00145423,-0.345067,0.0869554,-0.00036646,319.503,325.252)" pers-center="0,0" pers-size="0,0" pers-start="0,0" pers-end="0,0" locked="0" mesh="" flag=""/>
            <path id="shapePath9" d="M317.669,343.159 L317.518,307.36 L321.337,307.344 L321.487,343.143 L317.669,343.159 Z" style="stroke:none;fill-rule:evenodd;fill:#555555;fill-opacity:1;"/>
        </g>
        <g id="Shape10">
            <desc shapeID="10" type="0" basicInfo-basicType="5" basicInfo-roundedRectRadius="12" basicInfo-polygonSides="6" basicInfo-starPoints="5" bounding="rect(-6.44435,-6.89008,12.8887,13.7801)" text="" font-familyName="Helvetica" font-pixelSize="38" font-bold="0" font-underline="0" font-alignment="1" strokeStyle="0" markerStart="0" markerEnd="0" shadowEnabled="0" shadowOffsetX="0" shadowOffsetY="2" shadowBlur="4" shadowOpacity="160" blurEnabled="0" blurRadius="4" transform="matrix(-0.00421431,-0.999991,0.999991,-0.00421431,319.431,308.212)" pers-center="0,0" pers-size="0,0" pers-start="0,0" pers-end="0,0" locked="0" mesh="" flag=""/>
            <path id="shapePath10" d="M319.404,301.767 L326.348,314.627 L312.568,314.685 L319.404,301.767 Z" style="stroke:none;fill-rule:evenodd;fill:#555555;fill-opacity:1;"/>
        </g>
        <g id="Shape11">
            <desc shapeID="11" type="0" basicInfo-basicType="1" basicInfo-roundedRectRadius="12" basicInfo-polygonSides="6" basicInfo-starPoints="5" bounding="rect(-51.8729,-21.9585,103.746,43.9169)" text="" font-familyName="Helvetica" font-pixelSize="38" font-bold="0" font-underline="0" font-alignment="1" strokeStyle="0" markerStart="0" markerEnd="0" shadowEnabled="0" shadowOffsetX="0" shadowOffsetY="2" shadowBlur="4" shadowOpacity="160" blurEnabled="0" blurRadius="4" transform="matrix(-0.00524233,-1.24393,0.0869554,-0.00036646,550.793,371.857)" pers-center="0,0" pers-size="0,0" pers-start="0,0" pers-end="0,0" locked="0" mesh="" flag=""/>
            <path id="shapePath11" d="M549.156,436.391 L548.612,307.339 L552.43,307.323 L552.974,436.375 L549.156,436.391 Z" style="stroke:none;fill-rule:evenodd;fill:#555555;fill-opacity:1;"/>
        </g>
        <g id="Shape12">
            <desc shapeID="12" type="0" basicInfo-basicType="5" basicInfo-roundedRectRadius="12" basicInfo-polygonSides="6" basicInfo-starPoints="5" bounding="rect(-6.44435,-6.89008,12.8887,13.7801)" text="" font-familyName="Helvetica" font-pixelSize="38" font-bold="0" font-underline="0" font-alignment="1" strokeStyle="0" markerStart="0" markerEnd="0" shadowEnabled="0" shadowOffsetX="0" shadowOffsetY="2" shadowBlur="4" shadowOpacity="160" blurEnabled="0" blurRadius="4" transform="matrix(-0.00421431,-0.999991,0.999991,-0.00421431,550.525,308.191)" pers-center="0,0" pers-size="0,0" pers-start="0,0" pers-end="0,0" locked="0" mesh="" flag=""/>
            <path id="shapePath12" d="M550.497,301.746 L557.442,314.606 L543.662,314.664 L550.497,301.746 Z" style="stroke:none;fill-rule:evenodd;fill:#555555;fill-opacity:1;"/>
        </g>
        <g id="Shape13">
            <desc shapeID="13" type="0" basicInfo-basicType="1" basicInfo-roundedRectRadius="12" basicInfo-polygonSides="6" basicInfo-starPoints="5" bounding="rect(-51.8729,-21.9585,103.746,43.9169)" text="" font-familyName="Helvetica" font-pixelSize="38" font-bold="0" font-underline="0" font-alignment="1" strokeStyle="0" markerStart="0" markerEnd="0" shadowEnabled="0" shadowOffsetX="0" shadowOffsetY="2" shadowBlur="4" shadowOpacity="160" blurEnabled="0" blurRadius="4" transform="matrix(-0.00169541,-0.402296,0.0869554,-0.00036646,111.755,322.312)" pers-center="0,0" pers-size="0,0" pers-start="0,0" pers-end="0,0" locked="0" mesh="" flag=""/>
            <path id="shapePath13" d="M109.934,343.189 L109.758,301.452 L113.576,301.436 L113.752,343.172 L109.934,343.189 Z" style="stroke:none;fill-rule:evenodd;fill:#555555;fill-opacity:1;"/>
        </g>
        <g id="Shape14">
            <desc shapeID="14" type="0" basicInfo-basicType="1" basicInfo-roundedRectRadius="12" basicInfo-polygonSides="6" basicInfo-starPoints="5" bounding="rect(-51.8729,-21.9585,103.746,43.9169)" text="" font-familyName="Helvetica" font-pixelSize="38" font-bold="0" font-underline="0" font-alignment="1" strokeStyle="0" markerStart="0" markerEnd="0" shadowEnabled="0" shadowOffsetX="0" shadowOffsetY="2" shadowBlur="4" shadowOpacity="160" blurEnabled="0" blurRadius="4" transform="matrix(-2.00247,-0.000105335,4.57559e-06,-0.0869825,215.629,341.253)" pers-center="0,0" pers-size="0,0" pers-start="0,0" pers-end="0,0" locked="0" mesh="" flag=""/>
            <path id="shapePath14" d="M319.503,343.168 L111.755,343.157 L111.755,339.337 L319.503,339.348 L319.503,343.168 Z" style="stroke:none;fill-rule:evenodd;fill:#555555;fill-opacity:1;"/>
        </g>
        <g id="Shape15">
            <desc shapeID="15" type="0" basicInfo-basicType="1" basicInfo-roundedRectRadius="12" basicInfo-polygonSides="6" basicInfo-starPoints="5" bounding="rect(-51.8729,-21.9585,103.746,43.9169)" text="" font-familyName="Helvetica" font-pixelSize="38" font-bold="0" font-underline="0" font-alignment="1" strokeStyle="0" markerStart="0" markerEnd="0" shadowEnabled="0" shadowOffsetX="0" shadowOffsetY="2" shadowBlur="4" shadowOpacity="160" blurEnabled="0" blurRadius="4" transform="matrix(-0.00555986,-1.31927,0.0869554,-0.00036646,56.7761,367.943)" pers-center="0,0" pers-size="0,0" pers-start="0,0" pers-end="0,0" locked="0" mesh="" flag=""/>
            <path id="shapePath15" d="M55.1551,436.385 L54.5783,299.516 L58.3971,299.5 L58.9739,436.369 L55.1551,436.385 Z" style="stroke:none;fill-rule:evenodd;fill:#555555;fill-opacity:1;"/>
        </g>
        <g id="Shape16">
            <desc shapeID="16" type="0" basicInfo-basicType="1" basicInfo-roundedRectRadius="12" basicInfo-polygonSides="6" basicInfo-starPoints="5" bounding="rect(-51.8729,-21.9585,103.746,43.9169)" text="" font-familyName="Helvetica" font-pixelSize="38" font-bold="0" font-underline="0" font-alignment="1" strokeStyle="0" markerStart="0" markerEnd="0" shadowEnabled="0" shadowOffsetX="0" shadowOffsetY="2" shadowBlur="4" shadowOpacity="160" blurEnabled="0" blurRadius="4" transform="matrix(-4.76199,-0.000250321,4.57093e-06,-0.0869825,303.795,434.481)" pers-center="0,0" pers-size="0,0" pers-start="0,0" pers-end="0,0" locked="0" mesh="" flag=""/>
            <path id="shapePath16" d="M550.813,436.404 L56.7762,436.378 L56.7764,432.558 L550.813,432.584 L550.813,436.404 Z" style="stroke:none;fill-rule:evenodd;fill:#555555;fill-opacity:1;"/>
        </g>
        <g id="Shape17">
            <desc shapeID="17" type="0" basicInfo-basicType="0" basicInfo-roundedRectRadius="12" basicInfo-polygonSides="6" basicInfo-starPoints="5" bounding="rect(-15.416,-9.34082,30.832,18.6816)" text="buy" font-familyName="Helvetica" font-pixelSize="20" font-bold="0" font-underline="0" font-alignment="1" strokeStyle="0" markerStart="0" markerEnd="0" shadowEnabled="0" shadowOffsetX="0" shadowOffsetY="2" shadowBlur="4" shadowOpacity="160" blurEnabled="0" blurRadius="4" transform="matrix(1,0,0,1,205.388,325.252)" pers-center="0,0" pers-size="0,0" pers-start="0,0" pers-end="0,0" locked="0" mesh="" flag=""/>
            <path id="shapePath17" d="M189.972,315.911 L191.681,315.911 L191.681,321.116 C192.065,320.615 192.524,320.232 193.058,319.969 C193.592,319.705 194.171,319.573 194.796,319.573 C196.098,319.573 197.154,320.021 197.965,320.916 C198.776,321.811 199.181,323.131 199.181,324.876 C199.181,326.529 198.78,327.903 197.98,328.997 C197.179,330.091 196.069,330.637 194.65,330.637 C193.855,330.637 193.185,330.445 192.638,330.061 C192.312,329.833 191.964,329.469 191.593,328.968 L191.593,330.305 L189.972,330.305 L189.972,315.911 M196.676,327.952 C197.148,327.197 197.384,326.201 197.384,324.964 C197.384,323.863 197.148,322.952 196.676,322.229 C196.204,321.507 195.509,321.145 194.591,321.145 C193.79,321.145 193.089,321.441 192.486,322.034 C191.884,322.626 191.583,323.603 191.583,324.964 C191.583,325.947 191.707,326.744 191.954,327.356 C192.416,328.509 193.279,329.085 194.542,329.085 C195.493,329.085 196.204,328.707 196.676,327.952 M202.976,319.846 L202.976,326.79 C202.976,327.324 203.06,327.76 203.23,328.098 C203.542,328.723 204.125,329.036 204.978,329.036 C206.202,329.036 207.035,328.489 207.478,327.395 C207.719,326.809 207.839,326.005 207.839,324.983 L207.839,319.846 L209.597,319.846 L209.597,330.305 L207.937,330.305 L207.956,328.762 C207.728,329.16 207.445,329.495 207.107,329.768 C206.436,330.315 205.622,330.589 204.665,330.589 C203.174,330.589 202.159,330.091 201.618,329.094 C201.325,328.561 201.179,327.848 201.179,326.956 L201.179,319.846 L202.976,319.846 M218.861,319.846 L220.804,319.846 C220.556,320.517 220.006,322.047 219.153,324.436 C218.515,326.233 217.982,327.698 217.552,328.831 C216.536,331.5 215.82,333.128 215.403,333.714 C214.987,334.3 214.271,334.593 213.255,334.593 C213.008,334.593 212.817,334.583 212.684,334.563 C212.55,334.544 212.386,334.508 212.191,334.456 L212.191,332.854 C212.497,332.939 212.718,332.991 212.855,333.01 C212.991,333.03 213.112,333.04 213.216,333.04 C213.541,333.04 213.781,332.986 213.934,332.879 C214.087,332.771 214.215,332.639 214.319,332.483 C214.352,332.431 214.469,332.164 214.671,331.682 C214.873,331.201 215.019,330.843 215.111,330.608 L211.243,319.846 L213.236,319.846 L216.038,328.362 L218.861,319.846 Z" style="stroke:none;fill-rule:nonzero;fill:#555555;fill-opacity:1;"/>
        </g>
        <g id="Shape18">
            <desc shapeID="18" type="0" basicInfo-basicType="0" basicInfo-roundedRectRadius="12" basicInfo-polygonSides="6" basicInfo-starPoints="5" bounding="rect(-15.416,-9.34082,30.832,18.6816)" text="buy" font-familyName="Helvetica" font-pixelSize="20" font-bold="0" font-underline="0" font-alignment="1" strokeStyle="0" markerStart="0" markerEnd="0" shadowEnabled="0" shadowOffsetX="0" shadowOffsetY="2" shadowBlur="4" shadowOpacity="160" blurEnabled="0" blurRadius="4" transform="matrix(1,0,0,1,317.518,418.027)" pers-center="0,0" pers-size="0,0" pers-start="0,0" pers-end="0,0" locked="0" mesh="" flag=""/>
            <path id="shapePath18" d="M302.102,408.686 L303.811,408.686 L303.811,413.891 C304.195,413.39 304.654,413.008 305.188,412.744 C305.721,412.48 306.301,412.348 306.926,412.348 C308.228,412.348 309.284,412.796 310.095,413.691 C310.905,414.586 311.311,415.906 311.311,417.651 C311.311,419.305 310.91,420.678 310.11,421.772 C309.309,422.866 308.199,423.413 306.779,423.413 C305.985,423.413 305.315,423.221 304.768,422.837 C304.442,422.609 304.094,422.244 303.723,421.743 L303.723,423.081 L302.102,423.081 L302.102,408.686 M308.806,420.727 C309.278,419.972 309.514,418.976 309.514,417.739 C309.514,416.639 309.278,415.727 308.806,415.005 C308.334,414.282 307.639,413.921 306.721,413.921 C305.92,413.921 305.219,414.217 304.616,414.809 C304.014,415.402 303.713,416.378 303.713,417.739 C303.713,418.722 303.837,419.52 304.084,420.132 C304.546,421.284 305.409,421.86 306.672,421.86 C307.623,421.86 308.334,421.483 308.806,420.727 M315.106,412.622 L315.106,419.565 C315.106,420.099 315.19,420.535 315.36,420.874 C315.672,421.499 316.255,421.811 317.108,421.811 C318.332,421.811 319.165,421.264 319.608,420.171 C319.848,419.585 319.969,418.781 319.969,417.759 L319.969,412.622 L321.727,412.622 L321.727,423.081 L320.067,423.081 L320.086,421.538 C319.858,421.935 319.575,422.27 319.236,422.544 C318.566,423.091 317.752,423.364 316.795,423.364 C315.304,423.364 314.289,422.866 313.748,421.87 C313.455,421.336 313.309,420.623 313.309,419.731 L313.309,412.622 L315.106,412.622 M330.99,412.622 L332.934,412.622 C332.686,413.292 332.136,414.822 331.283,417.212 C330.645,419.009 330.111,420.473 329.682,421.606 C328.666,424.275 327.95,425.903 327.533,426.489 C327.117,427.075 326.401,427.368 325.385,427.368 C325.138,427.368 324.947,427.358 324.814,427.339 C324.68,427.319 324.516,427.283 324.32,427.231 L324.32,425.63 C324.626,425.714 324.848,425.766 324.985,425.786 C325.121,425.805 325.242,425.815 325.346,425.815 C325.671,425.815 325.911,425.761 326.064,425.654 C326.217,425.547 326.345,425.415 326.449,425.259 C326.482,425.206 326.599,424.94 326.801,424.458 C327.003,423.976 327.149,423.618 327.24,423.384 L323.373,412.622 L325.365,412.622 L328.168,421.137 L330.99,412.622 Z" style="stroke:none;fill-rule:nonzero;fill:#555555;fill-opacity:1;"/>
        </g>
        <g id="Shape19">
            <desc shapeID="19" type="0" basicInfo-basicType="1" basicInfo-roundedRectRadius="12" basicInfo-polygonSides="6" basicInfo-starPoints="5" bounding="rect(-51.8729,-21.9585,103.746,43.9169)" text="" font-familyName="Helvetica" font-pixelSize="38" font-bold="0" font-underline="0" font-alignment="1" strokeStyle="0" markerStart="0" markerEnd="0" shadowEnabled="0" shadowOffsetX="0" shadowOffsetY="2" shadowBlur="4" shadowOpacity="160" blurEnabled="0" blurRadius="4" transform="matrix(-0.00300669,-0.713442,0.0869554,-0.00036646,559.584,141.954)" pers-center="0,0" pers-size="0,0" pers-start="0,0" pers-end="0,0" locked="0" mesh="" flag=""/>
            <path id="shapePath19" d="M557.831,178.971 L557.519,104.954 L561.338,104.938 L561.65,178.955 L557.831,178.971 Z" style="stroke:none;fill-rule:evenodd;fill:#555555;fill-opacity:1;"/>
        </g>
        <g id="Shape20">
            <desc shapeID="20" type="0" basicInfo-basicType="5" basicInfo-roundedRectRadius="12" basicInfo-polygonSides="6" basicInfo-starPoints="5" bounding="rect(-6.44435,-6.89008,12.8887,13.7801)" text="" font-familyName="Helvetica" font-pixelSize="38" font-bold="0" font-underline="0" font-alignment="1" strokeStyle="0" markerStart="0" markerEnd="0" shadowEnabled="0" shadowOffsetX="0" shadowOffsetY="2" shadowBlur="4" shadowOpacity="160" blurEnabled="0" blurRadius="4" transform="matrix(-0.00421431,-0.999991,0.999991,-0.00421431,559.432,105.805)" pers-center="0,0" pers-size="0,0" pers-start="0,0" pers-end="0,0" locked="0" mesh="" flag=""/>
            <path id="shapePath20" d="M559.405,99.3611 L566.349,112.221 L552.569,112.279 L559.405,99.3611 Z" style="stroke:none;fill-rule:evenodd;fill:#555555;fill-opacity:1;"/>
        </g>
        <g id="Shape21">
            <desc shapeID="21" type="0" basicInfo-basicType="1" basicInfo-roundedRectRadius="12" basicInfo-polygonSides="6" basicInfo-starPoints="5" bounding="rect(-51.8729,-21.9585,103.746,43.9169)" text="" font-familyName="Helvetica" font-pixelSize="38" font-bold="0" font-underline="0" font-alignment="1" strokeStyle="0" markerStart="0" markerEnd="0" shadowEnabled="0" shadowOffsetX="0" shadowOffsetY="2" shadowBlur="4" shadowOpacity="160" blurEnabled="0" blurRadius="4" transform="matrix(1.87643e-05,0.713428,-0.0869552,2.2871e-06,537.763,136.004)" pers-center="0,0" pers-size="0,0" pers-start="0,0" pers-end="0,0" locked="0" mesh="" flag=""/>
            <path id="shapePath21" d="M539.672,98.9968 L539.674,173.012 L535.855,173.012 L535.853,98.9969 L539.672,98.9968 Z" style="stroke:none;fill-rule:evenodd;fill:#555555;fill-opacity:1;"/>
        </g>
        <g id="Shape22">
            <desc shapeID="22" type="0" basicInfo-basicType="5" basicInfo-roundedRectRadius="12" basicInfo-polygonSides="6" basicInfo-starPoints="5" bounding="rect(-6.44435,-6.89008,12.8887,13.7801)" text="" font-familyName="Helvetica" font-pixelSize="38" font-bold="0" font-underline="0" font-alignment="1" strokeStyle="0" markerStart="0" markerEnd="0" shadowEnabled="0" shadowOffsetX="0" shadowOffsetY="2" shadowBlur="4" shadowOpacity="160" blurEnabled="0" blurRadius="4" transform="matrix(2.63012e-05,0.999972,-0.999989,2.62982e-05,537.765,172.153)" pers-center="0,0" pers-size="0,0" pers-start="0,0" pers-end="0,0" locked="0" mesh="" flag=""/>
            <path id="shapePath22" d="M537.765,178.597 L530.874,165.709 L544.654,165.708 L537.765,178.597 Z" style="stroke:none;fill-rule:evenodd;fill:#555555;fill-opacity:1;"/>
        </g>
        <g id="Shape23">
            <desc shapeID="23" type="0" basicInfo-basicType="1" basicInfo-roundedRectRadius="12" basicInfo-polygonSides="6" basicInfo-starPoints="5" bounding="rect(-51.8729,-21.9585,103.746,43.9169)" text="" font-familyName="Helvetica" font-pixelSize="38" font-bold="0" font-underline="0" font-alignment="1" strokeStyle="0" markerStart="0" markerEnd="0" shadowEnabled="0" shadowOffsetX="0" shadowOffsetY="2" shadowBlur="4" shadowOpacity="160" blurEnabled="0" blurRadius="4" transform="matrix(-0.00300669,-0.713442,0.0869554,-0.00036646,331.174,141.58)" pers-center="0,0" pers-size="0,0" pers-start="0,0" pers-end="0,0" locked="0" mesh="" flag=""/>
            <path id="shapePath23" d="M329.421,178.597 L329.109,104.58 L332.927,104.564 L333.239,178.581 L329.421,178.597 Z" style="stroke:none;fill-rule:evenodd;fill:#555555;fill-opacity:1;"/>
        </g>
        <g id="Shape24">
            <desc shapeID="24" type="0" basicInfo-basicType="5" basicInfo-roundedRectRadius="12" basicInfo-polygonSides="6" basicInfo-starPoints="5" bounding="rect(-6.44435,-6.89008,12.8887,13.7801)" text="" font-familyName="Helvetica" font-pixelSize="38" font-bold="0" font-underline="0" font-alignment="1" strokeStyle="0" markerStart="0" markerEnd="0" shadowEnabled="0" shadowOffsetX="0" shadowOffsetY="2" shadowBlur="4" shadowOpacity="160" blurEnabled="0" blurRadius="4" transform="matrix(-0.00421431,-0.999991,0.999991,-0.00421431,331.021,105.432)" pers-center="0,0" pers-size="0,0" pers-start="0,0" pers-end="0,0" locked="0" mesh="" flag=""/>
            <path id="shapePath24" d="M330.994,98.9872 L337.939,111.847 L324.159,111.905 L330.994,98.9872 Z" style="stroke:none;fill-rule:evenodd;fill:#555555;fill-opacity:1;"/>
        </g>
        <g id="Shape25">
            <desc shapeID="25" type="0" basicInfo-basicType="1" basicInfo-roundedRectRadius="12" basicInfo-polygonSides="6" basicInfo-starPoints="5" bounding="rect(-51.8729,-21.9585,103.746,43.9169)" text="" font-familyName="Helvetica" font-pixelSize="38" font-bold="0" font-underline="0" font-alignment="1" strokeStyle="0" markerStart="0" markerEnd="0" shadowEnabled="0" shadowOffsetX="0" shadowOffsetY="2" shadowBlur="4" shadowOpacity="160" blurEnabled="0" blurRadius="4" transform="matrix(1.87643e-05,0.713428,-0.0869552,2.2871e-06,309.353,135.631)" pers-center="0,0" pers-size="0,0" pers-start="0,0" pers-end="0,0" locked="0" mesh="" flag=""/>
            <path id="shapePath25" d="M311.261,98.623 L311.263,172.638 L307.444,172.638 L307.442,98.6231 L311.261,98.623 Z" style="stroke:none;fill-rule:evenodd;fill:#555555;fill-opacity:1;"/>
        </g>
        <g id="Shape26">
            <desc shapeID="26" type="0" basicInfo-basicType="5" basicInfo-roundedRectRadius="12" basicInfo-polygonSides="6" basicInfo-starPoints="5" bounding="rect(-6.44435,-6.89008,12.8887,13.7801)" text="" font-familyName="Helvetica" font-pixelSize="38" font-bold="0" font-underline="0" font-alignment="1" strokeStyle="0" markerStart="0" markerEnd="0" shadowEnabled="0" shadowOffsetX="0" shadowOffsetY="2" shadowBlur="4" shadowOpacity="160" blurEnabled="0" blurRadius="4" transform="matrix(2.63012e-05,0.999972,-0.999989,2.62982e-05,309.354,171.779)" pers-center="0,0" pers-size="0,0" pers-start="0,0" pers-end="0,0" locked="0" mesh="" flag=""/>
            <path id="shapePath26" d="M309.354,178.223 L302.464,165.335 L316.244,165.335 L309.354,178.223 Z" style="stroke:none;fill-rule:evenodd;fill:#555555;fill-opacity:1;"/>
        </g>
        <g id="Shape27">
            <desc shapeID="27" type="0" basicInfo-basicType="1" basicInfo-roundedRectRadius="12" basicInfo-polygonSides="6" basicInfo-starPoints="5" bounding="rect(-51.8729,-21.9585,103.746,43.9169)" text="" font-familyName="Helvetica" font-pixelSize="38" font-bold="0" font-underline="0" font-alignment="1" strokeStyle="0" markerStart="0" markerEnd="0" shadowEnabled="0" shadowOffsetX="0" shadowOffsetY="2" shadowBlur="4" shadowOpacity="160" blurEnabled="0" blurRadius="4" transform="matrix(-0.00302215,-0.717111,0.0869554,-0.00036646,100.792,141.397)" pers-center="0,0" pers-size="0,0" pers-start="0,0" pers-end="0,0" locked="0" mesh="" flag=""/>
            <path id="shapePath27" d="M99.039,178.604 L98.7255,104.206 L102.544,104.19 L102.858,178.588 L99.039,178.604 Z" style="stroke:none;fill-rule:evenodd;fill:#555555;fill-opacity:1;"/>
        </g>
        <g id="Shape28">
            <desc shapeID="28" type="0" basicInfo-basicType="5" basicInfo-roundedRectRadius="12" basicInfo-polygonSides="6" basicInfo-starPoints="5" bounding="rect(-6.44435,-6.89008,12.8887,13.7801)" text="" font-familyName="Helvetica" font-pixelSize="38" font-bold="0" font-underline="0" font-alignment="1" strokeStyle="0" markerStart="0" markerEnd="0" shadowEnabled="0" shadowOffsetX="0" shadowOffsetY="2" shadowBlur="4" shadowOpacity="160" blurEnabled="0" blurRadius="4" transform="matrix(-0.00421431,-0.999991,0.999991,-0.00421431,100.638,105.415)" pers-center="0,0" pers-size="0,0" pers-start="0,0" pers-end="0,0" locked="0" mesh="" flag=""/>
            <path id="shapePath28" d="M100.611,98.9706 L107.555,111.83 L93.7753,111.888 L100.611,98.9706 Z" style="stroke:none;fill-rule:evenodd;fill:#555555;fill-opacity:1;"/>
        </g>
        <g id="Shape29">
            <desc shapeID="29" type="0" basicInfo-basicType="1" basicInfo-roundedRectRadius="12" basicInfo-polygonSides="6" basicInfo-starPoints="5" bounding="rect(-51.8729,-21.9585,103.746,43.9169)" text="" font-familyName="Helvetica" font-pixelSize="38" font-bold="0" font-underline="0" font-alignment="1" strokeStyle="0" markerStart="0" markerEnd="0" shadowEnabled="0" shadowOffsetX="0" shadowOffsetY="2" shadowBlur="4" shadowOpacity="160" blurEnabled="0" blurRadius="4" transform="matrix(1.87643e-05,0.713428,-0.0869552,2.2871e-06,78.9695,135.257)" pers-center="0,0" pers-size="0,0" pers-start="0,0" pers-end="0,0" locked="0" mesh="" flag=""/>
            <path id="shapePath29" d="M80.878,98.2491 L80.8799,172.264 L77.0611,172.264 L77.0592,98.2492 L80.878,98.2491 Z" style="stroke:none;fill-rule:evenodd;fill:#555555;fill-opacity:1;"/>
        </g>
        <g id="Shape30">
            <desc shapeID="30" type="0" basicInfo-basicType="5" basicInfo-roundedRectRadius="12" basicInfo-polygonSides="6" basicInfo-starPoints="5" bounding="rect(-6.44435,-6.89008,12.8887,13.7801)" text="" font-familyName="Helvetica" font-pixelSize="38" font-bold="0" font-underline="0" font-alignment="1" strokeStyle="0" markerStart="0" markerEnd="0" shadowEnabled="0" shadowOffsetX="0" shadowOffsetY="2" shadowBlur="4" shadowOpacity="160" blurEnabled="0" blurRadius="4" transform="matrix(2.63012e-05,0.999972,-0.999989,2.62982e-05,78.9709,171.772)" pers-center="0,0" pers-size="0,0" pers-start="0,0" pers-end="0,0" locked="0" mesh="" flag=""/>
            <path id="shapePath30" d="M78.9711,178.216 L72.0808,165.328 L85.8608,165.328 L78.9711,178.216 Z" style="stroke:none;fill-rule:evenodd;fill:#555555;fill-opacity:1;"/>
        </g>
    </g>
</svg>
