<?xml version="1.0"?>
<svg version="1.1" xmlns="http://www.w3.org/2000/svg" xmlns:xlink="http://www.w3.org/1999/xlink" width="170" height="170">
    <desc iVinci="yes" version="4.6" gridStep="20" showGrid="no" snapToGrid="no" codePlatform="0"/>
    <g id="Layer1" name="Layer 1" opacity="1">
        <g id="Shape1">
            <desc shapeID="1" type="0" basicInfo-basicType="0" basicInfo-roundedRectRadius="12" basicInfo-polygonSides="6" basicInfo-starPoints="5" bounding="rect(-82.9,-82.9035,165.8,165.805)" text="" font-familyName="" font-pixelSize="20" font-bold="0" font-underline="0" font-alignment="1" strokeStyle="0" markerStart="0" markerEnd="0" shadowEnabled="0" shadowOffsetX="0" shadowOffsetY="2" shadowBlur="4" shadowOpacity="160" blurEnabled="0" blurRadius="4" transform="matrix(1,0,0,1,85,85.0011)" pers-center="0,0" pers-size="0,0" pers-start="0,0" pers-end="0,0" locked="0" mesh="" flag=""/>
            <path id="shapePath1" d="M122.487,167.903 L47.514,167.903 C22.432,167.903 2.10001,147.571 2.10001,122.49 L2.10001,47.5105 C2.10001,22.4305 22.432,2.0975 47.514,2.0975 L122.487,2.0975 C147.568,2.0975 167.9,22.4305 167.9,47.5105 L167.9,122.49 C167.9,147.571 147.568,167.903 122.487,167.903 Z" style="stroke:none;fill-rule:evenodd;fill:#ffffff;fill-opacity:1;"/>
        </g>
        <g id="Shape2">
            <desc shapeID="2" type="0" basicInfo-basicType="0" basicInfo-roundedRectRadius="12" basicInfo-polygonSides="6" basicInfo-starPoints="5" bounding="rect(-424,-512,847.998,1024)" text="" font-familyName="" font-pixelSize="20" font-bold="0" font-underline="0" font-alignment="1" strokeStyle="0" markerStart="0" markerEnd="0" shadowEnabled="0" shadowOffsetX="0" shadowOffsetY="2" shadowBlur="4" shadowOpacity="160" blurEnabled="0" blurRadius="4" transform="matrix(0.124393,0,0,0.124393,80.3415,104.214)" pers-center="0,0" pers-size="0,0" pers-start="0,0" pers-end="0,0" locked="0" mesh="" flag=""/>
            <path id="shapePath2" d="M99.6941,125.614 C103.363,130.929 103.551,136.988 103.493,143.132 C103.422,150.57 103.479,158.01 103.487,165.449 C103.49,167.838 103.431,167.903 101.111,167.903 C91.3764,167.902 81.6419,167.902 71.9073,167.902 C69.7362,167.902 69.5414,167.695 69.5443,165.515 C69.5512,160.771 69.5466,156.026 69.5466,151.028 C67.8674,151.2 66.1833,151.38 64.4976,151.543 C56.2728,152.339 49.1042,150.237 43.5549,143.807 C42.7782,142.907 42.1581,141.866 41.517,140.857 C38.6918,136.409 35.9557,131.902 33.0307,127.521 C32.1254,126.166 30.7241,125.142 29.5528,123.963 C28.9359,123.343 28.325,122.716 27.5989,121.978 C29.6284,120.659 31.5721,121.017 33.4126,121.301 C38.0076,122.008 41.1142,124.854 43.5747,128.629 C44.7994,130.508 46.0666,132.425 47.6393,133.999 C52.6759,139.04 58.7933,140.667 65.7223,139.095 C70.1916,138.081 69.3248,138.552 69.9924,134.469 C70.4384,131.742 71.1903,129.145 72.6744,126.79 C72.9205,126.4 73.1244,125.983 73.4275,125.433 C71.4663,125.046 69.6348,124.736 67.8279,124.319 C60.6583,122.666 54.0474,119.871 48.8155,114.497 C43.271,108.801 40.27,101.98 40.0613,93.9742 C39.8857,87.2471 39.927,80.5401 41.4503,73.9321 C42.4279,69.6906 44.1956,65.8902 47.2983,62.7386 C47.7791,62.25 48.0606,61.0926 47.8366,60.4549 C45.6261,54.1602 45.9291,47.9377 47.9716,41.6791 C48.3228,40.6028 48.6929,40.3434 49.7677,40.6371 C53.7104,41.7148 57.0854,43.7491 59.9004,46.665 C61.8214,48.6548 63.5796,50.8027 65.4874,52.9672 C70.3575,49.4487 76.1196,49.3252 81.8049,48.9933 C88.0906,48.6265 94.3815,48.7259 100.558,50.0648 C102.957,50.585 105.239,51.6459 107.371,52.3897 C109.876,50.0095 112.464,47.5863 115.011,45.1211 C117.311,42.8947 120.036,41.5078 123.11,40.6868 C124.286,40.3726 124.883,40.652 125.282,41.8003 C127.396,47.8922 127.753,53.9816 125.377,60.0884 C125.031,60.9792 124.793,61.8174 125.612,62.5997 C129.767,66.5734 131.834,71.5772 132.274,77.1846 C132.738,83.1058 133.295,89.0773 133.003,94.9874 C132.463,105.955 127.018,114.19 117.558,119.729 C112.487,122.698 106.95,124.326 101.166,125.184 C100.835,125.233 100.5,125.266 100.173,125.337 C100.041,125.366 99.9268,125.476 99.6941,125.614 Z" style="stroke:none;fill-rule:evenodd;fill:#555555;fill-opacity:1;"/>
        </g>
    </g>
</svg>
