<?xml version="1.0"?>
<svg version="1.1" xmlns="http://www.w3.org/2000/svg" xmlns:xlink="http://www.w3.org/1999/xlink" width="170" height="170">
    <desc iVinci="yes" version="4.6" gridStep="20" showGrid="no" snapToGrid="no" codePlatform="0"/>
    <g id="Layer1" name="Layer 1" opacity="1">
        <g id="Shape1">
            <desc shapeID="1" type="0" basicInfo-basicType="0" basicInfo-roundedRectRadius="12" basicInfo-polygonSides="6" basicInfo-starPoints="5" bounding="rect(-82.8999,-82.9048,165.8,165.81)" text="" font-familyName="" font-pixelSize="20" font-bold="0" font-underline="0" font-alignment="1" strokeStyle="0" markerStart="0" markerEnd="0" shadowEnabled="0" shadowOffsetX="0" shadowOffsetY="2" shadowBlur="4" shadowOpacity="160" blurEnabled="0" blurRadius="4" transform="matrix(1,0,0,1,84.9999,84.9998)" pers-center="0,0" pers-size="0,0" pers-start="0,0" pers-end="0,0" locked="0" mesh="" flag=""/>
            <path id="shapePath1" d="M122.48,167.905 L47.51,167.905 C22.4299,167.905 2.09999,147.575 2.09999,122.495 L2.09999,47.515 C2.09999,22.435 22.4299,2.09505 47.51,2.09505 L122.48,2.09505 C147.56,2.09505 167.9,22.435 167.9,47.515 L167.9,122.495 C167.9,147.575 147.56,167.905 122.48,167.905 Z" style="stroke:none;fill-rule:evenodd;fill:#ffffff;fill-opacity:1;"/>
        </g>
        <g id="Shape2">
            <desc shapeID="2" type="0" basicInfo-basicType="0" basicInfo-roundedRectRadius="12" basicInfo-polygonSides="6" basicInfo-starPoints="5" bounding="rect(-62.61,-48.81,125.22,97.62)" text="" font-familyName="" font-pixelSize="20" font-bold="0" font-underline="0" font-alignment="1" strokeStyle="0" markerStart="0" markerEnd="0" shadowEnabled="0" shadowOffsetX="0" shadowOffsetY="2" shadowBlur="4" shadowOpacity="160" blurEnabled="0" blurRadius="4" transform="matrix(1,0,0,1,85,85.665)" pers-center="0,0" pers-size="0,0" pers-start="0,0" pers-end="0,0" locked="0" mesh="" flag=""/>
            <path id="shapePath2" d="M43.58,134.475 C31.88,134.475 22.39,124.985 22.39,113.275 L22.39,58.055 C22.39,46.3451 31.88,36.855 43.58,36.855 L126.41,36.855 C138.12,36.855 147.61,46.3451 147.61,58.055 L147.61,113.275 C147.61,124.985 138.12,134.475 126.41,134.475 L43.58,134.475 Z" style="stroke:none;fill-rule:evenodd;fill:#555555;fill-opacity:1;"/>
        </g>
        <g id="Shape3">
            <desc shapeID="3" type="0" basicInfo-basicType="0" basicInfo-roundedRectRadius="12" basicInfo-polygonSides="6" basicInfo-starPoints="5" bounding="rect(-50.637,-36.5586,101.273,73.1174)" text="" font-familyName="" font-pixelSize="20" font-bold="0" font-underline="0" font-alignment="1" strokeStyle="0" markerStart="0" markerEnd="0" shadowEnabled="0" shadowOffsetX="0" shadowOffsetY="2" shadowBlur="4" shadowOpacity="160" blurEnabled="0" blurRadius="4" transform="matrix(1,0,0,1,84.994,85.6693)" pers-center="0,0" pers-size="0,0" pers-start="0,0" pers-end="0,0" locked="0" mesh="" flag=""/>
            <path id="shapePath3" d="M45.6201,67.865 C45.58,68.555 45.5401,69.055 45.5401,69.545 C45.5401,81.495 45.55,93.425 45.56,105.375 C45.57,110.585 45.57,115.815 45.61,121.025 C45.6201,121.875 45.3701,122.255 44.4901,122.175 C42.9101,122.055 41.2701,122.215 39.7601,121.825 C36.4901,120.995 34.4001,118.095 34.3801,114.695 C34.35,109.435 34.3801,104.185 34.3801,98.9451 C34.3801,87.635 34.3701,76.315 34.3701,65.015 C34.3701,62.105 34.33,59.1951 34.3901,56.285 C34.47,52.675 37.33,49.545 40.84,49.2251 C41.43,49.175 42.17,49.365 42.6501,49.7051 C50.96,55.615 59.23,61.5751 67.5101,67.515 C73.09,71.515 78.68,75.505 84.2401,79.535 C84.5201,79.735 84.9901,80.055 84.9901,80.055 C84.9901,80.055 85.46,79.735 85.7401,79.535 C97.2,71.275 108.68,63.055 120.15,54.8151 C122.61,53.045 125.07,51.295 127.51,49.495 C128.34,48.895 129.19,49.125 130.02,49.3351 C133.3,50.165 135.61,53.115 135.61,56.515 C135.62,72.0751 135.62,87.655 135.62,103.215 C135.62,106.905 135.61,110.595 135.63,114.295 C135.66,118.945 132.52,122.175 127.84,122.215 C127.03,122.225 126.22,122.185 125.41,122.225 C124.62,122.265 124.37,121.915 124.38,121.155 C124.41,117.795 124.39,114.435 124.39,111.075 C124.4,97.155 124.4,83.235 124.4,69.315 C124.4,68.915 124.35,68.515 124.31,67.935 C123.92,68.185 123.68,68.3351 123.45,68.495 C114.64,74.785 105.83,81.0751 97.0201,87.355 C93.2701,90.055 89.5001,92.7151 85.7601,95.425 C85.48,95.635 85.0201,95.985 85.0201,95.985 C85.0201,95.985 84.55,95.625 84.2601,95.425 C71.69,86.415 59.1,77.425 46.5001,68.435 C46.2801,68.275 46.0301,68.135 45.6201,67.865 Z" style="stroke:none;fill-rule:evenodd;fill:#ffffff;fill-opacity:1;"/>
        </g>
    </g>
</svg>
