<?xml version="1.0"?>
<svg version="1.1" xmlns="http://www.w3.org/2000/svg" xmlns:xlink="http://www.w3.org/1999/xlink" width="640" height="480">
    <desc iVinci="yes" version="4.6" gridStep="20" showGrid="no" snapToGrid="no" codePlatform="0"/>
    <g id="Layer1" name="Layer 1" opacity="1">
        <g id="Shape1">
            <desc shapeID="1" type="0" basicInfo-basicType="1" basicInfo-roundedRectRadius="12" basicInfo-polygonSides="6" basicInfo-starPoints="5" bounding="rect(-76.3772,-61.7383,152.754,123.477)" text="" font-familyName="Helvetica" font-pixelSize="20" font-bold="0" font-underline="0" font-alignment="1" strokeStyle="0" markerStart="0" markerEnd="0" shadowEnabled="0" shadowOffsetX="0" shadowOffsetY="2" shadowBlur="4" shadowOpacity="160" blurEnabled="0" blurRadius="4" transform="matrix(1,0,0,1,90.0615,78.6049)" pers-center="0,0" pers-size="0,0" pers-start="0,0" pers-end="0,0" locked="0" mesh="" flag=""/>
            <path id="shapePath1" d="M13.6843,16.8666 L166.439,16.8666 L166.439,140.343 L13.6843,140.343 L13.6843,16.8666 Z" style="stroke:none;fill-rule:evenodd;fill:#555555;fill-opacity:1;"/>
        </g>
        <g id="Shape2">
            <desc shapeID="2" type="2" basicInfo-basicType="0" basicInfo-roundedRectRadius="12" basicInfo-polygonSides="6" basicInfo-starPoints="5" bounding="rect(-48.6086,-34.1295,97.2173,68.2589)" text="RPT" font-familyName="Helvetica" font-pixelSize="38" font-bold="0" font-underline="0" font-alignment="1" strokeStyle="0" markerStart="0" markerEnd="0" shadowEnabled="0" shadowOffsetX="0" shadowOffsetY="2" shadowBlur="4" shadowOpacity="160" blurEnabled="0" blurRadius="4" transform="matrix(1,0,0,1,88.6206,82.1083)" pers-center="0,0" pers-size="0,0" pers-start="0,0" pers-end="0,0" locked="0" mesh="" flag=""/>
            <path id="shapePath2" d="M66.2036,77.4638 C67.9354,77.4638 69.3053,77.1174 70.3134,76.4247 C71.3216,75.732 71.8257,74.4827 71.8257,72.6767 C71.8257,70.7346 71.1206,69.411 69.7104,68.706 C68.9559,68.3349 67.9477,68.1493 66.686,68.1493 L57.6684,68.1493 L57.6684,77.4638 L66.2036,77.4638 M53.976,64.9765 L66.5932,64.9765 C68.6714,64.9765 70.3846,65.2795 71.7329,65.8857 C74.2934,67.0484 75.5737,69.1946 75.5737,72.3241 C75.5737,73.9569 75.2366,75.2929 74.5625,76.3319 C73.8883,77.371 72.9451,78.206 71.7329,78.8368 C72.7967,79.2698 73.5976,79.8388 74.1357,80.5439 C74.6738,81.2489 74.9738,82.3931 75.0356,83.9765 L75.1655,87.6317 C75.2026,88.6708 75.2892,89.4439 75.4253,89.9511 C75.6479,90.817 76.0438,91.3736 76.6128,91.621 L76.6128,92.2333 L72.0854,92.2333 C71.9617,91.9983 71.8628,91.6952 71.7885,91.3241 C71.7143,90.953 71.6525,90.2356 71.603,89.1718 L71.3803,84.6259 C71.2938,82.8446 70.632,81.6509 69.395,81.0448 C68.6899,80.7108 67.5828,80.5439 66.0737,80.5439 L57.6684,80.5439 L57.6684,92.2333 L53.976,92.2333 L53.976,64.9765 M81.3208,64.9765 L93.5854,64.9765 C96.0099,64.9765 97.9643,65.6599 99.4487,67.0268 C100.933,68.3936 101.675,70.314 101.675,72.788 C101.675,74.9156 101.013,76.768 99.6899,78.3451 C98.3663,79.9223 96.3315,80.7108 93.5854,80.7108 L85.0132,80.7108 L85.0132,92.2333 L81.3208,92.2333 L81.3208,64.9765 M95.7192,68.7245 C94.9028,68.3411 93.7833,68.1493 92.3608,68.1493 L85.0132,68.1493 L85.0132,77.5937 L92.3608,77.5937 C94.0184,77.5937 95.3636,77.2411 96.3965,76.536 C97.4293,75.831 97.9458,74.5878 97.9458,72.8065 C97.9458,70.8026 97.2036,69.442 95.7192,68.7245 M126.147,64.9765 L126.147,68.2235 L116.962,68.2235 L116.962,92.2333 L113.214,92.2333 L113.214,68.2235 L104.03,68.2235 L104.03,64.9765 L126.147,64.9765 Z" style="stroke:none;fill-rule:nonzero;fill:#ffffff;fill-opacity:1;"/>
        </g>
        <g id="Shape3">
            <desc shapeID="3" type="0" basicInfo-basicType="1" basicInfo-roundedRectRadius="12" basicInfo-polygonSides="6" basicInfo-starPoints="5" bounding="rect(-76.3772,-61.7383,152.754,123.477)" text="" font-familyName="Helvetica" font-pixelSize="20" font-bold="0" font-underline="0" font-alignment="1" strokeStyle="0" markerStart="0" markerEnd="0" shadowEnabled="0" shadowOffsetX="0" shadowOffsetY="2" shadowBlur="4" shadowOpacity="160" blurEnabled="0" blurRadius="4" transform="matrix(1,0,0,1,320,78.6049)" pers-center="0,0" pers-size="0,0" pers-start="0,0" pers-end="0,0" locked="0" mesh="" flag=""/>
            <path id="shapePath3" d="M243.623,16.8666 L396.377,16.8666 L396.377,140.343 L243.623,140.343 L243.623,16.8666 Z" style="stroke:none;fill-rule:evenodd;fill:#555555;fill-opacity:1;"/>
        </g>
        <g id="Shape4">
            <desc shapeID="4" type="2" basicInfo-basicType="0" basicInfo-roundedRectRadius="12" basicInfo-polygonSides="6" basicInfo-starPoints="5" bounding="rect(-48.6086,-34.1295,97.2173,68.2589)" text="RPO" font-familyName="Helvetica" font-pixelSize="38" font-bold="0" font-underline="0" font-alignment="1" strokeStyle="0" markerStart="0" markerEnd="0" shadowEnabled="0" shadowOffsetX="0" shadowOffsetY="2" shadowBlur="4" shadowOpacity="160" blurEnabled="0" blurRadius="4" transform="matrix(1,0,0,1,318.559,82.1083)" pers-center="0,0" pers-size="0,0" pers-start="0,0" pers-end="0,0" locked="0" mesh="" flag=""/>
            <path id="shapePath4" d="M292.97,77.4638 C294.702,77.4638 296.072,77.1174 297.08,76.4247 C298.088,75.732 298.592,74.4827 298.592,72.6767 C298.592,70.7346 297.887,69.411 296.477,68.706 C295.723,68.3349 294.714,68.1493 293.453,68.1493 L284.435,68.1493 L284.435,77.4638 L292.97,77.4638 M280.743,64.9765 L293.36,64.9765 C295.438,64.9765 297.151,65.2795 298.5,65.8857 C301.06,67.0484 302.34,69.1946 302.34,72.3241 C302.34,73.9569 302.003,75.2929 301.329,76.3319 C300.655,77.371 299.712,78.206 298.5,78.8368 C299.563,79.2698 300.364,79.8388 300.902,80.5439 C301.44,81.2489 301.74,82.3931 301.802,83.9765 L301.932,87.6317 C301.969,88.6708 302.056,89.4439 302.192,89.9511 C302.415,90.817 302.81,91.3736 303.379,91.621 L303.379,92.2333 L298.852,92.2333 C298.728,91.9983 298.629,91.6952 298.555,91.3241 C298.481,90.953 298.419,90.2356 298.37,89.1718 L298.147,84.6259 C298.06,82.8446 297.399,81.6509 296.162,81.0448 C295.457,80.7108 294.349,80.5439 292.84,80.5439 L284.435,80.5439 L284.435,92.2333 L280.743,92.2333 L280.743,64.9765 M308.087,64.9765 L320.352,64.9765 C322.777,64.9765 324.731,65.6599 326.215,67.0268 C327.7,68.3936 328.442,70.314 328.442,72.788 C328.442,74.9156 327.78,76.768 326.457,78.3451 C325.133,79.9223 323.098,80.7108 320.352,80.7108 L311.78,80.7108 L311.78,92.2333 L308.087,92.2333 L308.087,64.9765 M322.486,68.7245 C321.669,68.3411 320.55,68.1493 319.127,68.1493 L311.78,68.1493 L311.78,77.5937 L319.127,77.5937 C320.785,77.5937 322.13,77.2411 323.163,76.536 C324.196,75.831 324.712,74.5878 324.712,72.8065 C324.712,70.8026 323.97,69.442 322.486,68.7245 M355.53,68.873 C357.336,71.2851 358.239,74.3713 358.239,78.1317 C358.239,82.2014 357.206,85.5845 355.14,88.2812 C352.716,91.4478 349.258,93.0312 344.768,93.0312 C340.575,93.0312 337.278,91.6457 334.878,88.8749 C332.738,86.203 331.668,82.8261 331.668,78.744 C331.668,75.0579 332.584,71.9036 334.415,69.2812 C336.765,65.9166 340.241,64.2343 344.842,64.2343 C349.654,64.2343 353.217,65.7805 355.53,68.873 M352.273,86.2309 C353.727,83.8992 354.454,81.218 354.454,78.1874 C354.454,74.9836 353.616,72.4045 351.939,70.4501 C350.263,68.4957 347.972,67.5185 345.065,67.5185 C342.245,67.5185 339.944,68.4864 338.163,70.4223 C336.381,72.3581 335.491,75.2125 335.491,78.9853 C335.491,82.0035 336.255,84.5486 337.782,86.6205 C339.31,88.6925 341.787,89.7284 345.213,89.7284 C348.467,89.7284 350.82,88.5626 352.273,86.2309 Z" style="stroke:none;fill-rule:nonzero;fill:#ffffff;fill-opacity:1;"/>
        </g>
        <g id="Shape5">
            <desc shapeID="5" type="0" basicInfo-basicType="1" basicInfo-roundedRectRadius="12" basicInfo-polygonSides="6" basicInfo-starPoints="5" bounding="rect(-76.3772,-61.7383,152.754,123.477)" text="" font-familyName="Helvetica" font-pixelSize="20" font-bold="0" font-underline="0" font-alignment="1" strokeStyle="0" markerStart="0" markerEnd="0" shadowEnabled="0" shadowOffsetX="0" shadowOffsetY="2" shadowBlur="4" shadowOpacity="160" blurEnabled="0" blurRadius="4" transform="matrix(1,0,0,1,320,240)" pers-center="0,0" pers-size="0,0" pers-start="0,0" pers-end="0,0" locked="0" mesh="" flag=""/>
            <path id="shapePath5" d="M243.623,178.262 L396.377,178.262 L396.377,301.738 L243.623,301.738 L243.623,178.262 Z" style="stroke:none;fill-rule:evenodd;fill:#555555;fill-opacity:1;"/>
        </g>
        <g id="Shape6">
            <desc shapeID="6" type="2" basicInfo-basicType="0" basicInfo-roundedRectRadius="12" basicInfo-polygonSides="6" basicInfo-starPoints="5" bounding="rect(-48.6086,-34.1295,97.2173,68.2589)" text="RPO" font-familyName="Helvetica" font-pixelSize="38" font-bold="0" font-underline="0" font-alignment="1" strokeStyle="0" markerStart="0" markerEnd="0" shadowEnabled="0" shadowOffsetX="0" shadowOffsetY="2" shadowBlur="4" shadowOpacity="160" blurEnabled="0" blurRadius="4" transform="matrix(1,0,0,1,318.559,243.503)" pers-center="0,0" pers-size="0,0" pers-start="0,0" pers-end="0,0" locked="0" mesh="" flag=""/>
            <path id="shapePath6" d="M292.97,238.859 C294.702,238.859 296.072,238.513 297.08,237.82 C298.088,237.127 298.592,235.878 298.592,234.072 C298.592,232.13 297.887,230.806 296.477,230.101 C295.723,229.73 294.714,229.544 293.453,229.544 L284.435,229.544 L284.435,238.859 L292.97,238.859 M280.743,226.372 L293.36,226.372 C295.438,226.372 297.151,226.675 298.5,227.281 C301.06,228.444 302.34,230.59 302.34,233.719 C302.34,235.352 302.003,236.688 301.329,237.727 C300.655,238.766 299.712,239.601 298.5,240.232 C299.563,240.665 300.364,241.234 300.902,241.939 C301.44,242.644 301.74,243.788 301.802,245.372 L301.932,249.027 C301.969,250.066 302.056,250.839 302.192,251.346 C302.415,252.212 302.81,252.769 303.379,253.016 L303.379,253.628 L298.852,253.628 C298.728,253.393 298.629,253.09 298.555,252.719 C298.481,252.348 298.419,251.631 298.37,250.567 L298.147,246.021 C298.06,244.24 297.399,243.046 296.162,242.44 C295.457,242.106 294.349,241.939 292.84,241.939 L284.435,241.939 L284.435,253.628 L280.743,253.628 L280.743,226.372 M308.087,226.372 L320.352,226.372 C322.777,226.372 324.731,227.055 326.215,228.422 C327.7,229.789 328.442,231.709 328.442,234.183 C328.442,236.311 327.78,238.163 326.457,239.74 C325.133,241.317 323.098,242.106 320.352,242.106 L311.78,242.106 L311.78,253.628 L308.087,253.628 L308.087,226.372 M322.486,230.12 C321.669,229.736 320.55,229.544 319.127,229.544 L311.78,229.544 L311.78,238.989 L319.127,238.989 C320.785,238.989 322.13,238.636 323.163,237.931 C324.196,237.226 324.712,235.983 324.712,234.202 C324.712,232.198 323.97,230.837 322.486,230.12 M355.53,230.268 C357.336,232.68 358.239,235.766 358.239,239.527 C358.239,243.597 357.206,246.98 355.14,249.676 C352.716,252.843 349.258,254.426 344.768,254.426 C340.575,254.426 337.278,253.041 334.878,250.27 C332.738,247.598 331.668,244.221 331.668,240.139 C331.668,236.453 332.584,233.299 334.415,230.676 C336.765,227.312 340.241,225.629 344.842,225.629 C349.654,225.629 353.217,227.176 355.53,230.268 M352.273,247.626 C353.727,245.294 354.454,242.613 354.454,239.583 C354.454,236.379 353.616,233.8 351.939,231.845 C350.263,229.891 347.972,228.914 345.065,228.914 C342.245,228.914 339.944,229.882 338.163,231.817 C336.381,233.753 335.491,236.608 335.491,240.38 C335.491,243.399 336.255,245.944 337.782,248.016 C339.31,250.088 341.787,251.124 345.213,251.124 C348.467,251.124 350.82,249.958 352.273,247.626 Z" style="stroke:none;fill-rule:nonzero;fill:#ffffff;fill-opacity:1;"/>
        </g>
        <g id="Shape7">
            <desc shapeID="7" type="0" basicInfo-basicType="1" basicInfo-roundedRectRadius="12" basicInfo-polygonSides="6" basicInfo-starPoints="5" bounding="rect(-76.3772,-61.7383,152.754,123.477)" text="" font-familyName="Helvetica" font-pixelSize="20" font-bold="0" font-underline="0" font-alignment="1" strokeStyle="0" markerStart="0" markerEnd="0" shadowEnabled="0" shadowOffsetX="0" shadowOffsetY="2" shadowBlur="4" shadowOpacity="160" blurEnabled="0" blurRadius="4" transform="matrix(1,0,0,1,320,401.029)" pers-center="0,0" pers-size="0,0" pers-start="0,0" pers-end="0,0" locked="0" mesh="" flag=""/>
            <path id="shapePath7" d="M243.623,339.29 L396.377,339.29 L396.377,462.767 L243.623,462.767 L243.623,339.29 Z" style="stroke:none;fill-rule:evenodd;fill:#555555;fill-opacity:1;"/>
        </g>
        <g id="Shape8">
            <desc shapeID="8" type="2" basicInfo-basicType="0" basicInfo-roundedRectRadius="12" basicInfo-polygonSides="6" basicInfo-starPoints="5" bounding="rect(-48.6086,-34.1295,97.2173,68.2589)" text="RPO" font-familyName="Helvetica" font-pixelSize="38" font-bold="0" font-underline="0" font-alignment="1" strokeStyle="0" markerStart="0" markerEnd="0" shadowEnabled="0" shadowOffsetX="0" shadowOffsetY="2" shadowBlur="4" shadowOpacity="160" blurEnabled="0" blurRadius="4" transform="matrix(1,0,0,1,318.559,404.532)" pers-center="0,0" pers-size="0,0" pers-start="0,0" pers-end="0,0" locked="0" mesh="" flag=""/>
            <path id="shapePath8" d="M292.97,399.888 C294.702,399.888 296.072,399.541 297.08,398.848 C298.088,398.156 298.592,396.906 298.592,395.1 C298.592,393.158 297.887,391.835 296.477,391.13 C295.723,390.759 294.714,390.573 293.453,390.573 L284.435,390.573 L284.435,399.888 L292.97,399.888 M280.743,387.4 L293.36,387.4 C295.438,387.4 297.151,387.703 298.5,388.309 C301.06,389.472 302.34,391.618 302.34,394.748 C302.34,396.381 302.003,397.717 301.329,398.756 C300.655,399.795 299.712,400.63 298.5,401.261 C299.563,401.694 300.364,402.263 300.902,402.968 C301.44,403.673 301.74,404.817 301.802,406.4 L301.932,410.055 C301.969,411.095 302.056,411.868 302.192,412.375 C302.415,413.241 302.81,413.797 303.379,414.045 L303.379,414.657 L298.852,414.657 C298.728,414.422 298.629,414.119 298.555,413.748 C298.481,413.377 298.419,412.659 298.37,411.596 L298.147,407.05 C298.06,405.268 297.399,404.075 296.162,403.469 C295.457,403.135 294.349,402.968 292.84,402.968 L284.435,402.968 L284.435,414.657 L280.743,414.657 L280.743,387.4 M308.087,387.4 L320.352,387.4 C322.777,387.4 324.731,388.084 326.215,389.451 C327.7,390.817 328.442,392.738 328.442,395.212 C328.442,397.339 327.78,399.192 326.457,400.769 C325.133,402.346 323.098,403.135 320.352,403.135 L311.78,403.135 L311.78,414.657 L308.087,414.657 L308.087,387.4 M322.486,391.148 C321.669,390.765 320.55,390.573 319.127,390.573 L311.78,390.573 L311.78,400.017 L319.127,400.017 C320.785,400.017 322.13,399.665 323.163,398.96 C324.196,398.255 324.712,397.012 324.712,395.23 C324.712,393.226 323.97,391.866 322.486,391.148 M355.53,391.297 C357.336,393.709 358.239,396.795 358.239,400.555 C358.239,404.625 357.206,408.008 355.14,410.705 C352.716,413.872 349.258,415.455 344.768,415.455 C340.575,415.455 337.278,414.069 334.878,411.299 C332.738,408.627 331.668,405.25 331.668,401.168 C331.668,397.482 332.584,394.327 334.415,391.705 C336.765,388.34 340.241,386.658 344.842,386.658 C349.654,386.658 353.217,388.204 355.53,391.297 M352.273,408.655 C353.727,406.323 354.454,403.642 354.454,400.611 C354.454,397.407 353.616,394.828 351.939,392.874 C350.263,390.919 347.972,389.942 345.065,389.942 C342.245,389.942 339.944,390.91 338.163,392.846 C336.381,394.782 335.491,397.636 335.491,401.409 C335.491,404.427 336.255,406.972 337.782,409.044 C339.31,411.116 341.787,412.152 345.213,412.152 C348.467,412.152 350.82,410.986 352.273,408.655 Z" style="stroke:none;fill-rule:nonzero;fill:#ffffff;fill-opacity:1;"/>
        </g>
        <g id="Shape9">
            <desc shapeID="9" type="0" basicInfo-basicType="1" basicInfo-roundedRectRadius="12" basicInfo-polygonSides="6" basicInfo-starPoints="5" bounding="rect(-76.3772,-61.7383,152.754,123.477)" text="" font-familyName="Helvetica" font-pixelSize="20" font-bold="0" font-underline="0" font-alignment="1" strokeStyle="0" markerStart="0" markerEnd="0" shadowEnabled="0" shadowOffsetX="0" shadowOffsetY="2" shadowBlur="4" shadowOpacity="160" blurEnabled="0" blurRadius="4" transform="matrix(1,0,0,1,547.37,78.6049)" pers-center="0,0" pers-size="0,0" pers-start="0,0" pers-end="0,0" locked="0" mesh="" flag=""/>
            <path id="shapePath9" d="M470.993,16.8666 L623.747,16.8666 L623.747,140.343 L470.993,140.343 L470.993,16.8666 Z" style="stroke:none;fill-rule:evenodd;fill:#555555;fill-opacity:1;"/>
        </g>
        <g id="Shape10">
            <desc shapeID="10" type="2" basicInfo-basicType="0" basicInfo-roundedRectRadius="12" basicInfo-polygonSides="6" basicInfo-starPoints="5" bounding="rect(-48.6086,-34.1295,97.2173,68.2589)" text="RPR" font-familyName="Helvetica" font-pixelSize="38" font-bold="0" font-underline="0" font-alignment="1" strokeStyle="0" markerStart="0" markerEnd="0" shadowEnabled="0" shadowOffsetX="0" shadowOffsetY="2" shadowBlur="4" shadowOpacity="160" blurEnabled="0" blurRadius="4" transform="matrix(1,0,0,1,545.929,82.1083)" pers-center="0,0" pers-size="0,0" pers-start="0,0" pers-end="0,0" locked="0" mesh="" flag=""/>
            <path id="shapePath10" d="M521.387,77.4637 C523.119,77.4637 524.489,77.1174 525.497,76.4247 C526.505,75.732 527.009,74.4826 527.009,72.6766 C527.009,70.7346 526.304,69.411 524.894,68.7059 C524.139,68.3348 523.131,68.1493 521.87,68.1493 L512.852,68.1493 L512.852,77.4637 L521.387,77.4637 M509.16,64.9764 L521.777,64.9764 C523.855,64.9764 525.568,65.2795 526.917,65.8856 C529.477,67.0484 530.757,69.1945 530.757,72.3241 C530.757,73.9569 530.42,75.2928 529.746,76.3319 C529.072,77.371 528.129,78.2059 526.917,78.8368 C527.98,79.2697 528.781,79.8387 529.319,80.5438 C529.857,81.2489 530.157,82.3931 530.219,83.9764 L530.349,87.6317 C530.386,88.6708 530.473,89.4439 530.609,89.951 C530.832,90.8169 531.227,91.3736 531.796,91.621 L531.796,92.2333 L527.269,92.2333 C527.145,91.9983 527.046,91.6952 526.972,91.3241 C526.898,90.953 526.836,90.2356 526.787,89.1718 L526.564,84.6259 C526.477,82.8446 525.816,81.6509 524.579,81.0448 C523.874,80.7108 522.766,80.5438 521.257,80.5438 L512.852,80.5438 L512.852,92.2333 L509.16,92.2333 L509.16,64.9764 M536.504,64.9764 L548.769,64.9764 C551.194,64.9764 553.148,65.6599 554.632,67.0267 C556.117,68.3936 556.859,70.314 556.859,72.788 C556.859,74.9156 556.197,76.7679 554.874,78.3451 C553.55,79.9222 551.515,80.7108 548.769,80.7108 L540.197,80.7108 L540.197,92.2333 L536.504,92.2333 L536.504,64.9764 M550.903,68.7245 C550.086,68.341 548.967,68.1493 547.544,68.1493 L540.197,68.1493 L540.197,77.5936 L547.544,77.5936 C549.202,77.5936 550.547,77.2411 551.58,76.536 C552.613,75.8309 553.129,74.5878 553.129,72.8065 C553.129,70.8026 552.387,69.4419 550.903,68.7245 M574.168,77.4637 C575.9,77.4637 577.27,77.1174 578.278,76.4247 C579.286,75.732 579.791,74.4826 579.791,72.6766 C579.791,70.7346 579.085,69.411 577.675,68.7059 C576.921,68.3348 575.913,68.1493 574.651,68.1493 L565.633,68.1493 L565.633,77.4637 L574.168,77.4637 M561.941,64.9764 L574.558,64.9764 C576.636,64.9764 578.349,65.2795 579.698,65.8856 C582.258,67.0484 583.539,69.1945 583.539,72.3241 C583.539,73.9569 583.201,75.2928 582.527,76.3319 C581.853,77.371 580.91,78.2059 579.698,78.8368 C580.762,79.2697 581.562,79.8387 582.101,80.5438 C582.639,81.2489 582.939,82.3931 583,83.9764 L583.13,87.6317 C583.167,88.6708 583.254,89.4439 583.39,89.951 C583.613,90.8169 584.009,91.3736 584.578,91.621 L584.578,92.2333 L580.05,92.2333 C579.927,91.9983 579.828,91.6952 579.753,91.3241 C579.679,90.953 579.617,90.2356 579.568,89.1718 L579.345,84.6259 C579.259,82.8446 578.597,81.6509 577.36,81.0448 C576.655,80.7108 575.548,80.5438 574.039,80.5438 L565.633,80.5438 L565.633,92.2333 L561.941,92.2333 L561.941,64.9764 Z" style="stroke:none;fill-rule:nonzero;fill:#ffffff;fill-opacity:1;"/>
        </g>
        <g id="Shape11">
            <desc shapeID="11" type="0" basicInfo-basicType="1" basicInfo-roundedRectRadius="12" basicInfo-polygonSides="6" basicInfo-starPoints="5" bounding="rect(-76.3772,-61.7383,152.754,123.477)" text="" font-familyName="Helvetica" font-pixelSize="20" font-bold="0" font-underline="0" font-alignment="1" strokeStyle="0" markerStart="0" markerEnd="0" shadowEnabled="0" shadowOffsetX="0" shadowOffsetY="2" shadowBlur="4" shadowOpacity="160" blurEnabled="0" blurRadius="4" transform="matrix(1,0,0,1,547.37,240)" pers-center="0,0" pers-size="0,0" pers-start="0,0" pers-end="0,0" locked="0" mesh="" flag=""/>
            <path id="shapePath11" d="M470.993,178.262 L623.747,178.262 L623.747,301.738 L470.993,301.738 L470.993,178.262 Z" style="stroke:none;fill-rule:evenodd;fill:#555555;fill-opacity:1;"/>
        </g>
        <g id="Shape12">
            <desc shapeID="12" type="2" basicInfo-basicType="0" basicInfo-roundedRectRadius="12" basicInfo-polygonSides="6" basicInfo-starPoints="5" bounding="rect(-48.6086,-34.1295,97.2173,68.2589)" text="RPR" font-familyName="Helvetica" font-pixelSize="38" font-bold="0" font-underline="0" font-alignment="1" strokeStyle="0" markerStart="0" markerEnd="0" shadowEnabled="0" shadowOffsetX="0" shadowOffsetY="2" shadowBlur="4" shadowOpacity="160" blurEnabled="0" blurRadius="4" transform="matrix(1,0,0,1,545.929,243.503)" pers-center="0,0" pers-size="0,0" pers-start="0,0" pers-end="0,0" locked="0" mesh="" flag=""/>
            <path id="shapePath12" d="M521.387,238.859 C523.119,238.859 524.489,238.513 525.497,237.82 C526.505,237.127 527.009,235.878 527.009,234.072 C527.009,232.13 526.304,230.806 524.894,230.101 C524.139,229.73 523.131,229.544 521.87,229.544 L512.852,229.544 L512.852,238.859 L521.387,238.859 M509.16,226.372 L521.777,226.372 C523.855,226.372 525.568,226.675 526.917,227.281 C529.477,228.444 530.757,230.59 530.757,233.719 C530.757,235.352 530.42,236.688 529.746,237.727 C529.072,238.766 528.129,239.601 526.917,240.232 C527.98,240.665 528.781,241.234 529.319,241.939 C529.857,242.644 530.157,243.788 530.219,245.372 L530.349,249.027 C530.386,250.066 530.473,250.839 530.609,251.346 C530.832,252.212 531.227,252.769 531.796,253.016 L531.796,253.628 L527.269,253.628 C527.145,253.393 527.046,253.09 526.972,252.719 C526.898,252.348 526.836,251.631 526.787,250.567 L526.564,246.021 C526.477,244.24 525.816,243.046 524.579,242.44 C523.874,242.106 522.766,241.939 521.257,241.939 L512.852,241.939 L512.852,253.628 L509.16,253.628 L509.16,226.372 M536.504,226.372 L548.769,226.372 C551.194,226.372 553.148,227.055 554.632,228.422 C556.117,229.789 556.859,231.709 556.859,234.183 C556.859,236.311 556.197,238.163 554.874,239.74 C553.55,241.317 551.515,242.106 548.769,242.106 L540.197,242.106 L540.197,253.628 L536.504,253.628 L536.504,226.372 M550.903,230.12 C550.086,229.736 548.967,229.544 547.544,229.544 L540.197,229.544 L540.197,238.989 L547.544,238.989 C549.202,238.989 550.547,238.636 551.58,237.931 C552.613,237.226 553.129,235.983 553.129,234.202 C553.129,232.198 552.387,230.837 550.903,230.12 M574.168,238.859 C575.9,238.859 577.27,238.513 578.278,237.82 C579.286,237.127 579.791,235.878 579.791,234.072 C579.791,232.13 579.085,230.806 577.675,230.101 C576.921,229.73 575.913,229.544 574.651,229.544 L565.633,229.544 L565.633,238.859 L574.168,238.859 M561.941,226.372 L574.558,226.372 C576.636,226.372 578.349,226.675 579.698,227.281 C582.258,228.444 583.539,230.59 583.539,233.719 C583.539,235.352 583.201,236.688 582.527,237.727 C581.853,238.766 580.91,239.601 579.698,240.232 C580.762,240.665 581.562,241.234 582.101,241.939 C582.639,242.644 582.939,243.788 583,245.372 L583.13,249.027 C583.167,250.066 583.254,250.839 583.39,251.346 C583.613,252.212 584.009,252.769 584.578,253.016 L584.578,253.628 L580.05,253.628 C579.927,253.393 579.828,253.09 579.753,252.719 C579.679,252.348 579.617,251.631 579.568,250.567 L579.345,246.021 C579.259,244.24 578.597,243.046 577.36,242.44 C576.655,242.106 575.548,241.939 574.039,241.939 L565.633,241.939 L565.633,253.628 L561.941,253.628 L561.941,226.372 Z" style="stroke:none;fill-rule:nonzero;fill:#ffffff;fill-opacity:1;"/>
        </g>
        <g id="Shape13">
            <desc shapeID="13" type="0" basicInfo-basicType="1" basicInfo-roundedRectRadius="12" basicInfo-polygonSides="6" basicInfo-starPoints="5" bounding="rect(-76.3772,-61.7383,152.754,123.477)" text="" font-familyName="Helvetica" font-pixelSize="20" font-bold="0" font-underline="0" font-alignment="1" strokeStyle="0" markerStart="0" markerEnd="0" shadowEnabled="0" shadowOffsetX="0" shadowOffsetY="2" shadowBlur="4" shadowOpacity="160" blurEnabled="0" blurRadius="4" transform="matrix(1,0,0,1,547.37,401.029)" pers-center="0,0" pers-size="0,0" pers-start="0,0" pers-end="0,0" locked="0" mesh="" flag=""/>
            <path id="shapePath13" d="M470.993,339.29 L623.747,339.29 L623.747,462.767 L470.993,462.767 L470.993,339.29 Z" style="stroke:none;fill-rule:evenodd;fill:#555555;fill-opacity:1;"/>
        </g>
        <g id="Shape14">
            <desc shapeID="14" type="2" basicInfo-basicType="0" basicInfo-roundedRectRadius="12" basicInfo-polygonSides="6" basicInfo-starPoints="5" bounding="rect(-48.6086,-34.1295,97.2173,68.2589)" text="RPR" font-familyName="Helvetica" font-pixelSize="38" font-bold="0" font-underline="0" font-alignment="1" strokeStyle="0" markerStart="0" markerEnd="0" shadowEnabled="0" shadowOffsetX="0" shadowOffsetY="2" shadowBlur="4" shadowOpacity="160" blurEnabled="0" blurRadius="4" transform="matrix(1,0,0,1,545.929,404.532)" pers-center="0,0" pers-size="0,0" pers-start="0,0" pers-end="0,0" locked="0" mesh="" flag=""/>
            <path id="shapePath14" d="M521.387,399.888 C523.119,399.888 524.489,399.541 525.497,398.848 C526.505,398.156 527.009,396.906 527.009,395.1 C527.009,393.158 526.304,391.835 524.894,391.13 C524.139,390.759 523.131,390.573 521.87,390.573 L512.852,390.573 L512.852,399.888 L521.387,399.888 M509.16,387.4 L521.777,387.4 C523.855,387.4 525.568,387.703 526.917,388.309 C529.477,389.472 530.757,391.618 530.757,394.748 C530.757,396.381 530.42,397.717 529.746,398.756 C529.072,399.795 528.129,400.63 526.917,401.261 C527.98,401.694 528.781,402.263 529.319,402.968 C529.857,403.673 530.157,404.817 530.219,406.4 L530.349,410.055 C530.386,411.095 530.473,411.868 530.609,412.375 C530.832,413.241 531.227,413.797 531.796,414.045 L531.796,414.657 L527.269,414.657 C527.145,414.422 527.046,414.119 526.972,413.748 C526.898,413.377 526.836,412.659 526.787,411.596 L526.564,407.05 C526.477,405.268 525.816,404.075 524.579,403.469 C523.874,403.135 522.766,402.968 521.257,402.968 L512.852,402.968 L512.852,414.657 L509.16,414.657 L509.16,387.4 M536.504,387.4 L548.769,387.4 C551.194,387.4 553.148,388.084 554.632,389.451 C556.117,390.817 556.859,392.738 556.859,395.212 C556.859,397.339 556.197,399.192 554.874,400.769 C553.55,402.346 551.515,403.135 548.769,403.135 L540.197,403.135 L540.197,414.657 L536.504,414.657 L536.504,387.4 M550.903,391.148 C550.086,390.765 548.967,390.573 547.544,390.573 L540.197,390.573 L540.197,400.017 L547.544,400.017 C549.202,400.017 550.547,399.665 551.58,398.96 C552.613,398.255 553.129,397.012 553.129,395.23 C553.129,393.226 552.387,391.866 550.903,391.148 M574.168,399.888 C575.9,399.888 577.27,399.541 578.278,398.848 C579.286,398.156 579.791,396.906 579.791,395.1 C579.791,393.158 579.085,391.835 577.675,391.13 C576.921,390.759 575.913,390.573 574.651,390.573 L565.633,390.573 L565.633,399.888 L574.168,399.888 M561.941,387.4 L574.558,387.4 C576.636,387.4 578.349,387.703 579.698,388.309 C582.258,389.472 583.539,391.618 583.539,394.748 C583.539,396.381 583.201,397.717 582.527,398.756 C581.853,399.795 580.91,400.63 579.698,401.261 C580.762,401.694 581.562,402.263 582.101,402.968 C582.639,403.673 582.939,404.817 583,406.4 L583.13,410.055 C583.167,411.095 583.254,411.868 583.39,412.375 C583.613,413.241 584.009,413.797 584.578,414.045 L584.578,414.657 L580.05,414.657 C579.927,414.422 579.828,414.119 579.753,413.748 C579.679,413.377 579.617,412.659 579.568,411.596 L579.345,407.05 C579.259,405.268 578.597,404.075 577.36,403.469 C576.655,403.135 575.548,402.968 574.039,402.968 L565.633,402.968 L565.633,414.657 L561.941,414.657 L561.941,387.4 Z" style="stroke:none;fill-rule:nonzero;fill:#ffffff;fill-opacity:1;"/>
        </g>
        <g id="Shape15">
            <desc shapeID="15" type="0" basicInfo-basicType="1" basicInfo-roundedRectRadius="12" basicInfo-polygonSides="6" basicInfo-starPoints="5" bounding="rect(-51.8729,-21.9585,103.746,43.9169)" text="" font-familyName="Helvetica" font-pixelSize="38" font-bold="0" font-underline="0" font-alignment="1" strokeStyle="0" markerStart="0" markerEnd="0" shadowEnabled="0" shadowOffsetX="0" shadowOffsetY="2" shadowBlur="4" shadowOpacity="160" blurEnabled="0" blurRadius="4" transform="matrix(0.69014,0,0,0.0869562,202.238,85.3432)" pers-center="0,0" pers-size="0,0" pers-start="0,0" pers-end="0,0" locked="0" mesh="" flag=""/>
            <path id="shapePath15" d="M166.439,83.4338 L238.038,83.4338 L238.038,87.2526 L166.439,87.2526 L166.439,83.4338 Z" style="stroke:none;fill-rule:evenodd;fill:#555555;fill-opacity:1;"/>
        </g>
        <g id="Shape16">
            <desc shapeID="16" type="0" basicInfo-basicType="5" basicInfo-roundedRectRadius="12" basicInfo-polygonSides="6" basicInfo-starPoints="5" bounding="rect(-6.44435,-6.89008,12.8887,13.7801)" text="" font-familyName="Helvetica" font-pixelSize="38" font-bold="0" font-underline="0" font-alignment="1" strokeStyle="0" markerStart="0" markerEnd="0" shadowEnabled="0" shadowOffsetX="0" shadowOffsetY="2" shadowBlur="4" shadowOpacity="160" blurEnabled="0" blurRadius="4" transform="matrix(1,0,0,1,237.178,85.3432)" pers-center="0,0" pers-size="0,0" pers-start="0,0" pers-end="0,0" locked="0" mesh="" flag=""/>
            <path id="shapePath16" d="M243.623,85.3432 L230.734,92.2333 L230.734,78.4531 L243.623,85.3432 Z" style="stroke:none;fill-rule:evenodd;fill:#555555;fill-opacity:1;"/>
        </g>
        <g id="Shape17">
            <desc shapeID="17" type="0" basicInfo-basicType="1" basicInfo-roundedRectRadius="12" basicInfo-polygonSides="6" basicInfo-starPoints="5" bounding="rect(-51.8729,-21.9585,103.746,43.9169)" text="" font-familyName="Helvetica" font-pixelSize="38" font-bold="0" font-underline="0" font-alignment="1" strokeStyle="0" markerStart="0" markerEnd="0" shadowEnabled="0" shadowOffsetX="0" shadowOffsetY="2" shadowBlur="4" shadowOpacity="160" blurEnabled="0" blurRadius="4" transform="matrix(0.69014,0,0,0.0869562,432.177,83.4338)" pers-center="0,0" pers-size="0,0" pers-start="0,0" pers-end="0,0" locked="0" mesh="" flag=""/>
            <path id="shapePath17" d="M396.377,81.5244 L467.976,81.5244 L467.976,85.3432 L396.377,85.3432 L396.377,81.5244 Z" style="stroke:none;fill-rule:evenodd;fill:#555555;fill-opacity:1;"/>
        </g>
        <g id="Shape18">
            <desc shapeID="18" type="0" basicInfo-basicType="5" basicInfo-roundedRectRadius="12" basicInfo-polygonSides="6" basicInfo-starPoints="5" bounding="rect(-6.44435,-6.89008,12.8887,13.7801)" text="" font-familyName="Helvetica" font-pixelSize="38" font-bold="0" font-underline="0" font-alignment="1" strokeStyle="0" markerStart="0" markerEnd="0" shadowEnabled="0" shadowOffsetX="0" shadowOffsetY="2" shadowBlur="4" shadowOpacity="160" blurEnabled="0" blurRadius="4" transform="matrix(1,0,0,1,467.117,83.4338)" pers-center="0,0" pers-size="0,0" pers-start="0,0" pers-end="0,0" locked="0" mesh="" flag=""/>
            <path id="shapePath18" d="M473.561,83.4338 L460.673,90.3239 L460.673,76.5437 L473.561,83.4338 Z" style="stroke:none;fill-rule:evenodd;fill:#555555;fill-opacity:1;"/>
        </g>
        <g id="Shape19">
            <desc shapeID="19" type="0" basicInfo-basicType="1" basicInfo-roundedRectRadius="12" basicInfo-polygonSides="6" basicInfo-starPoints="5" bounding="rect(-51.8729,-21.9585,103.746,43.9169)" text="" font-familyName="Helvetica" font-pixelSize="38" font-bold="0" font-underline="0" font-alignment="1" strokeStyle="0" markerStart="0" markerEnd="0" shadowEnabled="0" shadowOffsetX="0" shadowOffsetY="2" shadowBlur="4" shadowOpacity="160" blurEnabled="0" blurRadius="4" transform="matrix(0.34507,0,0,0.0869562,450.077,240.028)" pers-center="0,0" pers-size="0,0" pers-start="0,0" pers-end="0,0" locked="0" mesh="" flag=""/>
            <path id="shapePath19" d="M432.177,238.118 L467.976,238.118 L467.976,241.937 L432.177,241.937 L432.177,238.118 Z" style="stroke:none;fill-rule:evenodd;fill:#555555;fill-opacity:1;"/>
        </g>
        <g id="Shape20">
            <desc shapeID="20" type="0" basicInfo-basicType="5" basicInfo-roundedRectRadius="12" basicInfo-polygonSides="6" basicInfo-starPoints="5" bounding="rect(-6.44435,-6.89008,12.8887,13.7801)" text="" font-familyName="Helvetica" font-pixelSize="38" font-bold="0" font-underline="0" font-alignment="1" strokeStyle="0" markerStart="0" markerEnd="0" shadowEnabled="0" shadowOffsetX="0" shadowOffsetY="2" shadowBlur="4" shadowOpacity="160" blurEnabled="0" blurRadius="4" transform="matrix(1,0,0,1,467.117,240.028)" pers-center="0,0" pers-size="0,0" pers-start="0,0" pers-end="0,0" locked="0" mesh="" flag=""/>
            <path id="shapePath20" d="M473.561,240.028 L460.673,246.918 L460.673,233.138 L473.561,240.028 Z" style="stroke:none;fill-rule:evenodd;fill:#555555;fill-opacity:1;"/>
        </g>
        <g id="Shape21">
            <desc shapeID="21" type="0" basicInfo-basicType="1" basicInfo-roundedRectRadius="12" basicInfo-polygonSides="6" basicInfo-starPoints="5" bounding="rect(-51.8729,-21.9585,103.746,43.9169)" text="" font-familyName="Helvetica" font-pixelSize="38" font-bold="0" font-underline="0" font-alignment="1" strokeStyle="0" markerStart="0" markerEnd="0" shadowEnabled="0" shadowOffsetX="0" shadowOffsetY="2" shadowBlur="4" shadowOpacity="160" blurEnabled="0" blurRadius="4" transform="matrix(0.34507,0,0,0.0869562,450.077,401.056)" pers-center="0,0" pers-size="0,0" pers-start="0,0" pers-end="0,0" locked="0" mesh="" flag=""/>
            <path id="shapePath21" d="M432.177,399.147 L467.976,399.147 L467.976,402.966 L432.177,402.966 L432.177,399.147 Z" style="stroke:none;fill-rule:evenodd;fill:#555555;fill-opacity:1;"/>
        </g>
        <g id="Shape22">
            <desc shapeID="22" type="0" basicInfo-basicType="5" basicInfo-roundedRectRadius="12" basicInfo-polygonSides="6" basicInfo-starPoints="5" bounding="rect(-6.44435,-6.89008,12.8887,13.7801)" text="" font-familyName="Helvetica" font-pixelSize="38" font-bold="0" font-underline="0" font-alignment="1" strokeStyle="0" markerStart="0" markerEnd="0" shadowEnabled="0" shadowOffsetX="0" shadowOffsetY="2" shadowBlur="4" shadowOpacity="160" blurEnabled="0" blurRadius="4" transform="matrix(1,0,0,1,467.117,401.056)" pers-center="0,0" pers-size="0,0" pers-start="0,0" pers-end="0,0" locked="0" mesh="" flag=""/>
            <path id="shapePath22" d="M473.561,401.056 L460.673,407.947 L460.673,394.166 L473.561,401.056 Z" style="stroke:none;fill-rule:evenodd;fill:#555555;fill-opacity:1;"/>
        </g>
        <g id="Shape23">
            <desc shapeID="23" type="0" basicInfo-basicType="1" basicInfo-roundedRectRadius="12" basicInfo-polygonSides="6" basicInfo-starPoints="5" bounding="rect(-51.8729,-21.9585,103.746,43.9169)" text="" font-familyName="Helvetica" font-pixelSize="38" font-bold="0" font-underline="0" font-alignment="1" strokeStyle="0" markerStart="0" markerEnd="0" shadowEnabled="0" shadowOffsetX="0" shadowOffsetY="2" shadowBlur="4" shadowOpacity="160" blurEnabled="0" blurRadius="4" transform="matrix(0.34507,0,0,0.0869562,220.138,241.937)" pers-center="0,0" pers-size="0,0" pers-start="0,0" pers-end="0,0" locked="0" mesh="" flag=""/>
            <path id="shapePath23" d="M202.238,240.028 L238.038,240.028 L238.038,243.847 L202.238,243.847 L202.238,240.028 Z" style="stroke:none;fill-rule:evenodd;fill:#555555;fill-opacity:1;"/>
        </g>
        <g id="Shape24">
            <desc shapeID="24" type="0" basicInfo-basicType="5" basicInfo-roundedRectRadius="12" basicInfo-polygonSides="6" basicInfo-starPoints="5" bounding="rect(-6.44435,-6.89008,12.8887,13.7801)" text="" font-familyName="Helvetica" font-pixelSize="38" font-bold="0" font-underline="0" font-alignment="1" strokeStyle="0" markerStart="0" markerEnd="0" shadowEnabled="0" shadowOffsetX="0" shadowOffsetY="2" shadowBlur="4" shadowOpacity="160" blurEnabled="0" blurRadius="4" transform="matrix(1,0,0,1,237.178,241.937)" pers-center="0,0" pers-size="0,0" pers-start="0,0" pers-end="0,0" locked="0" mesh="" flag=""/>
            <path id="shapePath24" d="M243.623,241.937 L230.734,248.827 L230.734,235.047 L243.623,241.937 Z" style="stroke:none;fill-rule:evenodd;fill:#555555;fill-opacity:1;"/>
        </g>
        <g id="Shape25">
            <desc shapeID="25" type="0" basicInfo-basicType="1" basicInfo-roundedRectRadius="12" basicInfo-polygonSides="6" basicInfo-starPoints="5" bounding="rect(-51.8729,-21.9585,103.746,43.9169)" text="" font-familyName="Helvetica" font-pixelSize="38" font-bold="0" font-underline="0" font-alignment="1" strokeStyle="0" markerStart="0" markerEnd="0" shadowEnabled="0" shadowOffsetX="0" shadowOffsetY="2" shadowBlur="4" shadowOpacity="160" blurEnabled="0" blurRadius="4" transform="matrix(0.34507,0,0,0.0869562,217.346,402.966)" pers-center="0,0" pers-size="0,0" pers-start="0,0" pers-end="0,0" locked="0" mesh="" flag=""/>
            <path id="shapePath25" d="M199.446,401.057 L235.245,401.057 L235.245,404.875 L199.446,404.875 L199.446,401.057 Z" style="stroke:none;fill-rule:evenodd;fill:#555555;fill-opacity:1;"/>
        </g>
        <g id="Shape26">
            <desc shapeID="26" type="0" basicInfo-basicType="5" basicInfo-roundedRectRadius="12" basicInfo-polygonSides="6" basicInfo-starPoints="5" bounding="rect(-6.44435,-6.89008,12.8887,13.7801)" text="" font-familyName="Helvetica" font-pixelSize="38" font-bold="0" font-underline="0" font-alignment="1" strokeStyle="0" markerStart="0" markerEnd="0" shadowEnabled="0" shadowOffsetX="0" shadowOffsetY="2" shadowBlur="4" shadowOpacity="160" blurEnabled="0" blurRadius="4" transform="matrix(1,0,0,1,234.386,402.966)" pers-center="0,0" pers-size="0,0" pers-start="0,0" pers-end="0,0" locked="0" mesh="" flag=""/>
            <path id="shapePath26" d="M240.83,402.966 L227.942,409.856 L227.942,396.076 L240.83,402.966 Z" style="stroke:none;fill-rule:evenodd;fill:#555555;fill-opacity:1;"/>
        </g>
        <g id="Shape27">
            <desc shapeID="27" type="0" basicInfo-basicType="1" basicInfo-roundedRectRadius="12" basicInfo-polygonSides="6" basicInfo-starPoints="5" bounding="rect(-51.8729,-21.9585,103.746,43.9169)" text="" font-familyName="Helvetica" font-pixelSize="38" font-bold="0" font-underline="0" font-alignment="1" strokeStyle="0" markerStart="0" markerEnd="0" shadowEnabled="0" shadowOffsetX="0" shadowOffsetY="2" shadowBlur="4" shadowOpacity="160" blurEnabled="0" blurRadius="4" transform="matrix(0.0131624,-3.0806,0.0869554,0.000371532,200.706,245.137)" pers-center="0,0" pers-size="0,0" pers-start="0,0" pers-end="0,0" locked="0" mesh="" flag=""/>
            <path id="shapePath27" d="M198.114,404.928 L199.479,85.3289 L203.298,85.3453 L201.932,404.945 L198.114,404.928 Z" style="stroke:none;fill-rule:evenodd;fill:#555555;fill-opacity:1;"/>
        </g>
        <g id="Shape28">
            <desc shapeID="28" type="0" basicInfo-basicType="1" basicInfo-roundedRectRadius="12" basicInfo-polygonSides="6" basicInfo-starPoints="5" bounding="rect(-51.8729,-21.9585,103.746,43.9169)" text="" font-familyName="Helvetica" font-pixelSize="38" font-bold="0" font-underline="0" font-alignment="1" strokeStyle="0" markerStart="0" markerEnd="0" shadowEnabled="0" shadowOffsetX="0" shadowOffsetY="2" shadowBlur="4" shadowOpacity="160" blurEnabled="0" blurRadius="4" transform="matrix(0.0131624,-3.0806,0.0869554,0.000371532,432.177,243.158)" pers-center="0,0" pers-size="0,0" pers-start="0,0" pers-end="0,0" locked="0" mesh="" flag=""/>
            <path id="shapePath28" d="M429.585,402.95 L430.95,83.3504 L434.769,83.3667 L433.404,402.966 L429.585,402.95 Z" style="stroke:none;fill-rule:evenodd;fill:#555555;fill-opacity:1;"/>
        </g>
    </g>
</svg>
