<?xml version="1.0"?>
<svg version="1.1" xmlns="http://www.w3.org/2000/svg" xmlns:xlink="http://www.w3.org/1999/xlink" width="640" height="480">
    <desc iVinci="yes" version="4.6" gridStep="20" showGrid="no" snapToGrid="no" codePlatform="0"/>
    <g id="Layer1" name="Layer 1" opacity="1">
        <g id="Shape1">
            <desc shapeID="1" type="0" basicInfo-basicType="1" basicInfo-roundedRectRadius="12" basicInfo-polygonSides="6" basicInfo-starPoints="5" bounding="rect(-76.3772,-61.7383,152.754,123.477)" text="" font-familyName="Helvetica" font-pixelSize="20" font-bold="0" font-underline="0" font-alignment="1" strokeStyle="0" markerStart="0" markerEnd="0" shadowEnabled="0" shadowOffsetX="0" shadowOffsetY="2" shadowBlur="4" shadowOpacity="160" blurEnabled="0" blurRadius="4" transform="matrix(1,0,0,1,320,240)" pers-center="0,0" pers-size="0,0" pers-start="0,0" pers-end="0,0" locked="0" mesh="" flag=""/>
            <path id="shapePath1" d="M243.623,178.262 L396.377,178.262 L396.377,301.738 L243.623,301.738 L243.623,178.262 Z" style="stroke:none;fill-rule:evenodd;fill:#555555;fill-opacity:1;"/>
        </g>
        <g id="Shape2">
            <desc shapeID="2" type="0" basicInfo-basicType="0" basicInfo-roundedRectRadius="12" basicInfo-polygonSides="6" basicInfo-starPoints="5" bounding="rect(-38.748,-14.3984,77.4961,28.7969)" text="RPO" font-familyName="Helvetica" font-pixelSize="38" font-bold="0" font-underline="0" font-alignment="1" strokeStyle="0" markerStart="0" markerEnd="0" shadowEnabled="0" shadowOffsetX="0" shadowOffsetY="2" shadowBlur="4" shadowOpacity="160" blurEnabled="0" blurRadius="4" transform="matrix(1,0,0,1,319.491,240.028)" pers-center="0,0" pers-size="0,0" pers-start="0,0" pers-end="0,0" locked="0" mesh="" flag=""/>
            <path id="shapePath2" d="M292.97,238.859 C294.702,238.859 296.072,238.513 297.08,237.82 C298.088,237.127 298.592,235.878 298.592,234.072 C298.592,232.13 297.887,230.806 296.477,230.101 C295.723,229.73 294.714,229.544 293.453,229.544 L284.435,229.544 L284.435,238.859 L292.97,238.859 M280.743,226.372 L293.36,226.372 C295.438,226.372 297.151,226.675 298.5,227.281 C301.06,228.444 302.34,230.59 302.34,233.719 C302.34,235.352 302.003,236.688 301.329,237.727 C300.655,238.766 299.712,239.601 298.5,240.232 C299.563,240.665 300.364,241.234 300.902,241.939 C301.44,242.644 301.74,243.788 301.802,245.372 L301.932,249.027 C301.969,250.066 302.056,250.839 302.192,251.346 C302.415,252.212 302.81,252.769 303.379,253.016 L303.379,253.628 L298.852,253.628 C298.728,253.393 298.629,253.09 298.555,252.719 C298.481,252.348 298.419,251.631 298.37,250.567 L298.147,246.021 C298.06,244.24 297.399,243.046 296.162,242.44 C295.457,242.106 294.349,241.939 292.84,241.939 L284.435,241.939 L284.435,253.628 L280.743,253.628 L280.743,226.372 M308.087,226.372 L320.352,226.372 C322.777,226.372 324.731,227.055 326.215,228.422 C327.7,229.789 328.442,231.709 328.442,234.183 C328.442,236.311 327.78,238.163 326.457,239.74 C325.133,241.317 323.098,242.106 320.352,242.106 L311.78,242.106 L311.78,253.628 L308.087,253.628 L308.087,226.372 M322.486,230.12 C321.669,229.736 320.55,229.544 319.127,229.544 L311.78,229.544 L311.78,238.989 L319.127,238.989 C320.785,238.989 322.13,238.636 323.163,237.931 C324.196,237.226 324.712,235.983 324.712,234.202 C324.712,232.198 323.97,230.837 322.486,230.12 M355.53,230.268 C357.336,232.68 358.239,235.766 358.239,239.527 C358.239,243.597 357.206,246.98 355.14,249.676 C352.716,252.843 349.258,254.426 344.768,254.426 C340.575,254.426 337.278,253.041 334.878,250.27 C332.738,247.598 331.668,244.221 331.668,240.139 C331.668,236.453 332.584,233.299 334.415,230.676 C336.765,227.312 340.241,225.629 344.842,225.629 C349.654,225.629 353.217,227.176 355.53,230.268 M352.273,247.626 C353.727,245.294 354.454,242.613 354.454,239.583 C354.454,236.379 353.616,233.8 351.939,231.845 C350.263,229.891 347.972,228.914 345.065,228.914 C342.245,228.914 339.944,229.882 338.163,231.817 C336.381,233.753 335.491,236.608 335.491,240.38 C335.491,243.399 336.255,245.944 337.782,248.016 C339.31,250.088 341.787,251.124 345.213,251.124 C348.467,251.124 350.82,249.958 352.273,247.626 Z" style="stroke:none;fill-rule:nonzero;fill:#ffffff;fill-opacity:1;"/>
        </g>
        <g id="Shape3">
            <desc shapeID="3" type="0" basicInfo-basicType="0" basicInfo-roundedRectRadius="12" basicInfo-polygonSides="6" basicInfo-starPoints="5" bounding="rect(-40.2324,-7.36328,80.4648,14.7266)" text="M-control" font-familyName="Helvetica" font-pixelSize="20" font-bold="0" font-underline="0" font-alignment="1" strokeStyle="0" markerStart="0" markerEnd="0" shadowEnabled="0" shadowOffsetX="0" shadowOffsetY="2" shadowBlur="4" shadowOpacity="160" blurEnabled="0" blurRadius="4" transform="matrix(1,0,0,1,90.3634,122.248)" pers-center="0,0" pers-size="0,0" pers-start="0,0" pers-end="0,0" locked="0" mesh="" flag=""/>
            <path id="shapePath3" d="M50.131,114.885 L52.9142,114.885 L57.0353,127.014 L61.1271,114.885 L63.881,114.885 L63.881,129.23 L62.0353,129.23 L62.0353,120.764 C62.0353,120.471 62.0418,119.986 62.0548,119.309 C62.0678,118.631 62.0743,117.906 62.0743,117.131 L57.9826,129.23 L56.0587,129.23 L51.9376,117.131 L51.9376,117.57 C51.9376,117.922 51.9458,118.457 51.962,119.177 C51.9783,119.896 51.9865,120.425 51.9865,120.764 L51.9865,129.23 L50.131,129.23 L50.131,114.885 M66.1427,122.756 L71.0451,122.756 L71.0451,124.562 L66.1427,124.562 L66.1427,122.756 M80.1671,119.328 C80.9061,119.901 81.3504,120.887 81.5001,122.287 L79.7911,122.287 C79.687,121.643 79.4493,121.107 79.0783,120.681 C78.7072,120.254 78.1115,120.041 77.2911,120.041 C76.1714,120.041 75.3706,120.588 74.8888,121.682 C74.5763,122.391 74.4201,123.267 74.4201,124.309 C74.4201,125.357 74.6414,126.239 75.0841,126.955 C75.5268,127.671 76.2234,128.029 77.174,128.029 C77.9031,128.029 78.4809,127.806 78.9074,127.36 C79.3338,126.914 79.6284,126.304 79.7911,125.529 L81.5001,125.529 C81.3048,126.916 80.8165,127.93 80.0353,128.571 C79.254,129.213 78.2547,129.533 77.0372,129.533 C75.6701,129.533 74.5796,129.034 73.7658,128.034 C72.952,127.035 72.5451,125.786 72.5451,124.289 C72.5451,122.453 72.991,121.024 73.8829,120.002 C74.7749,118.98 75.9109,118.469 77.2911,118.469 C78.4695,118.469 79.4282,118.755 80.1671,119.328 M89.8058,126.774 C90.2387,125.892 90.4552,124.911 90.4552,123.83 C90.4552,122.853 90.299,122.059 89.9865,121.447 C89.4917,120.484 88.6388,120.002 87.4279,120.002 C86.3536,120.002 85.5724,120.412 85.0841,121.232 C84.5958,122.053 84.3517,123.042 84.3517,124.201 C84.3517,125.314 84.5958,126.242 85.0841,126.984 C85.5724,127.727 86.3471,128.098 87.4083,128.098 C88.5737,128.098 89.3728,127.657 89.8058,126.774 M90.8947,119.816 C91.8257,120.715 92.2911,122.036 92.2911,123.781 C92.2911,125.467 91.881,126.861 91.0607,127.961 C90.2404,129.061 88.9676,129.611 87.2423,129.611 C85.8035,129.611 84.6609,129.125 83.8146,128.151 C82.9682,127.178 82.5451,125.871 82.5451,124.23 C82.5451,122.473 82.991,121.073 83.8829,120.031 C84.7749,118.99 85.9728,118.469 87.4767,118.469 C88.8243,118.469 89.9637,118.918 90.8947,119.816 M94.3673,118.771 L96.0372,118.771 L96.0372,120.256 C96.532,119.644 97.0561,119.204 97.6095,118.937 C98.1629,118.671 98.7781,118.537 99.4552,118.537 C100.94,118.537 101.942,119.055 102.463,120.09 C102.749,120.656 102.893,121.467 102.893,122.521 L102.893,129.23 L101.106,129.23 L101.106,122.639 C101.106,122.001 101.011,121.486 100.822,121.096 C100.51,120.445 99.9435,120.119 99.1232,120.119 C98.7065,120.119 98.3647,120.161 98.0978,120.246 C97.616,120.389 97.1928,120.676 96.8283,121.105 C96.5353,121.451 96.3449,121.807 96.257,122.175 C96.1691,122.543 96.1251,123.068 96.1251,123.752 L96.1251,129.23 L94.3673,129.23 L94.3673,118.771 M105.828,115.852 L107.606,115.852 L107.606,118.771 L109.276,118.771 L109.276,120.207 L107.606,120.207 L107.606,127.033 C107.606,127.398 107.729,127.642 107.977,127.766 C108.113,127.837 108.341,127.873 108.66,127.873 C108.745,127.873 108.836,127.871 108.934,127.868 C109.031,127.865 109.145,127.857 109.276,127.844 L109.276,129.23 C109.074,129.289 108.864,129.331 108.646,129.357 C108.428,129.383 108.192,129.396 107.938,129.396 C107.117,129.396 106.561,129.187 106.268,128.767 C105.975,128.347 105.828,127.801 105.828,127.131 L105.828,120.207 L104.412,120.207 L104.412,118.771 L105.828,118.771 L105.828,115.852 M111.072,118.771 L112.742,118.771 L112.742,120.578 C112.879,120.227 113.214,119.798 113.748,119.294 C114.282,118.789 114.897,118.537 115.594,118.537 C115.626,118.537 115.682,118.54 115.76,118.547 C115.838,118.553 115.971,118.566 116.16,118.586 L116.16,120.441 C116.056,120.422 115.96,120.409 115.872,120.402 C115.784,120.396 115.688,120.393 115.584,120.393 C114.699,120.393 114.018,120.677 113.543,121.247 C113.068,121.817 112.83,122.473 112.83,123.215 L112.83,129.23 L111.072,129.23 L111.072,118.771 M124.228,126.774 C124.661,125.892 124.877,124.911 124.877,123.83 C124.877,122.853 124.721,122.059 124.408,121.447 C123.914,120.484 123.061,120.002 121.85,120.002 C120.776,120.002 119.994,120.412 119.506,121.232 C119.018,122.053 118.774,123.042 118.774,124.201 C118.774,125.314 119.018,126.242 119.506,126.984 C119.994,127.727 120.769,128.098 121.83,128.098 C122.996,128.098 123.795,127.657 124.228,126.774 M125.317,119.816 C126.248,120.715 126.713,122.036 126.713,123.781 C126.713,125.467 126.303,126.861 125.483,127.961 C124.662,129.061 123.389,129.611 121.664,129.611 C120.225,129.611 119.083,129.125 118.236,128.151 C117.39,127.178 116.967,125.871 116.967,124.23 C116.967,122.473 117.413,121.073 118.305,120.031 C119.197,118.99 120.395,118.469 121.899,118.469 C123.246,118.469 124.386,118.918 125.317,119.816 M128.838,114.885 L130.596,114.885 L130.596,129.23 L128.838,129.23 L128.838,114.885 Z" style="stroke:none;fill-rule:nonzero;fill:#555555;fill-opacity:1;"/>
        </g>
        <g id="Shape4">
            <desc shapeID="4" type="0" basicInfo-basicType="0" basicInfo-roundedRectRadius="12" basicInfo-polygonSides="6" basicInfo-starPoints="5" bounding="rect(-38.5049,-7.36328,77.0098,14.7266)" text="V-control" font-familyName="Helvetica" font-pixelSize="20" font-bold="0" font-underline="0" font-alignment="1" strokeStyle="0" markerStart="0" markerEnd="0" shadowEnabled="0" shadowOffsetX="0" shadowOffsetY="2" shadowBlur="4" shadowOpacity="160" blurEnabled="0" blurRadius="4" transform="matrix(1,0,0,1,92.091,240.489)" pers-center="0,0" pers-size="0,0" pers-start="0,0" pers-end="0,0" locked="0" mesh="" flag=""/>
            <path id="shapePath4" d="M55.7345,233.126 L59.8556,245.342 L63.9279,233.126 L66.1056,233.126 L60.8712,247.471 L58.8107,247.471 L53.5861,233.126 L55.7345,233.126 M66.1427,240.997 L71.0451,240.997 L71.0451,242.803 L66.1427,242.803 L66.1427,240.997 M80.1671,237.569 C80.9061,238.142 81.3504,239.128 81.5001,240.528 L79.7912,240.528 C79.687,239.883 79.4494,239.348 79.0783,238.921 C78.7072,238.495 78.1115,238.282 77.2912,238.282 C76.1714,238.282 75.3706,238.829 74.8888,239.922 C74.5763,240.632 74.4201,241.508 74.4201,242.549 C74.4201,243.598 74.6414,244.48 75.0841,245.196 C75.5268,245.912 76.2234,246.27 77.174,246.27 C77.9031,246.27 78.4809,246.047 78.9074,245.601 C79.3338,245.155 79.6284,244.545 79.7912,243.77 L81.5001,243.77 C81.3048,245.157 80.8165,246.171 80.0353,246.812 C79.254,247.453 78.2547,247.774 77.0372,247.774 C75.6701,247.774 74.5796,247.274 73.7658,246.275 C72.952,245.276 72.5451,244.027 72.5451,242.53 C72.5451,240.694 72.991,239.265 73.8829,238.243 C74.7749,237.221 75.9109,236.71 77.2912,236.71 C78.4695,236.71 79.4282,236.996 80.1671,237.569 M89.8058,245.015 C90.2387,244.133 90.4552,243.152 90.4552,242.071 C90.4552,241.094 90.299,240.3 89.9865,239.688 C89.4917,238.725 88.6388,238.243 87.4279,238.243 C86.3537,238.243 85.5724,238.653 85.0841,239.473 C84.5958,240.294 84.3517,241.283 84.3517,242.442 C84.3517,243.555 84.5958,244.483 85.0841,245.225 C85.5724,245.967 86.3471,246.338 87.4083,246.338 C88.5737,246.338 89.3729,245.897 89.8058,245.015 M90.8947,238.057 C91.8257,238.956 92.2912,240.277 92.2912,242.022 C92.2912,243.708 91.881,245.101 91.0607,246.202 C90.2404,247.302 88.9676,247.852 87.2423,247.852 C85.8035,247.852 84.6609,247.365 83.8146,246.392 C82.9682,245.419 82.5451,244.112 82.5451,242.471 C82.5451,240.713 82.991,239.314 83.8829,238.272 C84.7749,237.23 85.9728,236.71 87.4767,236.71 C88.8244,236.71 89.9637,237.159 90.8947,238.057 M94.3673,237.012 L96.0373,237.012 L96.0373,238.497 C96.532,237.885 97.0561,237.445 97.6095,237.178 C98.1629,236.911 98.7781,236.778 99.4552,236.778 C100.94,236.778 101.942,237.295 102.463,238.331 C102.749,238.897 102.893,239.708 102.893,240.762 L102.893,247.471 L101.106,247.471 L101.106,240.879 C101.106,240.241 101.011,239.727 100.822,239.336 C100.51,238.685 99.9435,238.36 99.1232,238.36 C98.7065,238.36 98.3647,238.402 98.0978,238.487 C97.616,238.63 97.1929,238.917 96.8283,239.346 C96.5353,239.691 96.3449,240.048 96.257,240.416 C96.1691,240.783 96.1251,241.309 96.1251,241.993 L96.1251,247.471 L94.3673,247.471 L94.3673,237.012 M105.828,234.092 L107.606,234.092 L107.606,237.012 L109.276,237.012 L109.276,238.448 L107.606,238.448 L107.606,245.274 C107.606,245.639 107.729,245.883 107.977,246.006 C108.113,246.078 108.341,246.114 108.66,246.114 C108.745,246.114 108.836,246.112 108.934,246.109 C109.031,246.106 109.145,246.098 109.276,246.085 L109.276,247.471 C109.074,247.53 108.864,247.572 108.646,247.598 C108.428,247.624 108.192,247.637 107.938,247.637 C107.117,247.637 106.561,247.427 106.268,247.007 C105.975,246.587 105.828,246.042 105.828,245.372 L105.828,238.448 L104.412,238.448 L104.412,237.012 L105.828,237.012 L105.828,234.092 M111.072,237.012 L112.742,237.012 L112.742,238.819 C112.879,238.467 113.214,238.039 113.748,237.535 C114.282,237.03 114.897,236.778 115.594,236.778 C115.626,236.778 115.682,236.781 115.76,236.788 C115.838,236.794 115.971,236.807 116.16,236.827 L116.16,238.682 C116.056,238.663 115.96,238.65 115.872,238.643 C115.784,238.637 115.688,238.633 115.584,238.633 C114.699,238.633 114.018,238.918 113.543,239.488 C113.068,240.058 112.83,240.713 112.83,241.456 L112.83,247.471 L111.072,247.471 L111.072,237.012 M124.228,245.015 C124.661,244.133 124.877,243.152 124.877,242.071 C124.877,241.094 124.721,240.3 124.408,239.688 C123.914,238.725 123.061,238.243 121.85,238.243 C120.776,238.243 119.994,238.653 119.506,239.473 C119.018,240.294 118.774,241.283 118.774,242.442 C118.774,243.555 119.018,244.483 119.506,245.225 C119.994,245.967 120.769,246.338 121.83,246.338 C122.996,246.338 123.795,245.897 124.228,245.015 M125.317,238.057 C126.248,238.956 126.713,240.277 126.713,242.022 C126.713,243.708 126.303,245.101 125.483,246.202 C124.662,247.302 123.389,247.852 121.664,247.852 C120.225,247.852 119.083,247.365 118.236,246.392 C117.39,245.419 116.967,244.112 116.967,242.471 C116.967,240.713 117.413,239.314 118.305,238.272 C119.197,237.23 120.395,236.71 121.899,236.71 C123.246,236.71 124.386,237.159 125.317,238.057 M128.838,233.126 L130.596,233.126 L130.596,247.471 L128.838,247.471 L128.838,233.126 Z" style="stroke:none;fill-rule:nonzero;fill:#555555;fill-opacity:1;"/>
        </g>
        <g id="Shape5">
            <desc shapeID="5" type="0" basicInfo-basicType="0" basicInfo-roundedRectRadius="12" basicInfo-polygonSides="6" basicInfo-starPoints="5" bounding="rect(-38.8225,-7.56348,77.6451,15.127)" text="S-control" font-familyName="Helvetica" font-pixelSize="20" font-bold="0" font-underline="0" font-alignment="1" strokeStyle="0" markerStart="0" markerEnd="0" shadowEnabled="0" shadowOffsetX="0" shadowOffsetY="2" shadowBlur="4" shadowOpacity="160" blurEnabled="0" blurRadius="4" transform="matrix(1,0,0,1,92.4086,350.965)" pers-center="0,0" pers-size="0,0" pers-start="0,0" pers-end="0,0" locked="0" mesh="" flag=""/>
            <path id="shapePath5" d="M55.4128,353.48 C55.4584,354.294 55.6504,354.955 55.989,355.462 C56.6335,356.413 57.7696,356.888 59.3972,356.888 C60.1264,356.888 60.7904,356.784 61.3894,356.576 C62.5482,356.172 63.1277,355.449 63.1277,354.408 C63.1277,353.627 62.8835,353.07 62.3952,352.738 C61.9004,352.412 61.1257,352.129 60.071,351.888 L58.1277,351.449 C56.8581,351.162 55.9597,350.847 55.4323,350.502 C54.5209,349.903 54.0652,349.007 54.0652,347.816 C54.0652,346.527 54.5111,345.469 55.403,344.642 C56.295,343.815 57.558,343.402 59.1921,343.402 C60.696,343.402 61.9737,343.765 63.0251,344.491 C64.0765,345.217 64.6023,346.377 64.6023,347.972 L62.7761,347.972 C62.6784,347.204 62.4701,346.615 62.1511,346.205 C61.5586,345.456 60.5528,345.082 59.1335,345.082 C57.9877,345.082 57.1641,345.323 56.6628,345.804 C56.1615,346.286 55.9109,346.846 55.9109,347.484 C55.9109,348.187 56.2038,348.701 56.7898,349.027 C57.1739,349.235 58.043,349.496 59.3972,349.808 L61.4089,350.267 C62.379,350.489 63.1277,350.791 63.655,351.175 C64.5665,351.846 65.0222,352.819 65.0222,354.095 C65.0222,355.684 64.4444,356.82 63.2888,357.504 C62.1332,358.187 60.7904,358.529 59.2605,358.529 C57.4766,358.529 56.0801,358.073 55.071,357.162 C54.0619,356.257 53.5671,355.03 53.5866,353.48 L55.4128,353.48 M66.778,351.634 L71.6804,351.634 L71.6804,353.441 L66.778,353.441 L66.778,351.634 M80.8025,348.207 C81.5414,348.78 81.9857,349.766 82.1355,351.166 L80.4265,351.166 C80.3223,350.521 80.0847,349.986 79.7136,349.559 C79.3425,349.133 78.7468,348.92 77.9265,348.92 C76.8067,348.92 76.0059,349.466 75.5241,350.56 C75.2116,351.27 75.0554,352.145 75.0554,353.187 C75.0554,354.235 75.2767,355.117 75.7194,355.834 C76.1622,356.55 76.8588,356.908 77.8093,356.908 C78.5385,356.908 79.1163,356.685 79.5427,356.239 C79.9691,355.793 80.2637,355.183 80.4265,354.408 L82.1355,354.408 C81.9401,355.795 81.4519,356.809 80.6706,357.45 C79.8894,358.091 78.89,358.412 77.6726,358.412 C76.3054,358.412 75.2149,357.912 74.4011,356.913 C73.5873,355.913 73.1804,354.665 73.1804,353.168 C73.1804,351.332 73.6264,349.903 74.5183,348.88 C75.4102,347.858 76.5463,347.347 77.9265,347.347 C79.1049,347.347 80.0635,347.634 80.8025,348.207 M90.4411,355.653 C90.8741,354.771 91.0905,353.789 91.0905,352.709 C91.0905,351.732 90.9343,350.938 90.6218,350.326 C90.127,349.362 89.2741,348.88 88.0632,348.88 C86.989,348.88 86.2077,349.291 85.7194,350.111 C85.2312,350.931 84.987,351.921 84.987,353.08 C84.987,354.193 85.2312,355.121 85.7194,355.863 C86.2077,356.605 86.9825,356.976 88.0437,356.976 C89.209,356.976 90.0082,356.535 90.4411,355.653 M91.53,348.695 C92.461,349.593 92.9265,350.915 92.9265,352.66 C92.9265,354.346 92.5163,355.739 91.696,356.839 C90.8757,357.94 89.6029,358.49 87.8776,358.49 C86.4389,358.49 85.2963,358.003 84.4499,357.03 C83.6036,356.057 83.1804,354.75 83.1804,353.109 C83.1804,351.351 83.6264,349.951 84.5183,348.91 C85.4102,347.868 86.6081,347.347 88.112,347.347 C89.4597,347.347 90.599,347.796 91.53,348.695 M95.0026,347.65 L96.6726,347.65 L96.6726,349.134 C97.1674,348.522 97.6915,348.083 98.2448,347.816 C98.7982,347.549 99.4135,347.416 100.091,347.416 C101.575,347.416 102.578,347.933 103.098,348.968 C103.385,349.535 103.528,350.345 103.528,351.4 L103.528,358.109 L101.741,358.109 L101.741,351.517 C101.741,350.879 101.647,350.365 101.458,349.974 C101.145,349.323 100.579,348.998 99.7585,348.998 C99.3419,348.998 99.0001,349.04 98.7331,349.125 C98.2514,349.268 97.8282,349.554 97.4636,349.984 C97.1706,350.329 96.9802,350.685 96.8923,351.053 C96.8044,351.421 96.7605,351.947 96.7605,352.63 L96.7605,358.109 L95.0026,358.109 L95.0026,347.65 M106.464,344.73 L108.241,344.73 L108.241,347.65 L109.911,347.65 L109.911,349.086 L108.241,349.086 L108.241,355.912 C108.241,356.276 108.365,356.52 108.612,356.644 C108.749,356.716 108.977,356.752 109.296,356.752 C109.38,356.752 109.471,356.75 109.569,356.747 C109.667,356.743 109.781,356.735 109.911,356.722 L109.911,358.109 C109.709,358.168 109.499,358.21 109.281,358.236 C109.063,358.262 108.827,358.275 108.573,358.275 C107.753,358.275 107.196,358.065 106.903,357.645 C106.61,357.225 106.464,356.68 106.464,356.009 L106.464,349.086 L105.048,349.086 L105.048,347.65 L106.464,347.65 L106.464,344.73 M111.708,347.65 L113.378,347.65 L113.378,349.457 C113.514,349.105 113.85,348.677 114.384,348.172 C114.917,347.668 115.533,347.416 116.229,347.416 C116.262,347.416 116.317,347.419 116.395,347.425 C116.473,347.432 116.607,347.445 116.796,347.464 L116.796,349.32 C116.691,349.3 116.595,349.287 116.508,349.281 C116.42,349.274 116.324,349.271 116.219,349.271 C115.334,349.271 114.654,349.556 114.178,350.126 C113.703,350.695 113.466,351.351 113.466,352.093 L113.466,358.109 L111.708,358.109 L111.708,347.65 M124.863,355.653 C125.296,354.771 125.512,353.789 125.512,352.709 C125.512,351.732 125.356,350.938 125.044,350.326 C124.549,349.362 123.696,348.88 122.485,348.88 C121.411,348.88 120.63,349.291 120.141,350.111 C119.653,350.931 119.409,351.921 119.409,353.08 C119.409,354.193 119.653,355.121 120.141,355.863 C120.63,356.605 121.404,356.976 122.466,356.976 C123.631,356.976 124.43,356.535 124.863,355.653 M125.952,348.695 C126.883,349.593 127.348,350.915 127.348,352.66 C127.348,354.346 126.938,355.739 126.118,356.839 C125.298,357.94 124.025,358.49 122.3,358.49 C120.861,358.49 119.718,358.003 118.872,357.03 C118.025,356.057 117.602,354.75 117.602,353.109 C117.602,351.351 118.048,349.951 118.94,348.91 C119.832,347.868 121.03,347.347 122.534,347.347 C123.882,347.347 125.021,347.796 125.952,348.695 M129.473,343.763 L131.231,343.763 L131.231,358.109 L129.473,358.109 L129.473,343.763 Z" style="stroke:none;fill-rule:nonzero;fill:#555555;fill-opacity:1;"/>
        </g>
        <g id="Shape6">
            <desc shapeID="6" type="0" basicInfo-basicType="0" basicInfo-roundedRectRadius="12" basicInfo-polygonSides="6" basicInfo-starPoints="5" bounding="rect(-17.5654,-7.56348,35.1309,15.127)" text="PoS" font-familyName="Helvetica" font-pixelSize="20" font-bold="0" font-underline="0" font-alignment="1" strokeStyle="0" markerStart="0" markerEnd="0" shadowEnabled="0" shadowOffsetX="0" shadowOffsetY="2" shadowBlur="4" shadowOpacity="160" blurEnabled="0" blurRadius="4" transform="matrix(1,0,0,1,509.521,170.698)" pers-center="0,0" pers-size="0,0" pers-start="0,0" pers-end="0,0" locked="0" mesh="" flag=""/>
            <path id="shapePath6" d="M491.956,163.496 L498.411,163.496 C499.687,163.496 500.716,163.856 501.497,164.575 C502.278,165.295 502.669,166.305 502.669,167.607 C502.669,168.727 502.321,169.702 501.624,170.532 C500.927,171.362 499.856,171.777 498.411,171.777 L493.899,171.777 L493.899,177.842 L491.956,177.842 L491.956,163.496 M499.534,165.469 C499.104,165.267 498.515,165.166 497.767,165.166 L493.899,165.166 L493.899,170.137 L497.767,170.137 C498.639,170.137 499.347,169.951 499.891,169.58 C500.434,169.209 500.706,168.555 500.706,167.617 C500.706,166.563 500.315,165.846 499.534,165.469 M511.412,175.386 C511.845,174.504 512.062,173.522 512.062,172.441 C512.062,171.465 511.905,170.671 511.593,170.059 C511.098,169.095 510.245,168.613 509.034,168.613 C507.96,168.613 507.179,169.023 506.69,169.844 C506.202,170.664 505.958,171.654 505.958,172.813 C505.958,173.926 506.202,174.854 506.69,175.596 C507.179,176.338 507.953,176.709 509.015,176.709 C510.18,176.709 510.979,176.268 511.412,175.386 M512.501,168.428 C513.432,169.326 513.897,170.648 513.897,172.393 C513.897,174.079 513.487,175.472 512.667,176.572 C511.847,177.673 510.574,178.223 508.849,178.223 C507.41,178.223 506.267,177.736 505.421,176.763 C504.575,175.789 504.151,174.482 504.151,172.842 C504.151,171.084 504.597,169.684 505.489,168.643 C506.381,167.601 507.579,167.08 509.083,167.08 C510.431,167.08 511.57,167.529 512.501,168.428 M517.478,173.213 C517.523,174.027 517.715,174.688 518.054,175.195 C518.698,176.146 519.834,176.621 521.462,176.621 C522.191,176.621 522.855,176.517 523.454,176.309 C524.613,175.905 525.192,175.182 525.192,174.141 C525.192,173.359 524.948,172.803 524.46,172.471 C523.965,172.145 523.19,171.862 522.136,171.621 L520.192,171.182 C518.923,170.895 518.024,170.579 517.497,170.234 C516.586,169.635 516.13,168.74 516.13,167.549 C516.13,166.26 516.576,165.202 517.468,164.375 C518.36,163.548 519.623,163.135 521.257,163.135 C522.761,163.135 524.038,163.498 525.09,164.224 C526.141,164.95 526.667,166.11 526.667,167.705 L524.841,167.705 C524.743,166.937 524.535,166.348 524.216,165.938 C523.623,165.189 522.617,164.814 521.198,164.814 C520.052,164.814 519.229,165.055 518.728,165.537 C518.226,166.019 517.976,166.579 517.976,167.217 C517.976,167.92 518.269,168.434 518.854,168.76 C519.239,168.968 520.108,169.229 521.462,169.541 L523.474,170 C524.444,170.221 525.192,170.524 525.72,170.908 C526.631,171.579 527.087,172.552 527.087,173.828 C527.087,175.417 526.509,176.553 525.354,177.236 C524.198,177.92 522.855,178.262 521.325,178.262 C519.541,178.262 518.145,177.806 517.136,176.895 C516.127,175.99 515.632,174.762 515.651,173.213 L517.478,173.213 Z" style="stroke:none;fill-rule:nonzero;fill:#555555;fill-opacity:1;"/>
        </g>
        <g id="Shape7">
            <desc shapeID="7" type="0" basicInfo-basicType="0" basicInfo-roundedRectRadius="12" basicInfo-polygonSides="6" basicInfo-starPoints="5" bounding="rect(-42.708,-7.39746,85.416,14.7949)" text="Dividends" font-familyName="Helvetica" font-pixelSize="20" font-bold="0" font-underline="0" font-alignment="1" strokeStyle="0" markerStart="0" markerEnd="0" shadowEnabled="0" shadowOffsetX="0" shadowOffsetY="2" shadowBlur="4" shadowOpacity="160" blurEnabled="0" blurRadius="4" transform="matrix(1,0,0,1,534.664,234.102)" pers-center="0,0" pers-size="0,0" pers-start="0,0" pers-end="0,0" locked="0" mesh="" flag=""/>
            <path id="shapePath7" d="M497.376,239.439 C498.033,239.439 498.574,239.371 498.997,239.234 C499.752,238.98 500.371,238.492 500.852,237.769 C501.237,237.19 501.513,236.447 501.683,235.542 C501.78,235.002 501.829,234.501 501.829,234.038 C501.829,232.261 501.476,230.881 500.769,229.898 C500.063,228.915 498.925,228.423 497.356,228.423 L493.909,228.423 L493.909,239.439 L497.376,239.439 M491.956,226.753 L497.767,226.753 C499.739,226.753 501.269,227.453 502.356,228.853 C503.326,230.116 503.811,231.734 503.811,233.706 C503.811,235.23 503.525,236.607 502.952,237.837 C501.943,240.012 500.208,241.099 497.747,241.099 L491.956,241.099 L491.956,226.753 M506.071,230.689 L507.858,230.689 L507.858,241.099 L506.071,241.099 L506.071,230.689 M506.071,226.753 L507.858,226.753 L507.858,228.746 L506.071,228.746 L506.071,226.753 M511.368,230.64 L514.161,239.156 L517.081,230.64 L519.005,230.64 L515.06,241.099 L513.185,241.099 L509.327,230.64 L511.368,230.64 M520.509,230.689 L522.296,230.689 L522.296,241.099 L520.509,241.099 L520.509,230.689 M520.509,226.753 L522.296,226.753 L522.296,228.746 L520.509,228.746 L520.509,226.753 M526.772,238.804 C527.248,239.559 528.009,239.937 529.058,239.937 C529.871,239.937 530.54,239.587 531.064,238.887 C531.589,238.187 531.851,237.183 531.851,235.874 C531.851,234.553 531.58,233.575 531.04,232.94 C530.5,232.305 529.832,231.988 529.038,231.988 C528.153,231.988 527.435,232.326 526.885,233.003 C526.335,233.68 526.06,234.677 526.06,235.992 C526.06,237.111 526.297,238.049 526.772,238.804 M530.718,230.962 C531.03,231.158 531.385,231.499 531.782,231.988 L531.782,226.705 L533.472,226.705 L533.472,241.099 L531.89,241.099 L531.89,239.644 C531.479,240.288 530.994,240.754 530.435,241.04 C529.875,241.327 529.233,241.47 528.511,241.47 C527.345,241.47 526.336,240.98 525.483,240 C524.63,239.021 524.204,237.717 524.204,236.089 C524.204,234.566 524.593,233.246 525.371,232.129 C526.149,231.013 527.261,230.455 528.706,230.455 C529.507,230.455 530.177,230.624 530.718,230.962 M542.569,230.928 C543.266,231.276 543.797,231.727 544.161,232.281 C544.513,232.808 544.747,233.423 544.864,234.126 C544.968,234.608 545.02,235.376 545.02,236.431 L537.354,236.431 C537.387,237.492 537.638,238.344 538.106,238.985 C538.575,239.626 539.301,239.947 540.284,239.947 C541.202,239.947 541.935,239.644 542.481,239.038 C542.794,238.687 543.015,238.28 543.145,237.818 L544.874,237.818 C544.828,238.202 544.677,238.63 544.42,239.102 C544.163,239.574 543.875,239.96 543.556,240.259 C543.022,240.78 542.361,241.132 541.573,241.314 C541.15,241.418 540.672,241.47 540.138,241.47 C538.836,241.47 537.732,240.997 536.827,240.049 C535.922,239.102 535.47,237.775 535.47,236.07 C535.47,234.39 535.925,233.026 536.837,231.978 C537.748,230.93 538.94,230.406 540.411,230.406 C541.153,230.406 541.873,230.58 542.569,230.928 M543.214,235.035 C543.142,234.273 542.976,233.664 542.716,233.208 C542.234,232.362 541.43,231.939 540.304,231.939 C539.496,231.939 538.819,232.23 538.272,232.813 C537.726,233.396 537.436,234.136 537.403,235.035 L543.214,235.035 M547.165,230.64 L548.835,230.64 L548.835,232.124 C549.33,231.512 549.854,231.073 550.407,230.806 C550.961,230.539 551.576,230.406 552.253,230.406 C553.737,230.406 554.74,230.923 555.261,231.958 C555.547,232.525 555.69,233.335 555.69,234.39 L555.69,241.099 L553.903,241.099 L553.903,234.507 C553.903,233.869 553.809,233.355 553.62,232.964 C553.308,232.313 552.741,231.988 551.921,231.988 C551.504,231.988 551.162,232.03 550.895,232.115 C550.414,232.258 549.99,232.544 549.626,232.974 C549.333,233.319 549.143,233.676 549.055,234.043 C548.967,234.411 548.923,234.937 548.923,235.621 L548.923,241.099 L547.165,241.099 L547.165,230.64 M560.101,238.804 C560.576,239.559 561.338,239.937 562.386,239.937 C563.199,239.937 563.868,239.587 564.393,238.887 C564.917,238.187 565.179,237.183 565.179,235.874 C565.179,234.553 564.908,233.575 564.368,232.94 C563.828,232.305 563.16,231.988 562.366,231.988 C561.481,231.988 560.763,232.326 560.213,233.003 C559.663,233.68 559.388,234.677 559.388,235.992 C559.388,237.111 559.625,238.049 560.101,238.804 M564.046,230.962 C564.358,231.158 564.713,231.499 565.11,231.988 L565.11,226.705 L566.8,226.705 L566.8,241.099 L565.218,241.099 L565.218,239.644 C564.808,240.288 564.323,240.754 563.763,241.04 C563.203,241.327 562.561,241.47 561.839,241.47 C560.673,241.47 559.664,240.98 558.811,240 C557.959,239.021 557.532,237.717 557.532,236.089 C557.532,234.566 557.921,233.246 558.699,232.129 C559.477,231.013 560.589,230.455 562.034,230.455 C562.835,230.455 563.505,230.624 564.046,230.962 M570.429,237.818 C570.481,238.404 570.627,238.853 570.868,239.165 C571.311,239.732 572.079,240.015 573.173,240.015 C573.824,240.015 574.397,239.873 574.892,239.59 C575.386,239.307 575.634,238.869 575.634,238.277 C575.634,237.828 575.435,237.486 575.038,237.251 C574.784,237.108 574.283,236.942 573.534,236.753 L572.138,236.402 C571.246,236.18 570.588,235.933 570.165,235.66 C569.41,235.184 569.032,234.527 569.032,233.687 C569.032,232.697 569.389,231.897 570.102,231.285 C570.814,230.673 571.773,230.367 572.977,230.367 C574.553,230.367 575.689,230.829 576.386,231.753 C576.822,232.339 577.033,232.971 577.02,233.648 L575.36,233.648 C575.328,233.251 575.188,232.889 574.94,232.564 C574.537,232.102 573.837,231.871 572.841,231.871 C572.177,231.871 571.674,231.997 571.332,232.251 C570.99,232.505 570.819,232.841 570.819,233.257 C570.819,233.713 571.044,234.078 571.493,234.351 C571.754,234.514 572.138,234.657 572.645,234.781 L573.808,235.064 C575.071,235.37 575.917,235.666 576.347,235.953 C577.03,236.402 577.372,237.108 577.372,238.072 C577.372,239.003 577.019,239.807 576.312,240.484 C575.606,241.161 574.53,241.499 573.085,241.499 C571.529,241.499 570.427,241.146 569.779,240.44 C569.131,239.733 568.785,238.859 568.739,237.818 L570.429,237.818 Z" style="stroke:none;fill-rule:nonzero;fill:#555555;fill-opacity:1;"/>
        </g>
        <g id="Shape8">
            <desc shapeID="8" type="0" basicInfo-basicType="0" basicInfo-roundedRectRadius="12" basicInfo-polygonSides="6" basicInfo-starPoints="5" bounding="rect(-22.9277,-7.38281,45.8555,14.7656)" text="Fixed" font-familyName="Helvetica" font-pixelSize="20" font-bold="0" font-underline="0" font-alignment="1" strokeStyle="0" markerStart="0" markerEnd="0" shadowEnabled="0" shadowOffsetX="0" shadowOffsetY="2" shadowBlur="4" shadowOpacity="160" blurEnabled="0" blurRadius="4" transform="matrix(1,0,0,1,509.696,107.502)" pers-center="0,0" pers-size="0,0" pers-start="0,0" pers-end="0,0" locked="0" mesh="" flag=""/>
            <path id="shapePath8" d="M486.769,100.168 L496.72,100.168 L496.72,101.926 L488.712,101.926 L488.712,106.281 L495.753,106.281 L495.753,107.99 L488.712,107.99 L488.712,114.514 L486.769,114.514 L486.769,100.168 M498.552,104.103 L500.339,104.103 L500.339,114.514 L498.552,114.514 L498.552,104.103 M498.552,100.168 L500.339,100.168 L500.339,102.16 L498.552,102.16 L498.552,100.168 M501.993,104.055 L504.269,104.055 L506.671,107.736 L509.103,104.055 L511.241,104.103 L507.716,109.152 L511.398,114.514 L509.151,114.514 L506.554,110.588 L504.034,114.514 L501.808,114.514 L505.489,109.152 L501.993,104.055 M519.503,104.343 C520.2,104.691 520.73,105.142 521.095,105.695 C521.446,106.223 521.681,106.838 521.798,107.541 C521.902,108.023 521.954,108.791 521.954,109.846 L514.288,109.846 C514.321,110.907 514.571,111.758 515.04,112.399 C515.509,113.041 516.235,113.361 517.218,113.361 C518.136,113.361 518.868,113.059 519.415,112.453 C519.728,112.102 519.949,111.695 520.079,111.232 L521.808,111.232 C521.762,111.617 521.611,112.045 521.354,112.517 C521.096,112.989 520.808,113.374 520.489,113.674 C519.955,114.195 519.295,114.546 518.507,114.728 C518.084,114.833 517.605,114.885 517.071,114.885 C515.769,114.885 514.666,114.411 513.761,113.464 C512.856,112.517 512.403,111.19 512.403,109.484 C512.403,107.805 512.859,106.441 513.771,105.393 C514.682,104.344 515.873,103.82 517.345,103.82 C518.087,103.82 518.806,103.994 519.503,104.343 M520.148,108.449 C520.076,107.687 519.91,107.079 519.649,106.623 C519.168,105.777 518.364,105.353 517.237,105.353 C516.43,105.353 515.753,105.645 515.206,106.228 C514.659,106.81 514.37,107.551 514.337,108.449 L520.148,108.449 M525.925,112.219 C526.4,112.974 527.162,113.352 528.21,113.352 C529.024,113.352 529.693,113.002 530.217,112.302 C530.741,111.602 531.003,110.598 531.003,109.289 C531.003,107.967 530.733,106.989 530.192,106.354 C529.652,105.72 528.985,105.402 528.19,105.402 C527.305,105.402 526.587,105.741 526.037,106.418 C525.487,107.095 525.212,108.091 525.212,109.406 C525.212,110.526 525.45,111.464 525.925,112.219 M529.87,104.377 C530.183,104.572 530.537,104.914 530.935,105.402 L530.935,100.119 L532.624,100.119 L532.624,114.514 L531.042,114.514 L531.042,113.059 C530.632,113.703 530.147,114.169 529.587,114.455 C529.027,114.742 528.386,114.885 527.663,114.885 C526.498,114.885 525.489,114.395 524.636,113.415 C523.783,112.435 523.357,111.131 523.357,109.504 C523.357,107.98 523.745,106.66 524.523,105.544 C525.302,104.427 526.413,103.869 527.858,103.869 C528.659,103.869 529.33,104.038 529.87,104.377 Z" style="stroke:none;fill-rule:nonzero;fill:#555555;fill-opacity:1;"/>
        </g>
        <g id="Shape9">
            <desc shapeID="9" type="0" basicInfo-basicType="0" basicInfo-roundedRectRadius="12" basicInfo-polygonSides="6" basicInfo-starPoints="5" bounding="rect(-20.123,-7.34863,40.2461,14.6973)" text="Final" font-familyName="Helvetica" font-pixelSize="20" font-bold="0" font-underline="0" font-alignment="1" strokeStyle="0" markerStart="0" markerEnd="0" shadowEnabled="0" shadowOffsetX="0" shadowOffsetY="2" shadowBlur="4" shadowOpacity="160" blurEnabled="0" blurRadius="4" transform="matrix(1,0,0,1,512.079,301.738)" pers-center="0,0" pers-size="0,0" pers-start="0,0" pers-end="0,0" locked="0" mesh="" flag=""/>
            <path id="shapePath9" d="M491.956,294.39 L501.907,294.39 L501.907,296.147 L493.899,296.147 L493.899,300.503 L500.94,300.503 L500.94,302.212 L493.899,302.212 L493.899,308.735 L491.956,308.735 L491.956,294.39 M503.739,298.325 L505.526,298.325 L505.526,308.735 L503.739,308.735 L503.739,298.325 M503.739,294.39 L505.526,294.39 L505.526,296.382 L503.739,296.382 L503.739,294.39 M508.177,298.276 L509.847,298.276 L509.847,299.761 C510.341,299.149 510.866,298.709 511.419,298.442 C511.972,298.175 512.588,298.042 513.265,298.042 C514.749,298.042 515.752,298.56 516.272,299.595 C516.559,300.161 516.702,300.972 516.702,302.026 L516.702,308.735 L514.915,308.735 L514.915,302.144 C514.915,301.506 514.821,300.991 514.632,300.601 C514.319,299.95 513.753,299.624 512.933,299.624 C512.516,299.624 512.174,299.666 511.907,299.751 C511.425,299.894 511.002,300.181 510.638,300.61 C510.345,300.955 510.154,301.312 510.066,301.68 C509.979,302.048 509.935,302.573 509.935,303.257 L509.935,308.735 L508.177,308.735 L508.177,298.276 M521.19,307.153 C521.562,307.446 522.001,307.593 522.509,307.593 C523.127,307.593 523.726,307.45 524.306,307.163 C525.282,306.688 525.771,305.91 525.771,304.829 L525.771,303.413 C525.556,303.55 525.279,303.664 524.94,303.755 C524.602,303.846 524.27,303.911 523.944,303.95 L522.88,304.087 C522.242,304.172 521.763,304.305 521.444,304.487 C520.904,304.793 520.634,305.282 520.634,305.952 C520.634,306.46 520.819,306.86 521.19,307.153 M524.892,302.397 C525.295,302.345 525.565,302.176 525.702,301.89 C525.78,301.733 525.819,301.509 525.819,301.216 C525.819,300.617 525.606,300.182 525.18,299.912 C524.753,299.642 524.143,299.507 523.349,299.507 C522.431,299.507 521.78,299.754 521.396,300.249 C521.181,300.522 521.041,300.929 520.976,301.47 L519.335,301.47 C519.367,300.181 519.786,299.284 520.59,298.779 C521.394,298.275 522.326,298.022 523.388,298.022 C524.618,298.022 525.617,298.257 526.386,298.726 C527.147,299.194 527.528,299.924 527.528,300.913 L527.528,306.939 C527.528,307.121 527.566,307.267 527.641,307.378 C527.716,307.489 527.873,307.544 528.114,307.544 C528.192,307.544 528.28,307.539 528.378,307.529 C528.476,307.52 528.58,307.505 528.69,307.485 L528.69,308.784 C528.417,308.862 528.209,308.911 528.065,308.931 C527.922,308.95 527.727,308.96 527.479,308.96 C526.874,308.96 526.435,308.745 526.161,308.315 C526.018,308.088 525.917,307.765 525.858,307.349 C525.5,307.817 524.986,308.224 524.315,308.569 C523.645,308.914 522.906,309.087 522.099,309.087 C521.129,309.087 520.336,308.792 519.721,308.203 C519.105,307.614 518.798,306.877 518.798,305.991 C518.798,305.021 519.101,304.269 519.706,303.735 C520.312,303.202 521.106,302.873 522.089,302.749 L524.892,302.397 M530.444,294.39 L532.202,294.39 L532.202,308.735 L530.444,308.735 L530.444,294.39 Z" style="stroke:none;fill-rule:nonzero;fill:#555555;fill-opacity:1;"/>
        </g>
        <g id="Shape10">
            <desc shapeID="10" type="0" basicInfo-basicType="0" basicInfo-roundedRectRadius="12" basicInfo-polygonSides="6" basicInfo-starPoints="5" bounding="rect(-47.8955,-9.25781,95.791,18.5156)" text="Replication" font-familyName="Helvetica" font-pixelSize="20" font-bold="0" font-underline="0" font-alignment="1" strokeStyle="0" markerStart="0" markerEnd="0" shadowEnabled="0" shadowOffsetX="0" shadowOffsetY="2" shadowBlur="4" shadowOpacity="160" blurEnabled="0" blurRadius="4" transform="matrix(1,0,0,1,539.852,367.596)" pers-center="0,0" pers-size="0,0" pers-start="0,0" pers-end="0,0" locked="0" mesh="" flag=""/>
            <path id="shapePath10" d="M498.392,364.911 C499.303,364.911 500.024,364.728 500.555,364.364 C501.085,363.999 501.351,363.342 501.351,362.391 C501.351,361.369 500.979,360.672 500.237,360.301 C499.84,360.106 499.31,360.008 498.646,360.008 L493.899,360.008 L493.899,364.911 L498.392,364.911 M491.956,358.338 L498.597,358.338 C499.69,358.338 500.592,358.498 501.302,358.817 C502.649,359.429 503.323,360.559 503.323,362.206 C503.323,363.065 503.146,363.768 502.791,364.315 C502.436,364.862 501.94,365.301 501.302,365.633 C501.862,365.861 502.283,366.161 502.566,366.532 C502.85,366.903 503.007,367.505 503.04,368.338 L503.108,370.262 C503.128,370.809 503.173,371.216 503.245,371.483 C503.362,371.939 503.571,372.232 503.87,372.362 L503.87,372.684 L501.487,372.684 C501.422,372.56 501.37,372.401 501.331,372.206 C501.292,372.01 501.259,371.633 501.233,371.073 L501.116,368.68 C501.071,367.743 500.722,367.115 500.071,366.796 C499.7,366.62 499.118,366.532 498.323,366.532 L493.899,366.532 L493.899,372.684 L491.956,372.684 L491.956,358.338 M512.438,362.513 C513.135,362.862 513.666,363.312 514.03,363.866 C514.382,364.393 514.616,365.008 514.733,365.712 C514.838,366.193 514.89,366.962 514.89,368.016 L507.224,368.016 C507.256,369.077 507.507,369.929 507.976,370.57 C508.444,371.211 509.17,371.532 510.153,371.532 C511.071,371.532 511.804,371.229 512.351,370.624 C512.663,370.272 512.884,369.865 513.015,369.403 L514.743,369.403 C514.698,369.787 514.546,370.215 514.289,370.687 C514.032,371.159 513.744,371.545 513.425,371.844 C512.891,372.365 512.23,372.717 511.442,372.899 C511.019,373.003 510.541,373.055 510.007,373.055 C508.705,373.055 507.601,372.582 506.696,371.634 C505.791,370.687 505.339,369.361 505.339,367.655 C505.339,365.975 505.795,364.611 506.706,363.563 C507.618,362.515 508.809,361.991 510.28,361.991 C511.022,361.991 511.742,362.165 512.438,362.513 M513.083,366.62 C513.011,365.858 512.845,365.249 512.585,364.794 C512.103,363.947 511.299,363.524 510.173,363.524 C509.366,363.524 508.688,363.815 508.142,364.398 C507.595,364.981 507.305,365.721 507.272,366.62 L513.083,366.62 M523.494,370.472 C524.038,369.785 524.31,368.758 524.31,367.391 C524.31,366.558 524.189,365.842 523.948,365.243 C523.492,364.09 522.659,363.514 521.448,363.514 C520.231,363.514 519.397,364.123 518.948,365.34 C518.707,365.991 518.587,366.818 518.587,367.821 C518.587,368.628 518.707,369.315 518.948,369.881 C519.404,370.962 520.237,371.503 521.448,371.503 C522.269,371.503 522.951,371.159 523.494,370.472 M516.897,362.274 L518.606,362.274 L518.606,363.661 C518.958,363.185 519.342,362.818 519.759,362.557 C520.351,362.167 521.048,361.971 521.849,361.971 C523.034,361.971 524.039,362.425 524.866,363.334 C525.693,364.242 526.106,365.539 526.106,367.225 C526.106,369.504 525.511,371.131 524.319,372.108 C523.564,372.727 522.685,373.036 521.683,373.036 C520.895,373.036 520.234,372.863 519.7,372.518 C519.388,372.323 519.039,371.988 518.655,371.512 L518.655,376.854 L516.897,376.854 L516.897,362.274 M528.192,358.338 L529.95,358.338 L529.95,372.684 L528.192,372.684 L528.192,358.338 M532.581,362.274 L534.368,362.274 L534.368,372.684 L532.581,372.684 L532.581,362.274 M532.581,358.338 L534.368,358.338 L534.368,360.331 L532.581,360.331 L532.581,358.338 M543.928,362.782 C544.667,363.355 545.111,364.341 545.261,365.741 L543.552,365.741 C543.448,365.096 543.21,364.561 542.839,364.134 C542.468,363.708 541.872,363.495 541.052,363.495 C539.932,363.495 539.131,364.042 538.649,365.135 C538.337,365.845 538.181,366.721 538.181,367.762 C538.181,368.81 538.402,369.693 538.845,370.409 C539.287,371.125 539.984,371.483 540.935,371.483 C541.664,371.483 542.242,371.26 542.668,370.814 C543.094,370.368 543.389,369.758 543.552,368.983 L545.261,368.983 C545.065,370.37 544.577,371.384 543.796,372.025 C543.015,372.666 542.015,372.987 540.798,372.987 C539.431,372.987 538.34,372.487 537.526,371.488 C536.713,370.489 536.306,369.24 536.306,367.743 C536.306,365.907 536.752,364.478 537.644,363.456 C538.535,362.434 539.672,361.922 541.052,361.922 C542.23,361.922 543.189,362.209 543.928,362.782 M548.923,371.102 C549.294,371.395 549.733,371.542 550.241,371.542 C550.86,371.542 551.459,371.398 552.038,371.112 C553.015,370.637 553.503,369.859 553.503,368.778 L553.503,367.362 C553.288,367.499 553.011,367.613 552.673,367.704 C552.334,367.795 552.002,367.86 551.677,367.899 L550.612,368.036 C549.974,368.12 549.496,368.254 549.177,368.436 C548.636,368.742 548.366,369.23 548.366,369.901 C548.366,370.409 548.552,370.809 548.923,371.102 M552.624,366.346 C553.028,366.294 553.298,366.125 553.435,365.838 C553.513,365.682 553.552,365.458 553.552,365.165 C553.552,364.566 553.339,364.131 552.912,363.861 C552.486,363.591 551.875,363.456 551.081,363.456 C550.163,363.456 549.512,363.703 549.128,364.198 C548.913,364.471 548.773,364.878 548.708,365.419 L547.067,365.419 C547.1,364.129 547.518,363.233 548.322,362.728 C549.126,362.224 550.059,361.971 551.12,361.971 C552.351,361.971 553.35,362.206 554.118,362.674 C554.88,363.143 555.261,363.872 555.261,364.862 L555.261,370.887 C555.261,371.07 555.298,371.216 555.373,371.327 C555.448,371.437 555.606,371.493 555.847,371.493 C555.925,371.493 556.013,371.488 556.11,371.478 C556.208,371.468 556.312,371.454 556.423,371.434 L556.423,372.733 C556.149,372.811 555.941,372.86 555.798,372.879 C555.655,372.899 555.459,372.909 555.212,372.909 C554.606,372.909 554.167,372.694 553.894,372.264 C553.75,372.036 553.649,371.714 553.591,371.297 C553.233,371.766 552.718,372.173 552.048,372.518 C551.377,372.863 550.638,373.036 549.831,373.036 C548.861,373.036 548.068,372.741 547.453,372.152 C546.838,371.563 546.53,370.825 546.53,369.94 C546.53,368.97 546.833,368.218 547.438,367.684 C548.044,367.15 548.838,366.822 549.821,366.698 L552.624,366.346 M558.479,359.305 L560.257,359.305 L560.257,362.225 L561.927,362.225 L561.927,363.661 L560.257,363.661 L560.257,370.487 C560.257,370.852 560.381,371.096 560.628,371.219 C560.765,371.291 560.992,371.327 561.312,371.327 C561.396,371.327 561.487,371.325 561.585,371.322 C561.683,371.319 561.797,371.31 561.927,371.297 L561.927,372.684 C561.725,372.743 561.515,372.785 561.297,372.811 C561.079,372.837 560.843,372.85 560.589,372.85 C559.769,372.85 559.212,372.64 558.919,372.22 C558.626,371.8 558.479,371.255 558.479,370.585 L558.479,363.661 L557.063,363.661 L557.063,362.225 L558.479,362.225 L558.479,359.305 M563.675,362.274 L565.462,362.274 L565.462,372.684 L563.675,372.684 L563.675,362.274 M563.675,358.338 L565.462,358.338 L565.462,360.331 L563.675,360.331 L563.675,358.338 M574.66,370.228 C575.093,369.346 575.31,368.365 575.31,367.284 C575.31,366.307 575.153,365.513 574.841,364.901 C574.346,363.937 573.493,363.456 572.282,363.456 C571.208,363.456 570.427,363.866 569.938,364.686 C569.45,365.506 569.206,366.496 569.206,367.655 C569.206,368.768 569.45,369.696 569.938,370.438 C570.427,371.18 571.201,371.551 572.263,371.551 C573.428,371.551 574.227,371.11 574.66,370.228 M575.749,363.27 C576.68,364.169 577.146,365.49 577.146,367.235 C577.146,368.921 576.735,370.314 575.915,371.415 C575.095,372.515 573.822,373.065 572.097,373.065 C570.658,373.065 569.515,372.578 568.669,371.605 C567.823,370.632 567.399,369.325 567.399,367.684 C567.399,365.926 567.845,364.527 568.737,363.485 C569.629,362.443 570.827,361.922 572.331,361.922 C573.679,361.922 574.818,362.372 575.749,363.27 M579.222,362.225 L580.892,362.225 L580.892,363.71 C581.386,363.098 581.91,362.658 582.464,362.391 C583.017,362.124 583.633,361.991 584.31,361.991 C585.794,361.991 586.797,362.508 587.317,363.544 C587.604,364.11 587.747,364.921 587.747,365.975 L587.747,372.684 L585.96,372.684 L585.96,366.092 C585.96,365.454 585.866,364.94 585.677,364.549 C585.364,363.898 584.798,363.573 583.978,363.573 C583.561,363.573 583.219,363.615 582.952,363.7 C582.47,363.843 582.047,364.129 581.683,364.559 C581.39,364.904 581.199,365.261 581.111,365.629 C581.023,365.996 580.979,366.522 580.979,367.206 L580.979,372.684 L579.222,372.684 L579.222,362.225 Z" style="stroke:none;fill-rule:nonzero;fill:#555555;fill-opacity:1;"/>
        </g>
        <g id="Shape11">
            <desc shapeID="11" type="0" basicInfo-basicType="1" basicInfo-roundedRectRadius="12" basicInfo-polygonSides="6" basicInfo-starPoints="5" bounding="rect(-51.8729,-21.9585,103.746,43.9169)" text="" font-familyName="Helvetica" font-pixelSize="38" font-bold="0" font-underline="0" font-alignment="1" strokeStyle="0" markerStart="0" markerEnd="0" shadowEnabled="0" shadowOffsetX="0" shadowOffsetY="2" shadowBlur="4" shadowOpacity="160" blurEnabled="0" blurRadius="4" transform="matrix(-0.80251,-0.535727,0.0241472,-0.0361721,189.944,162.045)" pers-center="0,0" pers-size="0,0" pers-start="0,0" pers-end="0,0" locked="0" mesh="" flag=""/>
            <path id="shapePath11" d="M231.043,190.63 L147.786,135.05 L148.846,133.462 L232.103,189.041 L231.043,190.63 Z" style="stroke:none;fill-rule:evenodd;fill:#555555;fill-opacity:1;"/>
        </g>
        <g id="Shape12">
            <desc shapeID="12" type="0" basicInfo-basicType="1" basicInfo-roundedRectRadius="12" basicInfo-polygonSides="6" basicInfo-starPoints="5" bounding="rect(-51.8729,-21.9585,103.746,43.9169)" text="" font-familyName="Helvetica" font-pixelSize="38" font-bold="0" font-underline="0" font-alignment="1" strokeStyle="0" markerStart="0" markerEnd="0" shadowEnabled="0" shadowOffsetX="0" shadowOffsetY="2" shadowBlur="4" shadowOpacity="160" blurEnabled="0" blurRadius="4" transform="matrix(-0.752949,0.603402,-0.0271976,-0.0339382,189.944,314.714)" pers-center="0,0" pers-size="0,0" pers-start="0,0" pers-end="0,0" locked="0" mesh="" flag=""/>
            <path id="shapePath12" d="M229.599,284.159 L151.484,346.76 L150.29,345.269 L228.405,282.669 L229.599,284.159 Z" style="stroke:none;fill-rule:evenodd;fill:#555555;fill-opacity:1;"/>
        </g>
        <g id="Shape13">
            <desc shapeID="13" type="0" basicInfo-basicType="1" basicInfo-roundedRectRadius="12" basicInfo-polygonSides="6" basicInfo-starPoints="5" bounding="rect(-51.8729,-21.9585,103.746,43.9169)" text="" font-familyName="Helvetica" font-pixelSize="38" font-bold="0" font-underline="0" font-alignment="1" strokeStyle="0" markerStart="0" markerEnd="0" shadowEnabled="0" shadowOffsetX="0" shadowOffsetY="2" shadowBlur="4" shadowOpacity="160" blurEnabled="0" blurRadius="4" transform="matrix(-0.734093,0.00601863,-0.000356589,-0.04349,185.873,240.028)" pers-center="0,0" pers-size="0,0" pers-start="0,0" pers-end="0,0" locked="0" mesh="" flag=""/>
            <path id="shapePath13" d="M223.96,240.671 L147.801,241.295 L147.786,239.385 L223.945,238.761 L223.96,240.671 Z" style="stroke:none;fill-rule:evenodd;fill:#555555;fill-opacity:1;"/>
        </g>
        <g id="Shape14">
            <desc shapeID="14" type="0" basicInfo-basicType="1" basicInfo-roundedRectRadius="12" basicInfo-polygonSides="6" basicInfo-starPoints="5" bounding="rect(-51.8729,-21.9585,103.746,43.9169)" text="" font-familyName="Helvetica" font-pixelSize="38" font-bold="0" font-underline="0" font-alignment="1" strokeStyle="0" markerStart="0" markerEnd="0" shadowEnabled="0" shadowOffsetX="0" shadowOffsetY="2" shadowBlur="4" shadowOpacity="160" blurEnabled="0" blurRadius="4" transform="matrix(-0.570962,0.00468116,-0.000356589,-0.04349,449.838,237.424)" pers-center="0,0" pers-size="0,0" pers-start="0,0" pers-end="0,0" locked="0" mesh="" flag=""/>
            <path id="shapePath14" d="M479.464,238.137 L420.229,238.622 L420.214,236.712 L479.448,236.227 L479.464,238.137 Z" style="stroke:none;fill-rule:evenodd;fill:#555555;fill-opacity:1;"/>
        </g>
        <g id="Shape15">
            <desc shapeID="15" type="0" basicInfo-basicType="1" basicInfo-roundedRectRadius="12" basicInfo-polygonSides="6" basicInfo-starPoints="5" bounding="rect(-51.8729,-21.9585,103.746,43.9169)" text="" font-familyName="Helvetica" font-pixelSize="38" font-bold="0" font-underline="0" font-alignment="1" strokeStyle="0" markerStart="0" markerEnd="0" shadowEnabled="0" shadowOffsetX="0" shadowOffsetY="2" shadowBlur="4" shadowOpacity="160" blurEnabled="0" blurRadius="4" transform="matrix(-0.653251,0.33495,-0.0198435,-0.0387007,443.434,194.426)" pers-center="0,0" pers-size="0,0" pers-start="0,0" pers-end="0,0" locked="0" mesh="" flag=""/>
            <path id="shapePath15" d="M477.756,177.901 L409.984,212.65 L409.112,210.951 L476.884,176.201 L477.756,177.901 Z" style="stroke:none;fill-rule:evenodd;fill:#555555;fill-opacity:1;"/>
        </g>
        <g id="Shape16">
            <desc shapeID="16" type="0" basicInfo-basicType="1" basicInfo-roundedRectRadius="12" basicInfo-polygonSides="6" basicInfo-starPoints="5" bounding="rect(-51.8729,-21.9585,103.746,43.9169)" text="" font-familyName="Helvetica" font-pixelSize="38" font-bold="0" font-underline="0" font-alignment="1" strokeStyle="0" markerStart="0" markerEnd="0" shadowEnabled="0" shadowOffsetX="0" shadowOffsetY="2" shadowBlur="4" shadowOpacity="160" blurEnabled="0" blurRadius="4" transform="matrix(-0.497476,0.539858,-0.0319829,-0.029472,443.434,151.117)" pers-center="0,0" pers-size="0,0" pers-start="0,0" pers-end="0,0" locked="0" mesh="" flag=""/>
            <path id="shapePath16" d="M469.942,123.761 L418.331,179.769 L416.927,178.474 L468.538,122.466 L469.942,123.761 Z" style="stroke:none;fill-rule:evenodd;fill:#555555;fill-opacity:1;"/>
        </g>
        <g id="Shape17">
            <desc shapeID="17" type="0" basicInfo-basicType="1" basicInfo-roundedRectRadius="12" basicInfo-polygonSides="6" basicInfo-starPoints="5" bounding="rect(-51.8729,-21.9585,103.746,43.9169)" text="" font-familyName="Helvetica" font-pixelSize="38" font-bold="0" font-underline="0" font-alignment="1" strokeStyle="0" markerStart="0" markerEnd="0" shadowEnabled="0" shadowOffsetX="0" shadowOffsetY="2" shadowBlur="4" shadowOpacity="160" blurEnabled="0" blurRadius="4" transform="matrix(0.66323,0.314729,-0.0186455,0.0392919,444.651,284.55)" pers-center="0,0" pers-size="0,0" pers-start="0,0" pers-end="0,0" locked="0" mesh="" flag=""/>
            <path id="shapePath17" d="M410.657,267.361 L479.464,300.013 L478.645,301.738 L409.838,269.087 L410.657,267.361 Z" style="stroke:none;fill-rule:evenodd;fill:#555555;fill-opacity:1;"/>
        </g>
        <g id="Shape18">
            <desc shapeID="18" type="0" basicInfo-basicType="1" basicInfo-roundedRectRadius="12" basicInfo-polygonSides="6" basicInfo-starPoints="5" bounding="rect(-51.8729,-21.9585,103.746,43.9169)" text="" font-familyName="Helvetica" font-pixelSize="38" font-bold="0" font-underline="0" font-alignment="1" strokeStyle="0" markerStart="0" markerEnd="0" shadowEnabled="0" shadowOffsetX="0" shadowOffsetY="2" shadowBlur="4" shadowOpacity="160" blurEnabled="0" blurRadius="4" transform="matrix(0.540613,0.496655,-0.0294234,0.0320276,449.56,331.344)" pers-center="0,0" pers-size="0,0" pers-start="0,0" pers-end="0,0" locked="0" mesh="" flag=""/>
            <path id="shapePath18" d="M422.163,304.878 L478.249,356.404 L476.957,357.81 L420.871,306.284 L422.163,304.878 Z" style="stroke:none;fill-rule:evenodd;fill:#555555;fill-opacity:1;"/>
        </g>
    </g>
</svg>
