<?xml version="1.0"?>
<svg version="1.1" xmlns="http://www.w3.org/2000/svg" xmlns:xlink="http://www.w3.org/1999/xlink" width="640" height="480">
    <desc iVinci="yes" version="4.6" gridStep="20" showGrid="no" snapToGrid="no" codePlatform="0"/>
    <g id="Layer1" name="Layer 1" opacity="1">
        <g id="Shape1">
            <desc shapeID="1" type="0" basicInfo-basicType="1" basicInfo-roundedRectRadius="12" basicInfo-polygonSides="6" basicInfo-starPoints="5" bounding="rect(-76.3772,-61.7383,152.754,123.477)" text="" font-familyName="Helvetica" font-pixelSize="20" font-bold="0" font-underline="0" font-alignment="1" strokeStyle="0" markerStart="0" markerEnd="0" shadowEnabled="0" shadowOffsetX="0" shadowOffsetY="2" shadowBlur="4" shadowOpacity="160" blurEnabled="0" blurRadius="4" transform="matrix(1,0,0,1,321.061,241.513)" pers-center="0,0" pers-size="0,0" pers-start="0,0" pers-end="0,0" locked="0" mesh="" flag=""/>
            <path id="shapePath1" d="M244.684,179.775 L397.438,179.775 L397.438,303.252 L244.684,303.252 L244.684,179.775 Z" style="stroke:none;fill-rule:evenodd;fill:#555555;fill-opacity:1;"/>
        </g>
        <g id="Shape2">
            <desc shapeID="2" type="2" basicInfo-basicType="0" basicInfo-roundedRectRadius="12" basicInfo-polygonSides="6" basicInfo-starPoints="5" bounding="rect(-48.6086,-34.1295,97.2173,68.2589)" text="RPR" font-familyName="Helvetica" font-pixelSize="38" font-bold="0" font-underline="0" font-alignment="1" strokeStyle="0" markerStart="0" markerEnd="0" shadowEnabled="0" shadowOffsetX="0" shadowOffsetY="2" shadowBlur="4" shadowOpacity="160" blurEnabled="0" blurRadius="4" transform="matrix(1,0,0,1,319.62,245.017)" pers-center="0,0" pers-size="0,0" pers-start="0,0" pers-end="0,0" locked="0" mesh="" flag=""/>
            <path id="shapePath2" d="M295.078,240.372 C296.81,240.372 298.18,240.026 299.188,239.333 C300.196,238.641 300.7,237.391 300.7,235.585 C300.7,233.643 299.995,232.32 298.585,231.615 C297.83,231.243 296.822,231.058 295.56,231.058 L286.543,231.058 L286.543,240.372 L295.078,240.372 M282.85,227.885 L295.468,227.885 C297.546,227.885 299.259,228.188 300.607,228.794 C303.168,229.957 304.448,232.103 304.448,235.233 C304.448,236.865 304.111,238.201 303.437,239.24 C302.763,240.28 301.82,241.115 300.607,241.745 C301.671,242.178 302.472,242.747 303.01,243.452 C303.548,244.157 303.848,245.302 303.91,246.885 L304.04,250.54 C304.077,251.579 304.164,252.352 304.3,252.86 C304.522,253.726 304.918,254.282 305.487,254.53 L305.487,255.142 L300.96,255.142 C300.836,254.907 300.737,254.604 300.663,254.233 C300.589,253.862 300.527,253.144 300.477,252.08 L300.255,247.534 C300.168,245.753 299.506,244.559 298.269,243.953 C297.564,243.619 296.457,243.452 294.948,243.452 L286.543,243.452 L286.543,255.142 L282.85,255.142 L282.85,227.885 M310.195,227.885 L322.46,227.885 C324.884,227.885 326.839,228.568 328.323,229.935 C329.807,231.302 330.55,233.223 330.55,235.697 C330.55,237.824 329.888,239.677 328.564,241.254 C327.241,242.831 325.206,243.619 322.46,243.619 L313.888,243.619 L313.888,255.142 L310.195,255.142 L310.195,227.885 M324.594,231.633 C323.777,231.25 322.658,231.058 321.235,231.058 L313.888,231.058 L313.888,240.502 L321.235,240.502 C322.893,240.502 324.238,240.15 325.271,239.445 C326.304,238.74 326.82,237.496 326.82,235.715 C326.82,233.711 326.078,232.351 324.594,231.633 M347.859,240.372 C349.591,240.372 350.961,240.026 351.969,239.333 C352.977,238.641 353.481,237.391 353.481,235.585 C353.481,233.643 352.776,232.32 351.366,231.615 C350.612,231.243 349.603,231.058 348.342,231.058 L339.324,231.058 L339.324,240.372 L347.859,240.372 M335.632,227.885 L348.249,227.885 C350.327,227.885 352.04,228.188 353.389,228.794 C355.949,229.957 357.229,232.103 357.229,235.233 C357.229,236.865 356.892,238.201 356.218,239.24 C355.544,240.28 354.601,241.115 353.389,241.745 C354.452,242.178 355.253,242.747 355.791,243.452 C356.329,244.157 356.629,245.302 356.691,246.885 L356.821,250.54 C356.858,251.579 356.945,252.352 357.081,252.86 C357.304,253.726 357.699,254.282 358.268,254.53 L358.268,255.142 L353.741,255.142 C353.617,254.907 353.518,254.604 353.444,254.233 C353.37,253.862 353.308,253.144 353.259,252.08 L353.036,247.534 C352.949,245.753 352.288,244.559 351.051,243.953 C350.346,243.619 349.238,243.452 347.729,243.452 L339.324,243.452 L339.324,255.142 L335.632,255.142 L335.632,227.885 Z" style="stroke:none;fill-rule:nonzero;fill:#ffffff;fill-opacity:1;"/>
        </g>
        <g id="Shape3">
            <desc shapeID="3" type="2" basicInfo-basicType="0" basicInfo-roundedRectRadius="12" basicInfo-polygonSides="6" basicInfo-starPoints="5" bounding="rect(-48.6086,-15.4845,97.2173,30.969)" text="Limitable" font-familyName="Helvetica" font-pixelSize="20" font-bold="0" font-underline="0" font-alignment="1" strokeStyle="0" markerStart="0" markerEnd="0" shadowEnabled="0" shadowOffsetX="0" shadowOffsetY="2" shadowBlur="4" shadowOpacity="160" blurEnabled="0" blurRadius="4" transform="matrix(1,0,0,1,91.358,125.838)" pers-center="0,0" pers-size="0,0" pers-start="0,0" pers-end="0,0" locked="0" mesh="" flag=""/>
            <path id="shapePath3" d="M52.9127,116.398 L54.856,116.398 L54.856,129.035 L62.1217,129.035 L62.1217,130.744 L52.9127,130.744 L52.9127,116.398 M63.7877,120.334 L65.5748,120.334 L65.5748,130.744 L63.7877,130.744 L63.7877,120.334 M63.7877,116.398 L65.5748,116.398 L65.5748,118.39 L63.7877,118.39 L63.7877,116.398 M68.2252,120.285 L69.9634,120.285 L69.9634,121.769 C70.3801,121.255 70.7577,120.881 71.0963,120.646 C71.6757,120.249 72.3332,120.05 73.0689,120.05 C73.9023,120.05 74.5728,120.256 75.0806,120.666 C75.3671,120.9 75.6275,121.245 75.8619,121.701 C76.2525,121.141 76.7115,120.726 77.2388,120.456 C77.7662,120.186 78.3586,120.05 79.0162,120.05 C80.4224,120.05 81.3795,120.558 81.8873,121.574 C82.1607,122.121 82.2974,122.856 82.2974,123.781 L82.2974,130.744 L80.4713,130.744 L80.4713,123.478 C80.4713,122.782 80.2971,122.303 79.9488,122.043 C79.6005,121.782 79.1757,121.652 78.6744,121.652 C77.9843,121.652 77.3902,121.883 76.8922,122.345 C76.3941,122.808 76.1451,123.579 76.1451,124.66 L76.1451,130.744 L74.358,130.744 L74.358,123.918 C74.358,123.208 74.2733,122.69 74.1041,122.365 C73.8371,121.877 73.3391,121.633 72.6099,121.633 C71.9459,121.633 71.342,121.89 70.7984,122.404 C70.2548,122.918 69.983,123.849 69.983,125.197 L69.983,130.744 L68.2252,130.744 L68.2252,120.285 M84.8814,120.334 L86.6685,120.334 L86.6685,130.744 L84.8814,130.744 L84.8814,120.334 M84.8814,116.398 L86.6685,116.398 L86.6685,118.39 L84.8814,118.39 L84.8814,116.398 M89.6705,117.365 L91.4478,117.365 L91.4478,120.285 L93.1177,120.285 L93.1177,121.72 L91.4478,121.72 L91.4478,128.547 C91.4478,128.911 91.5715,129.155 91.8189,129.279 C91.9556,129.351 92.1835,129.386 92.5025,129.386 C92.5871,129.386 92.6783,129.385 92.7759,129.382 C92.8736,129.378 92.9875,129.37 93.1177,129.357 L93.1177,130.744 C92.9159,130.802 92.706,130.845 92.4879,130.871 C92.2698,130.897 92.0338,130.91 91.7799,130.91 C90.9595,130.91 90.4029,130.7 90.1099,130.28 C89.817,129.86 89.6705,129.315 89.6705,128.644 L89.6705,121.72 L88.2545,121.72 L88.2545,120.285 L89.6705,120.285 L89.6705,117.365 M96.7701,129.162 C97.1412,129.455 97.5806,129.601 98.0885,129.601 C98.7069,129.601 99.3059,129.458 99.8853,129.172 C100.862,128.696 101.35,127.918 101.35,126.838 L101.35,125.422 C101.135,125.558 100.859,125.672 100.52,125.763 C100.182,125.855 99.8495,125.92 99.524,125.959 L98.4595,126.095 C97.8215,126.18 97.343,126.314 97.024,126.496 C96.4836,126.802 96.2135,127.29 96.2135,127.961 C96.2135,128.468 96.399,128.869 96.7701,129.162 M100.471,124.406 C100.875,124.354 101.145,124.185 101.282,123.898 C101.36,123.742 101.399,123.517 101.399,123.224 C101.399,122.625 101.186,122.191 100.759,121.921 C100.333,121.65 99.7226,121.515 98.9283,121.515 C98.0103,121.515 97.3593,121.763 96.9752,122.258 C96.7603,122.531 96.6204,122.938 96.5553,123.478 L94.9146,123.478 C94.9472,122.189 95.3655,121.292 96.1695,120.788 C96.9735,120.283 97.9062,120.031 98.9674,120.031 C100.198,120.031 101.197,120.265 101.965,120.734 C102.727,121.203 103.108,121.932 103.108,122.922 L103.108,128.947 C103.108,129.129 103.145,129.276 103.22,129.386 C103.295,129.497 103.453,129.552 103.694,129.552 C103.772,129.552 103.86,129.548 103.958,129.538 C104.055,129.528 104.159,129.513 104.27,129.494 L104.27,130.793 C103.997,130.871 103.788,130.92 103.645,130.939 C103.502,130.959 103.307,130.968 103.059,130.968 C102.454,130.968 102.014,130.754 101.741,130.324 C101.598,130.096 101.497,129.774 101.438,129.357 C101.08,129.826 100.566,130.233 99.8951,130.578 C99.2245,130.923 98.4856,131.095 97.6783,131.095 C96.7082,131.095 95.9156,130.801 95.3004,130.212 C94.6851,129.622 94.3775,128.885 94.3775,128 C94.3775,127.03 94.6802,126.278 95.2857,125.744 C95.8912,125.21 96.6855,124.881 97.6685,124.758 L100.471,124.406 M105.838,116.349 L107.547,116.349 L107.547,121.554 C107.932,121.053 108.391,120.671 108.924,120.407 C109.458,120.143 110.038,120.011 110.663,120.011 C111.965,120.011 113.021,120.459 113.832,121.354 C114.642,122.249 115.047,123.569 115.047,125.314 C115.047,126.968 114.647,128.342 113.846,129.435 C113.045,130.529 111.935,131.076 110.516,131.076 C109.722,131.076 109.051,130.884 108.504,130.5 C108.179,130.272 107.831,129.907 107.46,129.406 L107.46,130.744 L105.838,130.744 L105.838,116.349 M112.543,128.39 C113.015,127.635 113.251,126.639 113.251,125.402 C113.251,124.302 113.015,123.39 112.543,122.668 C112.071,121.945 111.376,121.584 110.458,121.584 C109.657,121.584 108.955,121.88 108.353,122.472 C107.751,123.065 107.45,124.041 107.45,125.402 C107.45,126.385 107.573,127.183 107.821,127.795 C108.283,128.947 109.146,129.523 110.409,129.523 C111.359,129.523 112.071,129.146 112.543,128.39 M117.133,116.398 L118.891,116.398 L118.891,130.744 L117.133,130.744 L117.133,116.398 M128.036,120.573 C128.732,120.921 129.263,121.372 129.628,121.925 C129.979,122.453 130.213,123.068 130.331,123.771 C130.435,124.253 130.487,125.021 130.487,126.076 L122.821,126.076 C122.853,127.137 123.104,127.988 123.573,128.63 C124.042,129.271 124.767,129.592 125.751,129.592 C126.669,129.592 127.401,129.289 127.948,128.683 C128.26,128.332 128.482,127.925 128.612,127.463 L130.34,127.463 C130.295,127.847 130.143,128.275 129.886,128.747 C129.629,129.219 129.341,129.605 129.022,129.904 C128.488,130.425 127.827,130.776 127.04,130.959 C126.616,131.063 126.138,131.115 125.604,131.115 C124.302,131.115 123.198,130.641 122.294,129.694 C121.389,128.747 120.936,127.42 120.936,125.715 C120.936,124.035 121.392,122.671 122.303,121.623 C123.215,120.575 124.406,120.05 125.878,120.05 C126.62,120.05 127.339,120.225 128.036,120.573 M128.68,124.679 C128.609,123.918 128.443,123.309 128.182,122.853 C127.7,122.007 126.896,121.584 125.77,121.584 C124.963,121.584 124.286,121.875 123.739,122.458 C123.192,123.04 122.902,123.781 122.87,124.679 L128.68,124.679 Z" style="stroke:none;fill-rule:nonzero;fill:#555555;fill-opacity:1;"/>
        </g>
        <g id="Shape4">
            <desc shapeID="4" type="2" basicInfo-basicType="0" basicInfo-roundedRectRadius="12" basicInfo-polygonSides="6" basicInfo-starPoints="5" bounding="rect(-48.6086,-15.4845,97.2173,30.969)" text="Mintable" font-familyName="Helvetica" font-pixelSize="20" font-bold="0" font-underline="0" font-alignment="1" strokeStyle="0" markerStart="0" markerEnd="0" shadowEnabled="0" shadowOffsetX="0" shadowOffsetY="2" shadowBlur="4" shadowOpacity="160" blurEnabled="0" blurRadius="4" transform="matrix(1,0,0,1,93.5611,244.078)" pers-center="0,0" pers-size="0,0" pers-start="0,0" pers-end="0,0" locked="0" mesh="" flag=""/>
            <path id="shapePath4" d="M57.2857,234.639 L60.0689,234.639 L64.19,246.768 L68.2818,234.639 L71.0357,234.639 L71.0357,248.985 L69.19,248.985 L69.19,240.518 C69.19,240.225 69.1965,239.74 69.2095,239.063 C69.2226,238.386 69.2291,237.66 69.2291,236.885 L65.1373,248.985 L63.2134,248.985 L59.0924,236.885 L59.0924,237.325 C59.0924,237.676 59.1005,238.212 59.1168,238.931 C59.133,239.65 59.1412,240.179 59.1412,240.518 L59.1412,248.985 L57.2857,248.985 L57.2857,234.639 M73.7564,238.575 L75.5435,238.575 L75.5435,248.985 L73.7564,248.985 L73.7564,238.575 M73.7564,234.639 L75.5435,234.639 L75.5435,236.631 L73.7564,236.631 L73.7564,234.639 M78.1939,238.526 L79.8638,238.526 L79.8638,240.01 C80.3586,239.398 80.8827,238.959 81.4361,238.692 C81.9895,238.425 82.6047,238.291 83.2818,238.291 C84.7662,238.291 85.7688,238.809 86.2896,239.844 C86.5761,240.41 86.7193,241.221 86.7193,242.276 L86.7193,248.985 L84.9322,248.985 L84.9322,242.393 C84.9322,241.755 84.8378,241.241 84.649,240.85 C84.3365,240.199 83.7701,239.873 82.9498,239.873 C82.5331,239.873 82.1913,239.916 81.9244,240 C81.4426,240.144 81.0194,240.43 80.6549,240.86 C80.3619,241.205 80.1715,241.561 80.0836,241.929 C79.9957,242.297 79.9517,242.823 79.9517,243.506 L79.9517,248.985 L78.1939,248.985 L78.1939,238.526 M89.6549,235.606 L91.4322,235.606 L91.4322,238.526 L93.1021,238.526 L93.1021,239.961 L91.4322,239.961 L91.4322,246.787 C91.4322,247.152 91.5559,247.396 91.8033,247.52 C91.94,247.591 92.1679,247.627 92.4869,247.627 C92.5715,247.627 92.6627,247.626 92.7603,247.622 C92.858,247.619 92.9719,247.611 93.1021,247.598 L93.1021,248.985 C92.9003,249.043 92.6903,249.086 92.4722,249.112 C92.2541,249.138 92.0181,249.151 91.7642,249.151 C90.9439,249.151 90.3873,248.941 90.0943,248.521 C89.8013,248.101 89.6549,247.556 89.6549,246.885 L89.6549,239.961 L88.2388,239.961 L88.2388,238.526 L89.6549,238.526 L89.6549,235.606 M96.7545,247.403 C97.1256,247.696 97.565,247.842 98.0728,247.842 C98.6913,247.842 99.2903,247.699 99.8697,247.412 C100.846,246.937 101.335,246.159 101.335,245.078 L101.335,243.662 C101.12,243.799 100.843,243.913 100.504,244.004 C100.166,244.095 99.8339,244.16 99.5084,244.2 L98.4439,244.336 C97.8059,244.421 97.3274,244.554 97.0084,244.737 C96.468,245.043 96.1978,245.531 96.1978,246.201 C96.1978,246.709 96.3834,247.11 96.7545,247.403 M100.456,242.647 C100.859,242.595 101.129,242.425 101.266,242.139 C101.344,241.983 101.383,241.758 101.383,241.465 C101.383,240.866 101.17,240.432 100.744,240.161 C100.317,239.891 99.7069,239.756 98.9127,239.756 C97.9947,239.756 97.3437,240.004 96.9595,240.498 C96.7447,240.772 96.6047,241.179 96.5396,241.719 L94.899,241.719 C94.9315,240.43 95.3498,239.533 96.1539,239.029 C96.9579,238.524 97.8905,238.272 98.9517,238.272 C100.182,238.272 101.182,238.506 101.95,238.975 C102.712,239.444 103.092,240.173 103.092,241.162 L103.092,247.188 C103.092,247.37 103.13,247.517 103.205,247.627 C103.28,247.738 103.437,247.793 103.678,247.793 C103.756,247.793 103.844,247.788 103.942,247.779 C104.04,247.769 104.144,247.754 104.254,247.735 L104.254,249.033 C103.981,249.112 103.773,249.16 103.629,249.18 C103.486,249.2 103.291,249.209 103.044,249.209 C102.438,249.209 101.999,248.994 101.725,248.565 C101.582,248.337 101.481,248.015 101.422,247.598 C101.064,248.067 100.55,248.474 99.8795,248.819 C99.2089,249.164 98.47,249.336 97.6627,249.336 C96.6926,249.336 95.9,249.042 95.2847,248.452 C94.6695,247.863 94.3619,247.126 94.3619,246.241 C94.3619,245.27 94.6646,244.519 95.2701,243.985 C95.8756,243.451 96.6698,243.122 97.6529,242.998 L100.456,242.647 M105.823,234.59 L107.532,234.59 L107.532,239.795 C107.916,239.294 108.375,238.911 108.909,238.648 C109.443,238.384 110.022,238.252 110.647,238.252 C111.949,238.252 113.005,238.7 113.816,239.595 C114.627,240.49 115.032,241.81 115.032,243.555 C115.032,245.209 114.631,246.582 113.831,247.676 C113.03,248.77 111.92,249.317 110.501,249.317 C109.706,249.317 109.036,249.125 108.489,248.741 C108.163,248.513 107.815,248.148 107.444,247.647 L107.444,248.985 L105.823,248.985 L105.823,234.59 M112.527,246.631 C112.999,245.876 113.235,244.88 113.235,243.643 C113.235,242.543 112.999,241.631 112.527,240.908 C112.055,240.186 111.36,239.825 110.442,239.825 C109.641,239.825 108.94,240.121 108.337,240.713 C107.735,241.306 107.434,242.282 107.434,243.643 C107.434,244.626 107.558,245.423 107.805,246.035 C108.267,247.188 109.13,247.764 110.393,247.764 C111.344,247.764 112.055,247.386 112.527,246.631 M117.118,234.639 L118.876,234.639 L118.876,248.985 L117.118,248.985 L117.118,234.639 M128.02,238.814 C128.717,239.162 129.247,239.613 129.612,240.166 C129.963,240.694 130.198,241.309 130.315,242.012 C130.419,242.494 130.471,243.262 130.471,244.317 L122.805,244.317 C122.838,245.378 123.088,246.229 123.557,246.87 C124.026,247.512 124.752,247.832 125.735,247.832 C126.653,247.832 127.385,247.53 127.932,246.924 C128.245,246.573 128.466,246.166 128.596,245.703 L130.325,245.703 C130.279,246.088 130.128,246.516 129.871,246.988 C129.614,247.46 129.325,247.845 129.006,248.145 C128.473,248.666 127.812,249.017 127.024,249.2 C126.601,249.304 126.122,249.356 125.588,249.356 C124.286,249.356 123.183,248.882 122.278,247.935 C121.373,246.988 120.92,245.661 120.92,243.955 C120.92,242.276 121.376,240.912 122.288,239.864 C123.199,238.815 124.391,238.291 125.862,238.291 C126.604,238.291 127.323,238.465 128.02,238.814 M128.665,242.92 C128.593,242.158 128.427,241.55 128.167,241.094 C127.685,240.248 126.881,239.825 125.754,239.825 C124.947,239.825 124.27,240.116 123.723,240.699 C123.176,241.281 122.887,242.022 122.854,242.92 L128.665,242.92 Z" style="stroke:none;fill-rule:nonzero;fill:#555555;fill-opacity:1;"/>
        </g>
        <g id="Shape5">
            <desc shapeID="5" type="2" basicInfo-basicType="0" basicInfo-roundedRectRadius="12" basicInfo-polygonSides="6" basicInfo-starPoints="5" bounding="rect(-48.6086,-15.4845,97.2173,30.969)" text="Markable" font-familyName="Helvetica" font-pixelSize="20" font-bold="0" font-underline="0" font-alignment="1" strokeStyle="0" markerStart="0" markerEnd="0" shadowEnabled="0" shadowOffsetX="0" shadowOffsetY="2" shadowBlur="4" shadowOpacity="160" blurEnabled="0" blurRadius="4" transform="matrix(1,0,0,1,93.6495,354.716)" pers-center="0,0" pers-size="0,0" pers-start="0,0" pers-end="0,0" locked="0" mesh="" flag=""/>
            <path id="shapePath5" d="M54.0303,345.277 L56.8135,345.277 L60.9346,357.406 L65.0264,345.277 L67.7803,345.277 L67.7803,359.622 L65.9346,359.622 L65.9346,351.156 C65.9346,350.863 65.9411,350.378 65.9542,349.701 C65.9672,349.023 65.9737,348.298 65.9737,347.523 L61.8819,359.622 L59.9581,359.622 L55.837,347.523 L55.837,347.962 C55.837,348.314 55.8451,348.849 55.8614,349.569 C55.8777,350.288 55.8858,350.817 55.8858,351.156 L55.8858,359.622 L54.0303,359.622 L54.0303,345.277 M72.4053,358.04 C72.7764,358.333 73.2159,358.48 73.7237,358.48 C74.3422,358.48 74.9411,358.337 75.5206,358.05 C76.4971,357.575 76.9854,356.797 76.9854,355.716 L76.9854,354.3 C76.7706,354.437 76.4939,354.551 76.1553,354.642 C75.8168,354.733 75.4848,354.798 75.1592,354.837 L74.0948,354.974 C73.4568,355.059 72.9783,355.192 72.6592,355.374 C72.1189,355.68 71.8487,356.169 71.8487,356.839 C71.8487,357.347 72.0342,357.747 72.4053,358.04 M76.1065,353.285 C76.5102,353.232 76.7803,353.063 76.9171,352.777 C76.9952,352.62 77.0342,352.396 77.0342,352.103 C77.0342,351.504 76.821,351.069 76.3946,350.799 C75.9682,350.529 75.3578,350.394 74.5635,350.394 C73.6456,350.394 72.9945,350.641 72.6104,351.136 C72.3956,351.41 72.2556,351.816 72.1905,352.357 L70.5499,352.357 C70.5824,351.068 71.0007,350.171 71.8048,349.666 C72.6088,349.162 73.5414,348.91 74.6026,348.91 C75.8331,348.91 76.8324,349.144 77.6007,349.613 C78.3624,350.081 78.7432,350.811 78.7432,351.8 L78.7432,357.826 C78.7432,358.008 78.7807,358.154 78.8555,358.265 C78.9304,358.376 79.0883,358.431 79.3292,358.431 C79.4073,358.431 79.4952,358.426 79.5928,358.416 C79.6905,358.407 79.7947,358.392 79.9053,358.372 L79.9053,359.671 C79.6319,359.749 79.4236,359.798 79.2803,359.818 C79.1371,359.837 78.9418,359.847 78.6944,359.847 C78.0889,359.847 77.6495,359.632 77.376,359.202 C77.2328,358.975 77.1319,358.652 77.0733,358.236 C76.7152,358.704 76.2009,359.111 75.5303,359.456 C74.8598,359.801 74.1208,359.974 73.3135,359.974 C72.3435,359.974 71.5508,359.679 70.9356,359.09 C70.3204,358.501 70.0128,357.764 70.0128,356.878 C70.0128,355.908 70.3155,355.156 70.921,354.622 C71.5264,354.089 72.3207,353.76 73.3038,353.636 L76.1065,353.285 M81.6592,349.163 L83.3292,349.163 L83.3292,350.97 C83.4659,350.618 83.8012,350.19 84.335,349.686 C84.8689,349.181 85.4841,348.929 86.1807,348.929 C86.2133,348.929 86.2686,348.932 86.3467,348.939 C86.4249,348.945 86.5583,348.958 86.7471,348.978 L86.7471,350.833 C86.643,350.814 86.5469,350.801 86.4591,350.794 C86.3712,350.788 86.2751,350.785 86.171,350.785 C85.2856,350.785 84.6052,351.069 84.13,351.639 C83.6547,352.209 83.4171,352.865 83.4171,353.607 L83.4171,359.622 L81.6592,359.622 L81.6592,349.163 M88.2276,345.277 L89.9171,345.277 L89.9171,353.607 L94.4288,349.163 L96.6749,349.163 L92.671,353.079 L96.8995,359.622 L94.6534,359.622 L91.3917,354.349 L89.9171,355.697 L89.9171,359.622 L88.2276,359.622 L88.2276,345.277 M100.171,358.04 C100.542,358.333 100.982,358.48 101.489,358.48 C102.108,358.48 102.707,358.337 103.286,358.05 C104.263,357.575 104.751,356.797 104.751,355.716 L104.751,354.3 C104.536,354.437 104.26,354.551 103.921,354.642 C103.582,354.733 103.25,354.798 102.925,354.837 L101.86,354.974 C101.222,355.059 100.744,355.192 100.425,355.374 C99.8845,355.68 99.6143,356.169 99.6143,356.839 C99.6143,357.347 99.7999,357.747 100.171,358.04 M103.872,353.285 C104.276,353.232 104.546,353.063 104.683,352.777 C104.761,352.62 104.8,352.396 104.8,352.103 C104.8,351.504 104.587,351.069 104.16,350.799 C103.734,350.529 103.123,350.394 102.329,350.394 C101.411,350.394 100.76,350.641 100.376,351.136 C100.161,351.41 100.021,351.816 99.9561,352.357 L98.3155,352.357 C98.3481,351.068 98.7663,350.171 99.5704,349.666 C100.374,349.162 101.307,348.91 102.368,348.91 C103.599,348.91 104.598,349.144 105.366,349.613 C106.128,350.081 106.509,350.811 106.509,351.8 L106.509,357.826 C106.509,358.008 106.546,358.154 106.621,358.265 C106.696,358.376 106.854,358.431 107.095,358.431 C107.173,358.431 107.261,358.426 107.358,358.416 C107.456,358.407 107.56,358.392 107.671,358.372 L107.671,359.671 C107.398,359.749 107.189,359.798 107.046,359.818 C106.903,359.837 106.707,359.847 106.46,359.847 C105.855,359.847 105.415,359.632 105.142,359.202 C104.998,358.975 104.898,358.652 104.839,358.236 C104.481,358.704 103.967,359.111 103.296,359.456 C102.625,359.801 101.886,359.974 101.079,359.974 C100.109,359.974 99.3165,359.679 98.7012,359.09 C98.086,358.501 97.7784,357.764 97.7784,356.878 C97.7784,355.908 98.0811,355.156 98.6866,354.622 C99.2921,354.089 100.086,353.76 101.069,353.636 L103.872,353.285 M109.239,345.228 L110.948,345.228 L110.948,350.433 C111.332,349.932 111.791,349.549 112.325,349.285 C112.859,349.022 113.439,348.89 114.064,348.89 C115.366,348.89 116.422,349.338 117.232,350.233 C118.043,351.128 118.448,352.448 118.448,354.193 C118.448,355.846 118.048,357.22 117.247,358.314 C116.446,359.408 115.336,359.954 113.917,359.954 C113.123,359.954 112.452,359.762 111.905,359.378 C111.58,359.15 111.232,358.786 110.86,358.285 L110.86,359.622 L109.239,359.622 L109.239,345.228 M115.943,357.269 C116.415,356.514 116.651,355.518 116.651,354.281 C116.651,353.18 116.415,352.269 115.943,351.546 C115.471,350.824 114.776,350.462 113.858,350.462 C113.058,350.462 112.356,350.758 111.754,351.351 C111.152,351.943 110.851,352.92 110.851,354.281 C110.851,355.264 110.974,356.061 111.222,356.673 C111.684,357.826 112.547,358.402 113.81,358.402 C114.76,358.402 115.471,358.024 115.943,357.269 M120.534,345.277 L122.292,345.277 L122.292,359.622 L120.534,359.622 L120.534,345.277 M131.437,349.452 C132.133,349.8 132.664,350.251 133.028,350.804 C133.38,351.331 133.614,351.947 133.732,352.65 C133.836,353.132 133.888,353.9 133.888,354.954 L126.222,354.954 C126.254,356.016 126.505,356.867 126.974,357.508 C127.442,358.149 128.168,358.47 129.151,358.47 C130.069,358.47 130.802,358.167 131.349,357.562 C131.661,357.21 131.883,356.803 132.013,356.341 L133.741,356.341 C133.696,356.725 133.544,357.153 133.287,357.625 C133.03,358.097 132.742,358.483 132.423,358.783 C131.889,359.303 131.228,359.655 130.441,359.837 C130.017,359.941 129.539,359.993 129.005,359.993 C127.703,359.993 126.599,359.52 125.694,358.573 C124.789,357.625 124.337,356.299 124.337,354.593 C124.337,352.913 124.793,351.549 125.704,350.501 C126.616,349.453 127.807,348.929 129.278,348.929 C130.021,348.929 130.74,349.103 131.437,349.452 M132.081,353.558 C132.01,352.796 131.844,352.188 131.583,351.732 C131.101,350.885 130.297,350.462 129.171,350.462 C128.364,350.462 127.687,350.754 127.14,351.336 C126.593,351.919 126.303,352.66 126.271,353.558 L132.081,353.558 Z" style="stroke:none;fill-rule:nonzero;fill:#555555;fill-opacity:1;"/>
        </g>
        <g id="Shape6">
            <desc shapeID="6" type="2" basicInfo-basicType="0" basicInfo-roundedRectRadius="12" basicInfo-polygonSides="6" basicInfo-starPoints="5" bounding="rect(-48.6086,-15.4845,97.2173,30.969)" text="PoS" font-familyName="Helvetica" font-pixelSize="20" font-bold="0" font-underline="0" font-alignment="1" strokeStyle="0" markerStart="0" markerEnd="0" shadowEnabled="0" shadowOffsetX="0" shadowOffsetY="2" shadowBlur="4" shadowOpacity="160" blurEnabled="0" blurRadius="4" transform="matrix(1,0,0,1,534.291,118.455)" pers-center="0,0" pers-size="0,0" pers-start="0,0" pers-end="0,0" locked="0" mesh="" flag=""/>
            <path id="shapePath6" d="M517.125,109.015 L523.58,109.015 C524.856,109.015 525.885,109.375 526.666,110.094 C527.447,110.814 527.838,111.825 527.838,113.127 C527.838,114.246 527.49,115.221 526.793,116.051 C526.096,116.882 525.026,117.297 523.58,117.297 L519.068,117.297 L519.068,123.361 L517.125,123.361 L517.125,109.015 M524.703,110.988 C524.274,110.786 523.684,110.685 522.936,110.685 L519.068,110.685 L519.068,115.656 L522.936,115.656 C523.808,115.656 524.516,115.47 525.06,115.099 C525.603,114.728 525.875,114.074 525.875,113.136 C525.875,112.082 525.484,111.366 524.703,110.988 M536.581,120.905 C537.014,120.023 537.231,119.041 537.231,117.961 C537.231,116.984 537.074,116.19 536.762,115.578 C536.267,114.614 535.414,114.133 534.203,114.133 C533.129,114.133 532.348,114.543 531.859,115.363 C531.371,116.183 531.127,117.173 531.127,118.332 C531.127,119.445 531.371,120.373 531.859,121.115 C532.348,121.857 533.122,122.228 534.184,122.228 C535.349,122.228 536.148,121.787 536.581,120.905 M537.67,113.947 C538.601,114.845 539.067,116.167 539.067,117.912 C539.067,119.598 538.656,120.991 537.836,122.092 C537.016,123.192 535.743,123.742 534.018,123.742 C532.579,123.742 531.436,123.255 530.59,122.282 C529.744,121.309 529.32,120.002 529.32,118.361 C529.32,116.603 529.766,115.203 530.658,114.162 C531.55,113.12 532.748,112.599 534.252,112.599 C535.6,112.599 536.739,113.049 537.67,113.947 M542.647,118.732 C542.692,119.546 542.884,120.207 543.223,120.715 C543.867,121.665 545.003,122.14 546.631,122.14 C547.36,122.14 548.024,122.036 548.623,121.828 C549.782,121.424 550.361,120.702 550.361,119.66 C550.361,118.879 550.117,118.322 549.629,117.99 C549.134,117.664 548.359,117.381 547.305,117.14 L545.361,116.701 C544.092,116.414 543.193,116.099 542.666,115.754 C541.755,115.155 541.299,114.259 541.299,113.068 C541.299,111.779 541.745,110.721 542.637,109.894 C543.529,109.067 544.792,108.654 546.426,108.654 C547.93,108.654 549.207,109.017 550.259,109.743 C551.31,110.469 551.836,111.629 551.836,113.224 L550.01,113.224 C549.912,112.456 549.704,111.867 549.385,111.457 C548.792,110.708 547.787,110.334 546.367,110.334 C545.221,110.334 544.398,110.575 543.897,111.056 C543.395,111.538 543.145,112.098 543.145,112.736 C543.145,113.439 543.438,113.953 544.024,114.279 C544.408,114.487 545.277,114.748 546.631,115.06 L548.643,115.519 C549.613,115.741 550.361,116.043 550.889,116.427 C551.8,117.098 552.256,118.071 552.256,119.347 C552.256,120.936 551.678,122.072 550.523,122.756 C549.367,123.439 548.024,123.781 546.494,123.781 C544.71,123.781 543.314,123.325 542.305,122.414 C541.296,121.509 540.801,120.282 540.82,118.732 L542.647,118.732 Z" style="stroke:none;fill-rule:nonzero;fill:#555555;fill-opacity:1;"/>
        </g>
        <g id="Shape7">
            <desc shapeID="7" type="2" basicInfo-basicType="0" basicInfo-roundedRectRadius="12" basicInfo-polygonSides="6" basicInfo-starPoints="5" bounding="rect(-48.6086,-15.4845,97.2173,30.969)" text="Replication" font-familyName="Helvetica" font-pixelSize="20" font-bold="0" font-underline="0" font-alignment="1" strokeStyle="0" markerStart="0" markerEnd="0" shadowEnabled="0" shadowOffsetX="0" shadowOffsetY="2" shadowBlur="4" shadowOpacity="160" blurEnabled="0" blurRadius="4" transform="matrix(1,0,0,1,559.242,350.917)" pers-center="0,0" pers-size="0,0" pers-start="0,0" pers-end="0,0" locked="0" mesh="" flag=""/>
            <path id="shapePath7" d="M518.014,348.05 C518.925,348.05 519.646,347.868 520.177,347.503 C520.707,347.139 520.973,346.481 520.973,345.531 C520.973,344.508 520.602,343.812 519.859,343.441 C519.462,343.245 518.932,343.148 518.268,343.148 L513.522,343.148 L513.522,348.05 L518.014,348.05 M511.578,341.478 L518.219,341.478 C519.313,341.478 520.214,341.637 520.924,341.956 C522.272,342.568 522.945,343.698 522.945,345.345 C522.945,346.204 522.768,346.908 522.413,347.454 C522.058,348.001 521.562,348.441 520.924,348.773 C521.484,349.001 521.905,349.3 522.189,349.671 C522.472,350.042 522.63,350.645 522.662,351.478 L522.731,353.402 C522.75,353.949 522.796,354.355 522.867,354.622 C522.984,355.078 523.193,355.371 523.492,355.501 L523.492,355.824 L521.109,355.824 C521.044,355.7 520.992,355.54 520.953,355.345 C520.914,355.15 520.882,354.772 520.856,354.212 L520.738,351.82 C520.693,350.882 520.345,350.254 519.693,349.935 C519.322,349.759 518.74,349.671 517.945,349.671 L513.522,349.671 L513.522,355.824 L511.578,355.824 L511.578,341.478 M532.061,345.653 C532.757,346.001 533.288,346.452 533.652,347.005 C534.004,347.533 534.238,348.148 534.356,348.851 C534.46,349.333 534.512,350.101 534.512,351.156 L526.846,351.156 C526.878,352.217 527.129,353.068 527.598,353.709 C528.067,354.351 528.792,354.671 529.776,354.671 C530.693,354.671 531.426,354.368 531.973,353.763 C532.285,353.411 532.507,353.005 532.637,352.542 L534.365,352.542 C534.32,352.926 534.168,353.354 533.911,353.827 C533.654,354.299 533.366,354.684 533.047,354.984 C532.513,355.505 531.852,355.856 531.065,356.038 C530.641,356.143 530.163,356.195 529.629,356.195 C528.327,356.195 527.223,355.721 526.318,354.774 C525.414,353.827 524.961,352.5 524.961,350.794 C524.961,349.115 525.417,347.751 526.328,346.702 C527.24,345.654 528.431,345.13 529.902,345.13 C530.645,345.13 531.364,345.304 532.061,345.653 M532.705,349.759 C532.634,348.997 532.468,348.389 532.207,347.933 C531.725,347.087 530.921,346.663 529.795,346.663 C528.988,346.663 528.311,346.955 527.764,347.537 C527.217,348.12 526.927,348.861 526.895,349.759 L532.705,349.759 M543.116,353.612 C543.66,352.925 543.932,351.898 543.932,350.531 C543.932,349.697 543.811,348.981 543.57,348.382 C543.115,347.23 542.281,346.654 541.07,346.654 C539.853,346.654 539.02,347.262 538.57,348.48 C538.33,349.131 538.209,349.958 538.209,350.96 C538.209,351.768 538.33,352.454 538.57,353.021 C539.026,354.102 539.859,354.642 541.07,354.642 C541.891,354.642 542.573,354.299 543.116,353.612 M536.52,345.413 L538.229,345.413 L538.229,346.8 C538.58,346.325 538.964,345.957 539.381,345.697 C539.973,345.306 540.67,345.111 541.471,345.111 C542.656,345.111 543.662,345.565 544.488,346.473 C545.315,347.381 545.729,348.678 545.729,350.365 C545.729,352.643 545.133,354.271 543.942,355.247 C543.186,355.866 542.307,356.175 541.305,356.175 C540.517,356.175 539.856,356.003 539.322,355.658 C539.01,355.462 538.662,355.127 538.277,354.652 L538.277,359.993 L536.52,359.993 L536.52,345.413 M547.815,341.478 L549.572,341.478 L549.572,355.824 L547.815,355.824 L547.815,341.478 M552.203,345.413 L553.99,345.413 L553.99,355.824 L552.203,355.824 L552.203,345.413 M552.203,341.478 L553.99,341.478 L553.99,343.47 L552.203,343.47 L552.203,341.478 M563.55,345.921 C564.289,346.494 564.733,347.48 564.883,348.88 L563.174,348.88 C563.07,348.236 562.832,347.7 562.461,347.274 C562.09,346.847 561.494,346.634 560.674,346.634 C559.554,346.634 558.753,347.181 558.272,348.275 C557.959,348.984 557.803,349.86 557.803,350.902 C557.803,351.95 558.024,352.832 558.467,353.548 C558.91,354.264 559.606,354.622 560.557,354.622 C561.286,354.622 561.864,354.399 562.29,353.953 C562.717,353.508 563.011,352.897 563.174,352.122 L564.883,352.122 C564.688,353.509 564.199,354.523 563.418,355.164 C562.637,355.806 561.638,356.126 560.42,356.126 C559.053,356.126 557.962,355.627 557.149,354.627 C556.335,353.628 555.928,352.38 555.928,350.882 C555.928,349.046 556.374,347.617 557.266,346.595 C558.158,345.573 559.294,345.062 560.674,345.062 C561.852,345.062 562.811,345.348 563.55,345.921 M568.545,354.242 C568.916,354.535 569.356,354.681 569.863,354.681 C570.482,354.681 571.081,354.538 571.66,354.251 C572.637,353.776 573.125,352.998 573.125,351.917 L573.125,350.501 C572.91,350.638 572.634,350.752 572.295,350.843 C571.956,350.934 571.624,350.999 571.299,351.038 L570.234,351.175 C569.596,351.26 569.118,351.393 568.799,351.576 C568.259,351.882 567.988,352.37 567.988,353.04 C567.988,353.548 568.174,353.949 568.545,354.242 M572.246,349.486 C572.65,349.434 572.92,349.264 573.057,348.978 C573.135,348.822 573.174,348.597 573.174,348.304 C573.174,347.705 572.961,347.271 572.534,347 C572.108,346.73 571.497,346.595 570.703,346.595 C569.785,346.595 569.134,346.842 568.75,347.337 C568.535,347.611 568.395,348.018 568.33,348.558 L566.69,348.558 C566.722,347.269 567.14,346.372 567.944,345.868 C568.748,345.363 569.681,345.111 570.742,345.111 C571.973,345.111 572.972,345.345 573.74,345.814 C574.502,346.283 574.883,347.012 574.883,348.001 L574.883,354.027 C574.883,354.209 574.92,354.355 574.995,354.466 C575.07,354.577 575.228,354.632 575.469,354.632 C575.547,354.632 575.635,354.627 575.733,354.618 C575.83,354.608 575.934,354.593 576.045,354.574 L576.045,355.872 C575.772,355.951 575.563,355.999 575.42,356.019 C575.277,356.038 575.081,356.048 574.834,356.048 C574.229,356.048 573.789,355.833 573.516,355.404 C573.372,355.176 573.272,354.854 573.213,354.437 C572.855,354.906 572.341,355.312 571.67,355.658 C570.999,356.003 570.261,356.175 569.453,356.175 C568.483,356.175 567.691,355.881 567.075,355.291 C566.46,354.702 566.152,353.965 566.152,353.079 C566.152,352.109 566.455,351.357 567.061,350.824 C567.666,350.29 568.46,349.961 569.443,349.837 L572.246,349.486 M578.102,342.445 L579.879,342.445 L579.879,345.365 L581.549,345.365 L581.549,346.8 L579.879,346.8 L579.879,353.626 C579.879,353.991 580.003,354.235 580.25,354.359 C580.387,354.43 580.615,354.466 580.934,354.466 C581.018,354.466 581.109,354.465 581.207,354.461 C581.305,354.458 581.419,354.45 581.549,354.437 L581.549,355.824 C581.347,355.882 581.137,355.924 580.919,355.951 C580.701,355.977 580.465,355.99 580.211,355.99 C579.391,355.99 578.834,355.78 578.541,355.36 C578.248,354.94 578.102,354.395 578.102,353.724 L578.102,346.8 L576.686,346.8 L576.686,345.365 L578.102,345.365 L578.102,342.445 M583.297,345.413 L585.084,345.413 L585.084,355.824 L583.297,355.824 L583.297,345.413 M583.297,341.478 L585.084,341.478 L585.084,343.47 L583.297,343.47 L583.297,341.478 M594.282,353.368 C594.715,352.485 594.932,351.504 594.932,350.423 C594.932,349.447 594.776,348.652 594.463,348.04 C593.968,347.077 593.115,346.595 591.904,346.595 C590.83,346.595 590.049,347.005 589.561,347.826 C589.072,348.646 588.828,349.635 588.828,350.794 C588.828,351.908 589.072,352.835 589.561,353.577 C590.049,354.32 590.824,354.691 591.885,354.691 C593.05,354.691 593.849,354.25 594.282,353.368 M595.371,346.41 C596.302,347.308 596.768,348.63 596.768,350.374 C596.768,352.061 596.358,353.454 595.537,354.554 C594.717,355.654 593.444,356.204 591.719,356.204 C590.28,356.204 589.138,355.718 588.291,354.744 C587.445,353.771 587.022,352.464 587.022,350.824 C587.022,349.066 587.468,347.666 588.359,346.624 C589.251,345.583 590.449,345.062 591.953,345.062 C593.301,345.062 594.44,345.511 595.371,346.41 M598.844,345.365 L600.514,345.365 L600.514,346.849 C601.009,346.237 601.533,345.798 602.086,345.531 C602.639,345.264 603.255,345.13 603.932,345.13 C605.416,345.13 606.419,345.648 606.94,346.683 C607.226,347.249 607.369,348.06 607.369,349.115 L607.369,355.824 L605.582,355.824 L605.582,349.232 C605.582,348.594 605.488,348.079 605.299,347.689 C604.986,347.038 604.42,346.712 603.6,346.712 C603.183,346.712 602.841,346.755 602.574,346.839 C602.093,346.982 601.669,347.269 601.305,347.699 C601.012,348.044 600.821,348.4 600.734,348.768 C600.646,349.136 600.602,349.661 600.602,350.345 L600.602,355.824 L598.844,355.824 L598.844,345.365 Z" style="stroke:none;fill-rule:nonzero;fill:#555555;fill-opacity:1;"/>
        </g>
        <g id="Shape8">
            <desc shapeID="8" type="0" basicInfo-basicType="1" basicInfo-roundedRectRadius="12" basicInfo-polygonSides="6" basicInfo-starPoints="5" bounding="rect(-51.8729,-21.9585,103.746,43.9169)" text="" font-familyName="Helvetica" font-pixelSize="38" font-bold="0" font-underline="0" font-alignment="1" strokeStyle="0" markerStart="0" markerEnd="0" shadowEnabled="0" shadowOffsetX="0" shadowOffsetY="2" shadowBlur="4" shadowOpacity="160" blurEnabled="0" blurRadius="4" transform="matrix(-0.80251,-0.535727,0.0241472,-0.0361721,191.005,163.559)" pers-center="0,0" pers-size="0,0" pers-start="0,0" pers-end="0,0" locked="0" mesh="" flag=""/>
            <path id="shapePath8" d="M232.104,192.143 L148.847,136.563 L149.907,134.975 L233.164,190.554 L232.104,192.143 Z" style="stroke:none;fill-rule:evenodd;fill:#555555;fill-opacity:1;"/>
        </g>
        <g id="Shape9">
            <desc shapeID="9" type="0" basicInfo-basicType="1" basicInfo-roundedRectRadius="12" basicInfo-polygonSides="6" basicInfo-starPoints="5" bounding="rect(-51.8729,-21.9585,103.746,43.9169)" text="" font-familyName="Helvetica" font-pixelSize="38" font-bold="0" font-underline="0" font-alignment="1" strokeStyle="0" markerStart="0" markerEnd="0" shadowEnabled="0" shadowOffsetX="0" shadowOffsetY="2" shadowBlur="4" shadowOpacity="160" blurEnabled="0" blurRadius="4" transform="matrix(-0.752949,0.603402,-0.0271976,-0.0339382,191.005,316.227)" pers-center="0,0" pers-size="0,0" pers-start="0,0" pers-end="0,0" locked="0" mesh="" flag=""/>
            <path id="shapePath9" d="M230.66,285.673 L152.545,348.273 L151.351,346.783 L229.466,284.182 L230.66,285.673 Z" style="stroke:none;fill-rule:evenodd;fill:#555555;fill-opacity:1;"/>
        </g>
        <g id="Shape10">
            <desc shapeID="10" type="0" basicInfo-basicType="1" basicInfo-roundedRectRadius="12" basicInfo-polygonSides="6" basicInfo-starPoints="5" bounding="rect(-51.8729,-21.9585,103.746,43.9169)" text="" font-familyName="Helvetica" font-pixelSize="38" font-bold="0" font-underline="0" font-alignment="1" strokeStyle="0" markerStart="0" markerEnd="0" shadowEnabled="0" shadowOffsetX="0" shadowOffsetY="2" shadowBlur="4" shadowOpacity="160" blurEnabled="0" blurRadius="4" transform="matrix(-0.734093,0.00601863,-0.000356589,-0.04349,186.934,241.541)" pers-center="0,0" pers-size="0,0" pers-start="0,0" pers-end="0,0" locked="0" mesh="" flag=""/>
            <path id="shapePath10" d="M225.021,242.184 L148.862,242.809 L148.847,240.899 L225.006,240.274 L225.021,242.184 Z" style="stroke:none;fill-rule:evenodd;fill:#555555;fill-opacity:1;"/>
        </g>
        <g id="Shape11">
            <desc shapeID="11" type="0" basicInfo-basicType="1" basicInfo-roundedRectRadius="12" basicInfo-polygonSides="6" basicInfo-starPoints="5" bounding="rect(-51.8729,-21.9585,103.746,43.9169)" text="" font-familyName="Helvetica" font-pixelSize="38" font-bold="0" font-underline="0" font-alignment="1" strokeStyle="0" markerStart="0" markerEnd="0" shadowEnabled="0" shadowOffsetX="0" shadowOffsetY="2" shadowBlur="4" shadowOpacity="160" blurEnabled="0" blurRadius="4" transform="matrix(0.794388,0.547699,-0.0246868,0.035806,450.392,317.734)" pers-center="0,0" pers-size="0,0" pers-start="0,0" pers-end="0,0" locked="0" mesh="" flag=""/>
            <path id="shapePath11" d="M409.727,288.537 L492.142,345.359 L491.057,346.931 L408.643,290.11 L409.727,288.537 Z" style="stroke:none;fill-rule:evenodd;fill:#555555;fill-opacity:1;"/>
        </g>
        <g id="Shape12">
            <desc shapeID="12" type="0" basicInfo-basicType="1" basicInfo-roundedRectRadius="12" basicInfo-polygonSides="6" basicInfo-starPoints="5" bounding="rect(-51.8729,-21.9585,103.746,43.9169)" text="" font-familyName="Helvetica" font-pixelSize="38" font-bold="0" font-underline="0" font-alignment="1" strokeStyle="0" markerStart="0" markerEnd="0" shadowEnabled="0" shadowOffsetX="0" shadowOffsetY="2" shadowBlur="4" shadowOpacity="160" blurEnabled="0" blurRadius="4" transform="matrix(0.761911,-0.592045,0.0266857,0.0343421,452.681,165.082)" pers-center="0,0" pers-size="0,0" pers-start="0,0" pers-end="0,0" locked="0" mesh="" flag=""/>
            <path id="shapePath12" d="M412.573,195.04 L491.618,133.617 L492.79,135.126 L413.745,196.548 L412.573,195.04 Z" style="stroke:none;fill-rule:evenodd;fill:#555555;fill-opacity:1;"/>
        </g>
    </g>
</svg>
